<?xml version="1.0" encoding="utf-8"?>
<!-- Generator: Adobe Illustrator 26.5.0, SVG Export Plug-In . SVG Version: 6.00 Build 0)  -->
<svg version="1.1" id="cover-img-desktop" xmlns="http://www.w3.org/2000/svg" xmlns:xlink="http://www.w3.org/1999/xlink" x="0px"
	 y="0px" viewBox="0 0 1291 1023" style="enable-background:new 0 0 1291 1023;" xml:space="preserve">
<style type="text/css">
	.st0{fill:#363636;}
	.st1{fill:#310DE8;}
	.st2{fill:#FFFFFF;}
	.st3{fill:#FFE48A;}
	.st4{clip-path:url(#SVGID_00000141448621509684406010000002238022825049496507_);}
	#bigStar{ animation: fadeInLeft 1s; }
	#smStar1{ animation: fadeInLeft 1s; }
	#smStar2{ animation: fadeInLeft 1s; }
	#smStar3{ animation: fadeInLeft 1s; }
	#smStar4{ animation: fadeInLeft 1s; }
	<!-- @-webkit-keyframes fade-in {
		0% {
			opacity: 0;
		}
		100% {
			opacity: 1;
		}
	} -->
	@keyframes fadeInLeft {
		0% {
			opacity: 0;
			transform: translateX(-20px);
		}
		100% {
			opacity: 1;
			transform: translateX(0);
		}
	} 
</style>
<g id="lyecIh.tif">
	<g>
		<path class="st0" d="M977.6,13.4c0.4,0,0.8,0,1.2,0c1,0.4,1.9,0.9,2.9,1.2c1.3,0.4,2.7,0.6,4,1.1c2.8,1.2,6.2,0.8,8.3,3.7
			c0.2,0.2,0.8,0.1,1.2,0.1c2.9-0.1,6.1,1.5,8.6-1.5c0.4-0.4,1.8-0.6,2.3-0.3c3.7,2.6,9.6-0.2,12.3,5.4c0.8,1.7,4.4,2,7.1,3.1
			c-0.3,1.3-0.6,2.8-0.9,4.3c5,0.2,6.5,4.9,9.6,7.5c-0.4,0.6-0.7,1.2-1.3,2.1c3.8,0.1,5.8,1.1,3.6,4.9c-0.2,0.3,0.7,1.3,1.1,2
			c1.5,3,6.2,3.7,5.7,8.1c0,0.1,0.2,0.3,0.4,0.4c1.9,1.8,3.8,3.6,5.6,5.5c0.4,0.4,0.5,1.3,0.4,1.9c-0.8,3.4,1.1,5.4,3.5,7.3
			c2,1.5,4.3,3,5.4,5c1.1,2,3.1,3.5,2.8,6.6c-0.2,1.7,0.4,5.4,4.1,5.6c2.7,0.1,2.3,2.1,2.2,4c-0.1,1.4,0.3,2.8,0.4,4.2
			c0.3,2.5,2,3.4,3.9,4.8c3.7,2.8,7.7,3.8,11.8,1.8c2-1,4-2.1,6.2-2.8c0.9-0.3,2.9,0.2,3,0.5c0.4,2.4,2.4,1.5,3.7,2.2
			c0.9,0.5,1.9,1,2.3,1.3c1.6-0.3,3.6-0.1,4-0.8c2.5-4.4,3.9-1.8,5.4,0.7c0,0.1,0.2,0.1,0.3,0.1c3.9-0.2,5.6,3.1,8.3,4.9
			c2.1,1.4,4.8,2.2,7.4,2.4c2.3,0.2,4.6-0.9,7.3-1.6c-0.3,2.1-0.3,3.7-0.7,5.3c-0.7,2.6,1.7,4.5,2.7,4.4c3.1-0.3,2.5,2.5,3.5,3.7
			c0.9,1.1,1.1,3.6,0.5,5.1c-0.9,2.3-0.1,3.2,1.6,4.3c1.8,1.3,3.7,2.8,4.9,4.6c1.6,2.5,1.9,2.7,4.6,1.2c1.8-1,3.9-2.5,5.7-2.3
			c4.7,0.5,8.5-1.8,12.6-3.3c1.4-0.5,2.9-1.1,4.3-1.7c0.6-0.3,1.7-0.6,1.8-1.1c0.3-1.6,0.2-3.3,0.4-4.9c0.1-0.6,0.7-1.3,1.2-1.7
			c0.7-0.7,1.8-1.1,2.3-1.8c2-3.2,4.3-5.9,8.6-5.9c0.8,0,2-0.4,2.2-1c1.8-5.2,6.7-7.1,10.5-10.2c0.9-0.8,2.5-1.1,3.8-1.1
			c2.1,0,4.2,0.5,6.4,0.8c0,1.8,0.5,3.7-0.1,5.1c-1,2.3-0.2,3.6,1.4,4.9c2.6,2.1,4.9,4.4,3.3,8.1c-1,2.4-0.7,5.6-4.3,6.6
			c-2,0.6-2.5,4.1-1.3,6.1c0.6,1,1.5,2.6,1.2,3.2c-2,3.3-0.9,6.4-0.2,9.7c0.3,1.5-0.1,3.3-0.4,4.9c-0.3,1.7-1,3.1,0.8,4.5
			c1.7,1.3,1.4,5.1,0.2,6.9c-0.6,0.9-0.6,2.2-0.8,3.3c-0.4,2.1-0.6,4.3-1,6.4c-0.1,0.7-0.7,1.5-0.5,2.1c1.2,3.9,0.7,7-2.9,9.4
			c-0.7,0.5-1,2.2-0.9,3.3c0.2,1.9,0.8,3.7,1.5,5.5c1,2.8-1,5.7-4,5.7c-5.3,0-10.7,0.1-16,0c-1.9,0-3.7-0.6-5.9-1
			c-0.5,1.9-0.8,4.3-1.8,6.5c-0.9,1.9-1.4,4.2-3.9,5.3c-2.4,1-4.3,3.2-5.7,4.2c2.8,4.7,5,8.9,7.6,12.8c2.7,4.1,3.5,8.4,3.9,13.2
			c0.2,2.8,1.4,5.8,3,8.1c0.9,1.3,2,2.2,1.9,4c-0.3,3.3-0.8,6.6-0.8,9.9c0,4.7,0.1,4.4-4.1,6.2c-2.6,1.1-4.8,3-7.2,4.6
			c0.2,0.3,0.3,0.6,0.5,0.8c0.4,0,0.8-0.1,1.1,0.1c1.1,0.7,2.2,1.5,3.1,2.4c0.2,0.2-0.4,1.8-0.6,1.7c-1.2-0.1-2.4-0.3-3.5-0.7
			c-3-1.3-5.4-3.1-5.3-6.5c-1.6-0.4-2.8-1.1-4-1c-1.2,0.1-2.9,0.6-3.2,1.5c-0.6,1.5-0.8,3.5-0.3,5c1.4,4.4,1.7,8.3-2.3,11.5
			c-3.3-0.9-5.1-0.1-5.2,2.5c-0.1,5.3-2.1,9.1-7.7,10.4c-1,0.2-1.9,1.1-2.9,1.4c-1.4,0.5-2.8,0.8-4.2,1.2c-1.8,0.5-3.6,0.9-5.3,1.7
			c-0.5,0.3-0.9,2-0.6,2.5c1.4,1.8,3,3.5,4.8,4.8c2.6,1.9,3.3,4.8,1.2,8.1c-1.8,2.8-3.6,0.7-5.5-0.1c-0.5,0.4-1,1.1-1.6,1.1
			c-5,0.5-10.1,0.8-15.2,1.2c-0.3,0-0.6-0.6-0.8-0.9c-2.6-4.9-2.8-5-7.1-2c-0.5,0.3-1.1,0.5-1.5,0.9c-0.6,0.6-1.4,1.4-1.4,2.1
			c-0.2,2.4-0.1,4.9-0.1,6.6c-1,1.7-1.8,2.9-2.4,4.2c-1.6,3.5-3.1,7.1-4.8,10.5c-0.4,0.7-1.5,1.1-2.3,1.6c-1.1,0.6-3.3,0.9-3.4,1.5
			c-0.2,2.8-2.7,3.6-4.1,5.3c-0.8,0.9-2.2,1.4-2.9,2.3c-1.4,1.8-4.7,2-4.4,5.3c0,0.4-0.9,0.9-1.4,1.3c-1.1,0.8-2.4,1.5-3.4,2.5
			c-0.8,0.8-1.2,2-1.9,3c-2.1,2.7-4.9,4.9-4.7,9c0.1,1-0.9,2.2-1.5,3.2c-3,4.5-7.8,4.3-11.4,4.5c-2.2,1.6-3.9,3.8-5.2,3.6
			c-1.9-0.3-2.6-0.7-2.6,1.6c0,0.5-0.9,1.3-1.4,1.4c-2.1,0.2-3.4,1.4-4.9,2.6c-4.7,3.6-9.7,6.8-12.8,12c-0.6,1-0.3,2.7-1,3.6
			c-1.6,2.4-3.6,4.5-5.2,6.4c-1.5-0.3-2.7-0.5-4.7-0.9c1.9,2.5,3.2,3.7-0.3,4.6c-2.7,0.7-5,3.2-7.6,4.6c-0.6,0.3-2.1-0.4-2.7-1
			c-0.5-0.5-0.2-1.8-0.6-2.5c-1.1-1.8-0.2-2.4,1.3-3.1c1-0.4,1.7-1.3,2.6-1.9c0.6-0.4,1.2-0.9,1.8-1.2c1.6-0.7,3.3-1.3,5.7-2.2
			c-4.3-2.4-3.2-4.5-0.2-7.1c-3.2,0.5-5.3,1-7.5,1.2c-1,0.1-2.2,0-3.1-0.6c-0.3-0.2,0.1-1.7,0.2-2.6c-0.6-0.2-1.2-0.5-2.5-1
			c1.6-1.3,2.8-2.1,3.9-3.2c0.6-0.7,1.4-2,1.2-2.5c-1.4-2.5-0.2-3.9,1.5-5.4c1.7-1.5,3.8-2.2,4.7-4.9c1.7-4.9,4.6-9.3,7.1-14.2
			c-1.4-0.8-2.7-1.2-3.4-2.1c-3.1-3.9-6.9-5.5-11.8-4.1c-0.5,0.1-1.3,0.2-1.7-0.1c-2.4-1.9-5.1-0.6-7.4-0.1
			c-1.4,0.3-2.4,2.5-3.7,3.9c0.6,0.5,1.1,1,2.1,1.9c-4.1,1.1-5.4,4.2-6.8,7.3c-1.8,3.8-2,8.5-6.8,10.8c-3.8,1.9-6.8,5.4-10.6,7.2
			c-3.5,1.7-4.3,5.3-6.7,7.7c-0.4,0.3-0.3,1.1-0.3,1.7c-0.2,2.3,0.3,4.8-0.5,6.7c-1.5,3.2-3.8,6-5.3,8.4c-3,0-5.2,0-7.5,0
			c-0.3,0-0.6,0.5-0.9,0.8c-0.9,0.9-1.8,1.8-2.7,2.7c-1.6,1.7-3.2,1.2-4.2-0.5c-1.5-2.6-3.7-3.2-6.1-1.9c-2,1.1-4.4,2.3-3.1,5.6
			c0.2,0.4-0.4,1.1-0.7,1.7c-4.4,7.1-1.2,14,5.6,17.8c3.9,2.2,7.9,2.3,12,2.2c1.2,0,2.6,0.4,3.7,0.1c1.9-0.5,3.9-2.4,5.5-2
			c1.7,0.4,3.2,2.5,4.4,4.2c1,1.4,1.2,3.4,2.2,4.9c1.2,1.7,1.4,2.9-0.1,4.7c-2,2.3-0.4,8.4,2.2,10.1c3.9,2.6,7.9,1.9,12.1,0.9
			c4-0.9,5.3-2.7,4-6.6c1.5-1.2,3.2-2.3,4.6-3.7c1.5-1.4,2.7-3.1,4.2-4.8c-1.2-0.5-1.9-0.8-2.7-1.2c2.3-1.3,4.3-2.4,6.3-3.6
			c1-0.6,2-1.3,3.1-1.9c2.3-1.2,4.4-2.5,7.1-0.1c1.5,1.4,4.8,0.7,5,4.4c1.3-0.6,2.5-0.8,3.1-1.5c1.6-1.6,1.7-0.5,2.5,0.7
			c0.7,1,1.9,2.3,2.9,2.3c2.3-0.1,4.6-0.8,6.8-1.4c0.9-0.2,1.6-1,2.4-1.5c0.9-0.6,1.8-1.3,2.7-2c0.5,0.9,1.1,1.8,1.8,3
			c3.2-0.4,6.7-0.8,10.2-1.2c0.3,0,0.8,0.3,0.9,0.6c0.1,0.4,0,1.2-0.2,1.3c-2.4,0.7-1,2.5-0.6,3.4c0.7,1.7,0.5,2.7-1.2,3.5
			c-0.6,0.2-0.8,1.1-1.4,2c1.1,0.2,1.7,0.3,2.3,0.5c0.3,2.8-1.6,6.3-3.8,6.9c-2,0.5-3.8,0.5-4.3-2.3c-1,0.6-1.8,1.1-2.6,1.6
			c-0.4-0.7-0.7-1.4-1.1-2c-2.5,2.5-4.9,4.8-7.9,7.7c-5.9,1.7-12.1,4.5-13.1,13.3c-0.4,0-0.8-0.1-1.1-0.1c-0.3-0.9-0.6-1.7-1-2.6
			c-0.4,0.2-0.8,0.3-1.1,0.5c0,2.1-0.4,4.3,0.1,6.1c0.6,1.9,0.2,3-1.4,3.6c-3,1.2-5.5,2.8-7.2,5.7c-1.3,2.2-4.4,2.8-4.5,6.3
			c0,1.2-1.1,4.6-4.2,4.9c-3,0.3-2.9,3-3.6,5.2c-0.9,3.1-3.9,5.5-3.3,9.2c0,0.3-0.4,0.8-0.7,0.9c-3.5,1.1-2.4,4-2.4,6.2
			c0,1.6,0.8,2.7,3,2.1c1.1-0.3,3.3,0,3.7,0.8c2.5,4.1,6.7,4.2,10.5,5.1c5.1,1.3,9.8,2.8,12.2,8.6c2.3,5.5,5.9,10.5,9,15.7
			c0.4,0.6,0.7,1.2,1,1.8c1.9,2.9,3.4,6.2,5.8,8.7c2.1,2.2,2.5,4.6,2.1,7.2c-0.4,2.8,0.2,4.3,2.9,5.1c2.2,0.6,4.4,1.1,6.7,1.6
			c3.5,0.8,5.6,2.7,5.1,5.6c-0.4,2.5,0.8,2.6,2.5,2.9c5.2,0.9,9,3.7,10.9,8.7c0.7,1.9,0.2,2.8-1.8,2.7c-2.4-0.1-4.9-0.5-7.3-0.8
			c0.3,0.4,0.6,1.1,1.1,1.3c2.2,0.8,4.6,1.2,6.8,2.1c0.8,0.3,1.3,1.3,2,2c-0.8,0.6-1.7,1.7-2.4,1.6c-5.5-0.9-11.1-1.7-15-6.4
			c-0.5-0.6-2-1.3-2.5-1c-2.6,1.4-3.8-0.2-5.3-1.8c-2.7-3-7.1-3.8-10.3-1.7c1.6,0.2,3,0.6,4.1,0.4c3.2-0.7,4.4,1.5,4.8,3.6
			c0.4,2,1.2,2,2.6,1.8c3.5-0.5,6.4,1.2,9.2,3c2.4,1.5,4.8,3.2,7.4,4.5c1.6,0.8,3.3,1.3,5,1.9c0,0-0.1-0.1-0.1-0.1
			c1.7,2.3,3.5,4.6,5,7.1c2,3.1,1.2,4.8-2.4,5.3c-2.9,0.4-5.5,1.4-7.5,3.9c-2,2.3-4.6,4.1-6.8,6.3c-1,0.9-2.1,2.2-2.2,3.4
			c-0.3,3.8-2,5.1-5.5,3.8c-2.3-0.8-6,0.4-7.3,2.8c2-1.2,3.6-1.8,4.8,0.6c1.4,2.7,3.9,3.2,6.5,1.5c1.6-1.1,3-2.4,4.3-3.7
			c2.9-2.8,5.3-3.4,8.6-1.4c2.1,1.2,3.9,3,6,4.4c1.2,0.8,2.6,1.3,4.3,2.1c0.3-2,0.5-3,0.6-4.2c3.1,0.6,2.5,2.3,1.7,3.8
			c2,0,4.1,0,6.8,0c-2.1,3.6-6.8,4.5-6.8,7.8c1.7,0.8,3.6,1,4,2c1.3,2.7-0.5,6.1,2.2,8.7c0.8,0.8,0.3,3,0.1,4.5
			c0,0.5-0.9,1.4-1.2,1.4c-1.8-0.4-4.1-0.2-4-3.1c-1.9,0.7-3.8,2.3-5.1-0.8c-0.5,1.3-0.9,2.3-1.3,3.5c3.7-0.7,4.2-0.5,6.1,3.2
			c0.4,0.7-0.3,2-0.5,3.4c1.4,1.9,1.1,2.9-2.7,5.8c1.3,2.4,2,5.4,4,7.1c2.4,2,1,2.7,0.1,3.8c-1.1-0.4-2.5-1.2-2.7-0.9
			c-0.8,0.9-1.8,2.1-1.7,3.2c0.1,2.2-1,2.3-2.6,1.9c0.8,2.6-0.1,3.4-3.4,3.5c-0.4-0.9-0.8-1.8-1.4-3.2c-1.3,2.5-2.3,4.6-3.4,6.8
			c0,0-0.1,0-0.1-0.1c-1.6,4-3.3,8-4.8,11.7c0.8,1,2,1.8,2,2.7c0,1-1,2.1-1.5,3.2c0,3.1-1.1,6.4-3.9,7.8c-2.2,1.1-2.2,2.1-2.4,3.9
			c-0.1,0.7-0.8,1.5-1.5,2.1c-0.8,0.7-1.9,1.2-2.2,1.3c0.9,1.7,1.8,2.9,2.2,4.3c0.2,0.7-0.2,2-0.8,2.5c-2,1.6-4.2,2.9-7,4.8
			c1.9,1.2,3.2,2,4.8,3c-1.5,0.9-2.8,2-4.3,2.7c-3.4,1.5-3.9,4.1-1.3,6.8c2.8,3-2.2,5.9-0.2,8.9c0.1,0.2-0.7,1.2-1.2,1.7
			c-0.2,0.2-0.9,0.2-1,0.4c-0.1,0.4-0.1,1.2,0.2,1.3c1.3,0.7,2.7,1.3,4,1.9c0.4-1.4,0.9-3,1.3-4.5c1.5,0.7,3,1.5,4.5,2.2
			c-0.8,1.5-1.6,2.6-2,3.9c-0.6,1.8-3.5,0.9-3.6,3.2c0,0.2-1.2,0.4-1.9,0.4c-2.5-0.1-3.6-2.2-5.2-4c-0.4,1.3-0.8,2.2-1.2,3.4
			c-2-2-3.2-1.6-4.1,0.2c2.3,1,4.3,1.9,7,3.2c-2.3,1.8-3.8,3-5.4,4.1c-0.9,0.6-2,1.3-3,1.4c-0.4,0-0.9-1.5-1.3-2.2
			c-0.6,1.2-1.4,2.5-2.2,4.1c0.9-0.2,1.9-0.4,2.9-0.6c1.2,4.5,1.1,4.7-3.4,5.9c-0.9,0.3-1.7,0.9-2.6,1.4c1.8,2.5-0.1,7.7-3.1,9.5
			c-0.8-0.7-1.8-2.2-2.2-2c-2.3,0.9-4.5,2-6.5,3.4c-1.1,0.8-1.7,2.3-2.7,3.7c0.5,0.7,1.4,1.8,1.8,2.3c-3,4.3-5.6,8.2-8,11.7
			c-1.1,0.2-1.8,0.3-2.6,0.5c0.8,3.7-1.5,5.7-3.9,7.8c-0.2,0.1-0.5,0.3-0.4,0.4c0.6,3.7-2.1,1.6-3.2,2.2c0-1.6,0-3.1,0-4.5
			c-0.3,0-0.5,0-0.8,0c-0.1,1.2-0.2,2.4-0.3,3.7c-3.3,0.2-4.8,4.4-8.8,3.6c0.4-0.9,0.6-1.5,0.9-2.1c-1.5,2.2-2.7,4.5-3.4,7
			c-0.3,1.2,0.4,2.7,0.7,4.1c-3-0.4-6.1,1.9-5.9,4.2c0.4,3.3-0.9,5.2-4.1,4.9c-2.4-0.2-3.8,0.6-4.9,2.5c-0.3,0.5-0.9,0.8-1.4,1.1
			c-2.7,1.1-5.4,2.1-7.8,3c-1.2-0.9-2.5-2-3.9-3.1c-0.4,0.1-0.7,0.3-1.1,0.4c-0.1,2.1-0.2,4.2-0.3,6.4c-1.6-0.2-3-0.1-4.2-0.5
			c-1.1-0.4-2-1.3-3-1.9c-1.5-0.9-5.9,0.7-6.8,2.3c-1.1,1.9-2.4,3.6-3.5,5.4c-0.8-0.4-1.6-1.2-2.3-1c-1.9,0.3-2.3-0.8-2.6-2.2
			c-0.2-0.9-0.2-1.7-0.3-2.7c-3.3,1.5-3.7,3.5-1.2,7.2c-1.1,0.7-2.2,1.5-3.5,2.3c-0.5-1-0.6-1.9-1.2-2.3c-1-0.7-2.5-1.6-3.4-1.3
			c-3.9,1.3-7.6,3-11.5,4.6c-2-6.5-3.9-7.8-9.6-7c0.7,2.8,1.3,5.7,2,8.5c0,0.2,0.1,0.4,0.2,0.6c2.3,3.8,1.2,6.3-3.1,7.1
			c-0.4,0.1-0.8,0.5-0.9,0.5c0.5,1.5,0.9,2.7,1.3,4.1c-5.6,0.2-8.4-1.1-9.5-4c-0.6,1.2-1.4,2.6-1.1,3.8c0.5,2.1,0.7,4-1.4,4.8
			c-1,0.4-2.6-0.6-4.6-1.1c-2.4,1.1-3.1,8-7.9,4.5c-2,1.2-3.3,2.6-4.8,2.8c-1.1,0.2-2.4-1.1-4.4-2.2c-1,0.6-2.8,1.6-4.9,2.8
			c1.5,0.6,2.3,1,3,1.3c0,0.2,0,0.5,0,0.7c-2.2,0.1-3.4,4-6.5,1.3c-0.3-0.2-1.3,0.4-2,0.7c-1.3,0.7-2.6,1.9-4,2
			c-2.3,0.2-4.3,0.4-5.9,2.3c-0.3,0.3-1.4-0.1-2.2-0.2c-4.1-0.6-6.9,3.5-11.2,2.9c-0.4-0.1-1,0.4-1.2,0.8c-1.7,3.4-4.5,6.4-4.3,10.2
			c1,0.6,1.8,1,2.3,1.5c0.2,0.2-0.4,1.4-0.6,1.4c-0.8-0.1-1.7-0.3-2.3-0.7c-1.5-1-2.6-2.5-4.7-1.7c-1.3,0.5-2.8,0.5-4.6,0.8
			c0.4,0.8,1.1,2.5,1.2,2.5c4.9-1.8,5.6,2.3,7,5.1c1,2,2.6,4.2,2.3,6c-0.5,2.9-2.9,5.6-7,5.9c-3,0.2-6,0.4-9.1,0.6
			c-0.5-1.7-1.1-3.8-1.9-6.4c-0.9-1-2.1-2.5-3-3.5c-0.5-2-0.5-3.7-1.3-4.8c-1.1-1.7-2.4-8.5-1.6-10.2c0.9-1.8,1.7-3.6,2.7-5.7
			c2.4-0.4,2.4-0.4,2.8-2.7c-3,0.9-5.8,0.9-8-2.5c-4.1,5.6-7.8,10.8-11.6,16c-0.2,0.3-0.8,0.3-2.1,0.6c3.2-4.4,6-8.2,8.8-11.9
			c-0.2-0.2-0.4-0.4-0.6-0.7c-1.7,0.5-3.3,1.4-5,1.5c-1.3,0.1-2.6-0.6-3.9-1c0.7-0.8,1.3-1.7,2-2.5c0.1-0.1,0.1-0.4,0.4-1.2
			c-3.6-0.3-7.2-0.5-10.8-0.8c-0.8-0.8-1.9-1.9-2.5-2.5c-1.8,2-2.9,4.1-4.6,4.8c-3.1,1.4-0.6-2.9-1.9-3c-1.4,1.9-2.6,3.6-3.8,5.2
			c-0.3-0.1-0.5-0.3-0.8-0.4c0-0.6,0-1.3,0-2.4c-2.2,1.8-4,3.3-6,4.9c-1.1-4.3-4.4-6.1-8.3-4.9c-0.5,0.2-1,0.3-1.5,0.3
			c-2.3,0-4.7,0-6,0c-3.3-1.8-5.7-3.5-8.4-4.6c-2.1-0.8-2.9-1.6-1.7-3.6c-3.2-0.6-6.1-1.2-9.4-1.8c0,0,0.1-0.7,0-1.3
			c-0.7-2.8,1-6-2.6-8.3c-2.4-1.5-0.5-4.7,0.1-7c0.2-0.6,1.7-0.9,3-1.4c0.1-0.2,0.5-0.8,0.7-1.4c0.8-2.1,0.4-3.1-2-4.3
			c-2.9-1.5-5-0.3-7.5,0.1c-1,0.2-2.9,0.1-3.2-0.5c-1.8-3.3-3.9-3.2-6.6-1.3c-0.6,0.4-1.7,0.9-2.2,0.6c-3.2-1.5-6.5-2.8-9.3-5
			c-2.4-1.9-4-4.7-5.9-7.1c-0.1,0.4-0.2,0.8-0.4,1.2c-1.5,0.7-3,1.4-4.4,2.1c-2,1-4.1,2-6,3.2c-0.6,0.4-1.1,1.4-1.2,2.2
			c-0.1,4.5-1.8,6.4-6.1,6.8c-1,0.1-2.1,0.5-2.9,1.2c-3.6,2.9-5,2.7-7.6-1.1c-5.6,0.2-3.1,6-6.6,9.1c-2.4-3-4.8-5.9-7.8-9.5
			c-0.8,2.1-1.1,3.4-1.7,4.5c-0.4,0.7-1,1.6-1.7,1.8c-0.4,0.1-1.4-0.6-1.8-1.2c-0.9-1.3-1.5-2.7-2.4-4.4c-1.8,2.6-3.4,4.7-4.9,6.9
			c-2.3,3.3-5.6,3.7-7.3,0.5c-1.4-2.6-3.8-3.4-6-4.5c-1.4-0.7-2.9-1.1-4.3-1.6c-1.6,2.1-3.6,4.4-5.1,6.9c-1.5,2.4-3,2.7-5.5,1.6
			c-1.1-0.5-3-0.4-3.9,0.3c-1.6,1.3-2.2,0.5-3.1-0.7c-0.4-0.6-1.1-1-1.6-1.5c-0.5,0.8-1.1,1.5-1.6,2.3c-0.9,1.4-1.7,2.9-2.5,4.4
			c-0.4,0.1-0.8,0.1-1.2,0.2c1.8,3.4,3.6,6.8,5.4,10.2c0.3,0.5,0.5,1.1,0.6,1.6c0.3,1.7,0.6,3.5,0.9,5.8c0.3-0.3,0,0-0.3,0.3
			c-2,2.1-1.9,6.1,0,8.1c0.5,0.5,0.6,1.9,0.2,2.4c-0.7,1.1-1.5,2.8-3.5,1.6c-3-1.8-6.1-3.8-9.8-1.2c-0.3,0.2-2.5-1.3-2.7-2.2
			c-0.7-3.1-0.9-6.4-1.3-9.6c-0.2-1.4-0.6-2.7-1.1-5.1c-3.8,2.7-6.9,4.8-10,7.1c-2.3,1.7-5,2.9-7.2,1.2c-1.9-1.5-2.8-1.3-4.5-0.2
			c-0.8,0.6-2.7,0.9-3.1,0.5c-1-1.1-1.4-2.7-1.9-4.1c-0.2-0.5,0.3-1.3,0.5-1.9c-4.3-0.9-5.4-3-4.1-7.1c0.3-1,0-2.3,0-3
			c-7.3-1.4-13.9-2.7-21-4c1.8-3.2,2.8-5.9,4.6-7.9c1.5-1.6,2.4-3.3,1.8-5c-0.8-2.6-0.9-4.5,1.4-6.3c0.7-0.6,0.7-1.9,1.1-3.1
			c0.8,0.2,1.5,0.3,2.3,0.4c0.2-0.3,0.4-0.5,0.5-0.8c-1.5-1.3-3-2.6-4.3-3.8c-5.4,2.9-8.4-2.6-12.8-2.6c0.6-3.3,2.3-6.3-1-8.8
			c-0.3-0.3-0.3-1.4,0-1.9c1.3-2.7,0.8-4.5-1.7-5.9c-0.5-0.3-1.1-1.1-1.1-1.7c0-2.3-0.3-4.8,2.8-5.7c0.7-0.2,1.3-0.9,2-1.4
			c-1.5-0.4-2.8-0.1-4.1,0.1c-1,0.1-2.1,0.6-2.9,0.3c-4.5-1.8-9.1-1.7-13.5-0.2c-3.7,1.3-7.1,3.5-10.7,5.3c-0.9-0.9-1.9-2-3.1-3.3
			c1.6-1.4,3.1-2.8,4.6-4.1c2.9-2.6-1.3-5.2,0-7.8c-1.1-0.5-2.2-0.9-3.6-1.5c0.2-1.5,0.6-3.2,0.8-4.8c0.4-4.4,1.2-5.4,5.6-6.4
			c-1.1-2.8,1.3-10.9,3.5-11.1c0.6,0.4,1.3,0.8,1.6,1c5-1.9,4.8-6.6,6.5-10.2c4.6,1.4,4.6,1.4,7.2-3c0.4-0.6,0.6-1.4,1.2-1.7
			c0.7-0.4,1.5-0.6,2.3-0.7c0.8-0.1,1.6,0,2.5,0c-0.3-1-0.7-1.9-1-2.9c-0.5-1.5-1-3.1-1.5-4.6c1.1-0.4,2.2-0.7,3.3-1.1
			c0.2-0.1,0.2-0.3,0,0.1c-0.1-1.8-0.7-3.3-0.2-4.2c2.3-4.4,2.7-9.1,2.3-13.8c-0.2-3.4-0.8-6.8-0.8-10.2c0-3.4,0.5-6.9,0.7-10
			c-2.1-1.1-3.8-2-5.5-2.9c-0.3,1-0.5,1.9-0.9,2.6c-0.9,1.6-2.7,1.6-3.2,0c-1.2-4.7-2.1-9.5-3.2-14.2c-0.3-1.3-1-2.4-1.6-3.6
			c-0.3-0.6-1.1-1-1.4-1.7c-0.9-1.5-1.3-3.5-3.9-2.8c-0.4,0.1-1.5-0.6-1.5-1.1c-0.3-2.9-2.5-3.1-4.3-3.6c-1.8,2.8-3.4,5.4-5.3,8.3
			c-1.6-1.4-2.5-2.1-3.4-3c-1.4-1.4-2.6-2.5-5.1-1.8c-1.8,0.5-4.4-0.5-6.1-1.7c-3.4-2.3-5.2-2.5-8.5,0.2c-1.4-0.6-2.7-1.2-4.1-1.9
			c2.1-2.3,4-4.5,5.9-6.7c0.6-0.6,1.2-1.4,1.9-1.7c1.7-0.7,1.6-1.6,0.9-3.1c-0.9-1.8-1.6-3.7-2.5-6.1c-1.6,1.1-3.1,2.2-4.8,3.3
			c-0.5,0.3-1.3,0.5-1.8,0.4c-0.3-0.1-0.4-1-0.5-1.5c-0.2-1.3-0.2-2.5-0.3-3.9c1.7-0.9,3.6-1.9,4.8-2.5c-1.7-2.3-3.4-4.6-5.1-6.9
			c-1.5,0.4-3,0.6-4.3,1.2c-3.1,1.6-6.7,2.1-8.8,5.7c-1.8,3.1-4.3,3.4-7.3,1.9c-3.5-1.7-7.1-3.1-10.8-4.7c-0.6-0.9-1.1-2.5-2.2-3
			c-0.7-0.3-2.2,0.9-3.3,1.3c-0.5,0.2-1.1,0.4-1.7,0.5c-2.7,0.6-5.4,1.3-7,3.9c-1.2,1.8-4.3,1.8-4.4,4.6c-4.1,1.3-7.4,4.6-12.2,3.8
			c-5.5-0.9-6.7,0.6-10.1,5.1c-2.1,2.9-6.1,4.4-9.3,6.4c-1,0.6-2.2,0.8-3.4,1.2c1.3,2.6,1.2,4.1-0.6,5c-3.4,1.6-6.7,3.6-10.9,2.4
			c-1.4-0.4-3.1,0.5-4.7,0.6c-1.4,0.2-2.9,0.4-4.3,0.2c-1.9-0.4-3.7-1.2-5.9-1.9c0.2-1.3,0.4-2.9,0.6-4.4c-2.2-1.1-4.6-2-6.5-3.5
			c-1.8-1.4-2.9-1.4-4.7,0c-1,0.7-3.2,1-3.9,0.4c-3.3-2.6-6.9-3.6-11-4c-4.9-0.4-4.9-0.6-3.6-5.5c-2.5-0.9-4.9-2.2-7.5-2.7
			c-1.7-0.3-3.6,0.7-5.3,1.3c-1.4,0.4-2.7,1-4,1.5c-0.9,0.3-2,0.5-2.7,1.1c-2,1.8-3.6,4.2-5.9,5.4c-3.2,1.6-5.2,3.8-6.5,7
			c-0.1,0.4-0.5,0.8-0.8,0.9c-3.3,0.6-4.5,3.2-5.8,5.9c-4.2-3.8-4.4-5.6-1.6-10.2c3.5-5.7,2.7-9.3-1.8-11.6
			c-4.8,0.8-8.7,1.5-12.7,2.1c-0.1,0.4-0.2,1-0.4,1.9c-0.6-0.3-1-0.7-1.4-0.7c-2-0.4-4.7-1.7-5.8-0.8c-2.2,1.7-4.2,0.8-6.2,0.7
			c-1.3-0.1-2.7-0.3-3.9-0.8c-2.9-1.3-7-0.3-8.5-4.3c-0.2-0.6-1.3-0.8-1.9-1.3c-2.1-1.5-4.1-3-6.2-4.6c-1.6-1.1-2.9-0.5-3.8,1.6
			c-0.4,0.8-2.6,1.7-3.3,1.3c-2.5-1.5-5.8-2.6-5.6-6.7c-0.6,1.3-0.4,2.6-0.8,3.7c-0.3,0.9-1.1,2-1.9,2.1c-0.8,0.2-2.6-0.6-2.6-1
			c-0.2-4.4-2.1-7.9-4.4-10.4c-5.1-1.4-9.6-2.6-14-3.9c-0.3-0.1-0.5-1.1-0.4-1.6c0.7-2.1,1.6-4.1,2.8-6.8c-1.2,0.1-2.6-0.2-3.5,0.3
			c-2.2,1.3-3.9,0.8-5.6-0.8c-1.5-1.6-3.1-3.2-4.6-4.8c-2.2-2.4-4.4-4.8-6.5-7.3c-0.3-0.4,0.2-1.3,0.1-2c-0.4-2.4-0.6-4.9-1.6-7
			c-0.9-1.9-7.3-2.3-9.2-1c-1.7,1.2-3.8,0.6-4.5-1.2c-0.5-1.3-0.8-2.6-1.4-3.8c-0.9-2-2.5-3.7-2.9-5.8c-0.4-2.6-1.3-3.5-3.3-2.7
			c-1.4-1.2-2.6-2.2-3.8-3.2c-0.9-0.7-2.4-1.1-2.9-2c-2.9-5-6.1-9.6-11.6-12.1c-0.5-0.2-1-0.9-1-1.3c-0.1-2.2,0-4.3,0-6.2
			c-3-1.4-5.7-2.7-8.5-4c-0.7-0.3-1.7-0.3-2.5-0.2c-1.3,0.1-2.5,0.3-3.3,0.5c-1.8,2.1-3.4,4.2-5.3,6c-0.7,0.7-2.2,1.4-2.9,1.1
			c-1-0.5-2.1-1.8-2.3-2.9c-0.6-2.9-1-5.6-4.2-7c-0.7-0.3-1-1.4-1.5-2.1c-0.8-1-1.5-2.1-2.5-2.9c-1.6-1.3-3.4-2.4-5.1-3.5
			c-1.2-0.8-2.5-1.4-3.7-2c0.1-0.8,0-1.7,0.2-2.7c0.2-0.9,1.1-2,0.8-2.6c-0.3-0.7-1.6-1-2.4-1.4c-0.2-0.1-0.2-0.4-0.3-0.5
			c-2.5-3-4-7.4-9.3-6.2c-0.3,0.1-0.9-0.2-1-0.5c-1.6-2.7-3.4-5.3-4.7-8.2c-1.1-2.3-1.6-4.8-2.4-7.3c-2.3,1.4-4,2.2-5.6,2.4
			c-2.3,0.4-3.2-1.1-2.7-3.3c0.3-1.2,0.1-2.5,0.1-3.9c0.9-0.6,2-1.2,3.4-2.1c-3.1-2.6-2.3-5.3-0.4-7.8c1-1.3,0.8-2.3,0-3.7
			c-1.8-3.4-3.6-7-2.7-11.2c0.3-1.5-0.3-4,0.4-4.4c1.2-0.7,3.3,0.4,4.8-0.1c3.6-1.1,4.5-0.3,3.9,3.5c-0.2,1.3,1.4,3.3,2.7,4.2
			c1.2,0.8,2.9,0.3,4-1.4c0.5-0.7,2.3-0.7,3.5-0.5c3.6,0.5,6.8-2.7,6.2-6.1c-0.6-3.4-2.8-6.8,0.3-9.5c-2.4-2.2-4.9-3.9-6.5-6.2
			c-2.4-3.4-4.7-7-2.6-11.6c0.8-1.8,1.1-4.1,1.1-6.2c0-4.9-0.2-4.9,4.6-6.4c2.7-0.8,3.8-2.4,2.5-4.3c-1.5-2.3-3-5.6-5.2-6.3
			c-6.7-2.2-7.8-7.1-7.5-12.8c0.3-5.2-3-10.7,1-15.6c0,0-0.2-0.3-0.4-0.6c-2.1,1.2-3.8,0.8-4.5-1.1c-1.6-0.3-2.9-0.2-4-0.7
			c-2.3-1-4.6-2.2-6.7-3.5c-3.2-1.9-6.7-3.7-9.3-6.2c-2-1.9-5.5-3.5-3.7-7.7c-1.5,0.2-2.7,0.4-3.9,0.5c-3.9,0.2-4.7-0.7-5-4.5
			c-0.1-0.9-1.3-1.5-1.7-2.5c-0.6-1.3-1.5-3.8-1.2-4c2.4-1.5,2.7-3.8,3.3-6.2c1.1-4,0.2-8.6-2.9-11.2c-0.8-0.7-2.2-1.1-3.2-1
			c-2.3,0.2-2.8-0.7-2.6-2.8c0.1-1.1,0.1-2.8-0.5-3.3c-2.8-2-5.1-5.9-8.7-3c-1.3-1.5-2.2-3.5-3.5-3.9c-2.7-0.8-4.2-2.6-5.7-4.5
			c0-0.1-0.2,0-0.3-0.1c0-0.6,0-1.2,0-1.8c1.1-0.3,2.2-0.5,3.3-0.9c2.7-0.9,6.5,0.1,7.5,2.4c2.4-0.8,4.8-1.6,7.6-2.6
			c-1.1-1.9-1.8-3.1-2.6-4.2c-1.4-1.8-2-3.5,0.2-5.2c0.5-0.4,1-1.3,1.1-2c0.2-1.5,0.2-3,0.2-4.5c0-0.7,0.3-1.5,0-2
			c-1.8-3.7-0.2-6.6,1.8-9.6c0.6-0.9,0.5-3-0.1-3.8c-1.8-2.1-4-3.9-6.1-5.7c-2.1-1.8-5.4-2.2-6.4-0.7c-1.6,2.5-3.2,1.4-4.2,0
			c-1.1-1.5-1.5-3.5-2.3-5.3c0-1.6,0-3.2,0-4.8c1.2-0.8,2.4-1.5,3.9-2.4c-3.1-4.4-2.1-8.9,0.8-13.3c0.1,0,0.3-0.1,0.5-0.1
			c5.3,0.5,6.5-0.9,5.6-6.2c-0.1-0.8,0.3-1.8,0.8-2.4c0.9-1.2,2.3-2,3.1-3.2c1.9-2.7,4.9-2.5,7-1.7c2.7,1,4.6,0.2,6.8-0.8
			c2.2-1,4.5-1.7,6.7-2.6c0.5-0.8,1.2-2,1.9-3.3c0.9,0.6,1.8,1.4,2.8,1.7c1.9,0.6,3.9,1.2,5.8,1.2c1.6-0.1,3.2-1.2,4.8-1.7
			c2.1-0.7,3.4-0.2,3.2,2.3c-0.2,2.3-0.3,4.6-0.5,7.3c4.1,0,8.2,0,12.7,0c0.1,0.2,0.4,0.9,0.8,1.9c3.4-1.3,5.6-3.8,7.5-6.6
			c0.8-1.2,1.8-2.2,2.8-3.3c0.4-0.5,1.1-0.8,1.4-1.4c1.6-3,4.6-3.7,7.7-2.3c3.6,1.6,7.4,2.9,11.2,3.9c1.8,0.5,4.2-0.5,5.8,0.2
			c2.9,1.3,4.6,0.4,7-1.3c2.4-1.9,3.2-5.6,6.9-5.8c0.9-0.1,1.8-0.2,2.6-0.5c7.8-3.3,16-3.9,24.3-4.9c0.7-0.1,1.8-0.3,2.1-0.7
			c1.3-2.2,3.3-1.9,5.3-1.6c1.5,0.3,3,0.5,4.6,0.8c0.1-1.5-0.2-2.9,0.3-3.5c2.4-2.8,1.3-6.1,1.4-9.1c0.2-5,1.9-7.8,6.8-8.2
			c0.8-0.1,1.5-0.1,2.3-0.2c0.2-0.3,0.3-0.5,0.5-0.8c-0.5-0.2-1-0.3-1.3-0.6c-2.3-2.2-2.1-3.2,1-3.9c2.1-0.5,4.4-0.6,7.1-0.9
			c-0.3-1.3-0.8-3-1.4-5c0.4-1.1,1.6-2.7,1.5-4.1c-0.4-4.4-1.3-8.7-1.9-13.1c-0.3-2.1-0.4-4.3-0.3-6.4c0.1-2,0.8-3.9,1.2-5.8
			c0.8-3.2,1.1-6.7,5.2-9.2c-2.8-1-5.1-1.7-7.3-2.6c-1-0.4-2-0.9-2.8-1.6c-1.6-1.5-1.9-2.7,0.6-3.7c2.3-0.9,4.4-2.4,7.1-1.2
			c0.7,0.3,1.8,0.1,2.7,0c2.3-0.2,4.8-1,7-0.5c6,1.4,11.7-0.2,17.5-1c3.1-0.4,3.8-0.2,4,2.9c0.1,2.3,1.8,3.7,3.4,3.1
			c4-1.5,6.7-0.5,8.7,3.2c0.1,0.1,0.4,0.1,1.2,0.2c0.8-2,2.2-4.1,2.4-6.3c0.1-0.9-2.4-2.1-3.8-3.1c-1.8-1.2-1.6-2.6-0.6-4.1
			c1.9-2.8,3.8-5.6,5.6-8.5c2.7-4.4,5.5-8.8,7.6-13.5c2.6-5.6,7.5-9.9,8.9-16.2c0.6-2.7,2.1-2.9,4.3-1.1c2.3,1.9,4.8,3.6,7,5.6
			c4.9,4.5,11.7,2.8,17.1,5.4c1,0.5,2.4,0.6,3,1.4c0.6,0.8,0.3,2.2,0.5,4c2.6-1.3,5.1-2.5,7.6-3.6c1-0.4,2.2-0.8,3.2-0.7
			c2.5,0.2,7.1-2.6,7.4-5.1c0.4-3.7,0.7-7.4,0.4-11.1c-0.6-6.7,2.2-12.1,5.9-17.2c0.7-0.9,2.1-1.7,3.2-1.8c3.3-0.2,6.4,0.7,9.9,0
			c4.9-1,8.7-4.6,8.3-9.8c-0.1-1.1,0.4-2.4,1.1-3.2c2.1-2.4,6.2-2.8,9.3-1.2c1.8,0.9,3.4,1.6,5.6,0.7c1.6-0.7,3.7-0.4,6-0.6
			c-1,3,2.1,6.6-3.5,8.1c1.7,1.6,2.9,2.7,4.1,3.8c1.4,1.2,2.4,2.3,0.3,3.7c-0.4,0.3-0.8,0.8-1.1,1.2c2.7,2.1,5.4,4,7.8,6.2
			c1,0.9,1.5,2.4,2,3.8c0.4,0.9,0.2,2.1,0.8,2.7c2.2,2.1,5.4,3.1,7,6.1c0.3,0.6,2.1,0.8,3,0.6c4.9-0.9,4.7-0.9,7.6,3.2
			c1.1,1.5,2,4.9,5.1,1.9c0.1-0.1,2.2,1,2.1,1.5c-0.3,2.6,1.2,3.6,3.1,4.6c0.6,0.3,1.4,0.8,1.5,1.3c0.6,2.6,1.3,5.2,1.5,7.8
			c0.4,4.7,1.3,8.9,5.4,12c0.7,0.5,0.9,1.7,1.2,2.7c0.3,0.9,0.2,1.9,0.4,2.9c0.9,3.2,1.1,6.3-0.6,9.3c-1.6,2.8-3.1,5.4-1.4,9
			c0.5,1-0.7,3.1-1.6,4.4c-1.2,1.7-3.3,2.8-4.3,4.6c-1.2,2.2-2.4,4.9-2.2,7.2c0.2,2.7,1.9,5.3,2.9,8c0.2-0.2,0.3-0.5,0.5-0.7
			c1.8,1,3.5,2.2,5.3,3.1c1,0.5,2.2,0.6,3.2,0.9c0.6,0.2,1.2,0.4,1.8,0.6c1.6,0.7,3.1,1.5,4.8,2c2.4,0.6,4.9,0.8,7.3,1.4
			c2.6,0.6,5.2,2.3,7.6,2.1c5.5-0.6,10.5,1.3,15.5,2.6c2.9,0.8,7,2.3,7.7,4.5c2,6.3,10,5.1,12.1,10.7c0.1,0.2,0.6,0.1,0.8,0.3
			c1.1,0.8,2.5,1.5,3.3,2.6c3.1,4,7.2,5.5,12.1,5.1c1-0.1,2,0.1,3.4,0.1c-0.6,1.2-1,1.8-1.4,2.6c-1.3,2.9-0.9,4.1,1.9,5.7
			c0.7,0.4,1.4,1.3,1.6,2c1.5,4.8,3.5,9.5,4,14.4c0.4,4,2.3,6.7,4.7,9.4c2.4,2.8,5.5,5.2,4.6,9.8c1.7,0,3.1,0,4.5,0
			c4.8-0.1,9.7-0.9,14.3-0.1c13.8,2.3,27.4,5.2,41.1,7.7c1.5,0.3,3.4,0.5,4.7,0c6.4-2.6,12.7-1.6,19.1-0.1c5.4,1.3,11,2.3,16.6,2.6
			c4.7,0.2,8.2,1.2,10.2,5.7c1.4,3,3.8,4.6,7.1,5.3c10.2,2.2,20.4,4.5,29.3,10.5c0.9,0.6,2.3,0.6,3.4,0.4c4.8-0.8,9.6-1.8,14.6-2.8
			c0.1,1,0.3,1.7,0.2,2.4c-0.5,3,0.6,4.2,3.7,3.9c2.1-0.2,4.2,0.4,5.9,0.6c2.9-1.9,5.6-3.9,8.6-5.5c11.7-6.1,22.9-13.2,36.4-15.4
			c10.4-1.7,20.7-4.9,31.5-3c0.7,0.1,1.5-0.3,2.3-0.5c1.5-0.3,3.1-0.9,4.6-0.7c3.8,0.3,7-0.5,10.1-2.8c1.9-1.4,4.1-2.7,6.3-3.3
			c6.2-1.8,10.3-5.8,13.5-11.3c2.6-4.6,5.2-9.3,10.7-11.7c3.5-1.5,7.6-2.8,9.4-6.9c0.3-0.6,1.2-1,1.9-1.2c2.3-0.5,2.5-2.1,1.5-3.6
			c-1.2-1.8-2.8-3.3-4.3-4.9c-1.7-1.9-3.3-3.9-5-5.8c-0.4-0.4-0.5-1.2-0.9-1.5c-2.4-1.5-1.4-3.3-0.8-5.3c0.6-1.8,0.9-3.6,1.6-5.4
			c1.7-4.2,1.8-9.4,6.6-11.6c2.1-1,4.9-0.5,7.2-1c2.3-0.5,3.7,0.6,5.4,1.9c1.6,1.3,3.4,2.6,5.3,3c5,0.9,10.1,1.2,15.2,1.7
			c0.5,0.1,1.3-0.2,1.6-0.6c4.2-4.3,9.6-7.4,12.9-12.6c0.7-1.2,1.4-2.4,1.8-3.8c0.7-2.7,2.7-4.4,5.3-3.7c5,1.3,9.5-0.5,14.1-1.8
			c1.6-0.5,2.9-1.9,4.2-3.1c2.2-1.8,4.5-3.6,6.4-5.6c0.9-0.9,1.3-2.4,1.5-3.7c0.3-1.3-0.3-2.8,0.2-4c1.4-3.3,2.9-6.7,5-9.5
			c1.3-1.7,3.8-2.7,5.9-3.4c1.6-0.6,3.6-0.3,5.4-0.3c2.1,0.1,3.2-0.5,3-2.8c-0.2-2.7,0.8-4.6,4-4.7c1.2,1.2,2.3,2.8,4.4,1
			c2.4-2.1,4.8-4,7.4-5.9c0.6-0.5,1.7-0.5,2.6-0.5c3,0.2,6.1,0.7,8.2-2.3c0.2-0.3,1.1-0.2,1.6,0c1.7,0.6,3.4,1.6,5.1,1.7
			c2.8,0.2,5.7-0.4,8.6-0.5c3.4,0,5.7-2.1,4.4-5.2c-1.5-3.6-4-6.7-6.1-10c0-0.1-0.2-0.1-0.2-0.2c-3.5-2.4-7.1-4.8-10.6-7.2
			c-0.4-0.3-0.4-0.9-0.7-1.2c-1.1-1-2.1-2.1-3.4-2.8c-1.7-1-4-1.2-5.2-2.5c-2.3-2.6-4.5-4-8.2-3.8c-5.2,0.2-9.9,0.7-12.1,6.4
			c-0.4,1-1.3,1.8-1.9,2.7c-2.2,3.4-2.2,3.5-5.6,1c-3.5-2.5-7.1-3.6-11.2-1.6c-1,0.5-2.4,0.8-3.5,0.6c-3.3-0.4-5.4,0.8-6.8,3.7
			c-0.9,1.9-2.3,2.1-3.9,0.8c-1.5-1.3-3.5-2.3-4.6-3.9c-1.3-1.9-2.2-4.3-2.5-6.6c-0.1-0.8,1.8-2.2,3-2.9c1.7-1,1.6-2.3,1.4-3.8
			c-0.3-1.9-1-4-0.3-5.6c1.6-3.7,2.9-7.4,3.6-11.5c0.9-5.1,2.9-10,4.5-15c1.1-3.6,2.2-7.2,3.2-10.4c4.3,1.2,8.2,2.5,12.1,3.5
			c2.4,0.6,4.9,0.9,7.3,1.2c1,0.2,2.5,0.6,3.1,0.1c2-1.7,3.8-3.8,5.6-5.8c3.8-4.5,7.1-9.5,13.9-9.9c3.2-0.2,4.7-3,4.2-6.2
			c-0.2-1.1-0.5-2.1-0.7-3.2c-2.4-0.2-5.3,0-2.3-3.5c0.2-0.2,0.1-0.6,0.1-0.9c0-4.7,5-8,3.6-13c0-0.1,0.1-0.2,0.1-0.3
			c1.4-4.1,3.1-8,4-12.2c1.3-6.3,3.7-12,8.6-16c2.8-2.3,2.4-5,2.9-7.6c0.2-0.9-0.6-2.5-1.4-3.1c-1.5-1.2-1.8-2.3-1.5-4.1
			c0.6-3.4-1.7-5.3-5.2-4.3c-1,0.3-2,0.9-3,1.3c-1.5,0.6-3.2,0.8-3.6-1.3c-0.4-1.9-1.2-4,1.4-5.5c1.2-0.7,1.9-2.3,2.7-3.5
			c1.9-2.9,3.9-5.8,5.6-8.8c1.2-2.2,3.1-2.7,5.3-3.2c2.4-0.6,4.9-1.4,7.1-2.5c4.1-2,8-4.2,12.1-6.3c0.3-0.2,0.7-0.1,1.1-0.2
			c3.3-0.7,6.6-1.1,9.8-2.1c2.3-0.7,4.4-2.1,6.6-3.1C974.9,14,976.3,13.8,977.6,13.4z"/>
		<path class="st1" d="M1053.2,849c-0.4-4-0.9-8-1.2-12c-0.1-1.6,0.1-3.4,0.7-5c1.7-4.8,3.7-9.5,5.5-14.3c1.3-3.5,2.3-7,3.5-10.6
			c0.1-0.3,0.1-0.6,0.3-0.8c3.2-3.5,3.8-8.2,5.9-12.1c1.3-2.4,4.2-4,6.4-5.9c1-0.9,2.3-1.7,3-2.8c2-3.4,5.3-4.2,8.6-2.2
			c1.6,1,3.7,1.1,5.4,2c2.2,1.2,4.2,2.9,6.2,4.5c0.2,0.1-0.5,1.7-1.1,2.4c-3.7,3.9-3.7,4.3-0.1,8.2c0.5,0.5,0.4,1.7,0.3,2.5
			c-0.3,2.3-2.6,4.2-1.3,6.9c0.1,0.1,0,0.4-0.1,0.6c-4.3,8.3-2,17.3-3,25.9c-0.8,7.8-2.2,15.3-7.2,22c-2.7,3.7-3.1,8.5-2.2,13.3
			c0.5,2.7,0.5,5.6,0.4,8.3c-0.1,1.6-1.1,2.9-3.1,1.7c-0.3-0.2-0.7-0.6-1-0.6c-4.6,1-5-2.5-5.7-5.4c-1.1-4.2-3.7-6.6-7.9-8.1
			c-2.3-0.8-4.5-3-5.9-5.2c-2-3.1-2.4-7-6-9.2c-0.9-0.6-0.9-2.7-1.3-4C1052.5,849.1,1052.8,849,1053.2,849z M1069.1,796.3
			c-1.2,2.7-2.2,5.4-3.4,8c-1.2,2.7-2.8,5.2-3.9,7.9c-0.2,0.5,0.8,1.9,1.5,2.2c5,2.1,11.4-0.5,13.3-5.5c1.9-4.8-0.5-9.8-5.9-12.1
			C1070.2,796.7,1069.8,796.5,1069.1,796.3z M1064.5,816.2c0.8,2.5,1.4,4.7,2,6.8c0.3,0,0.6-0.1,1-0.1c0.6-2.2,1.2-4.3,1.9-6.7
			C1067.7,816.2,1066.4,816.2,1064.5,816.2z M1070.5,815.9c2.1,1.9,3.9,3.5,5.6,5.1c0.2-0.2,0.5-0.3,0.7-0.5c-0.6-2.2-1.3-4.4-2-7
			C1073.3,814.4,1072.2,815,1070.5,815.9z M1083.6,797.4c-0.1-0.3-0.2-0.5-0.4-0.8c-2.4,0.6-4.8,1.2-7.6,1.9c1,1.6,1.6,2.6,2.5,3.9
			C1080.1,800.5,1081.9,798.9,1083.6,797.4z M1078.5,807.9c2.6-0.6,5-1.2,7.3-1.8c0-0.3,0-0.6-0.1-1c-2.4-0.5-4.7-1.1-7.3-1.6
			C1078.5,805.1,1078.5,806.3,1078.5,807.9z M1074.8,797.7c0.8-2.7,1.4-5,2.1-7.2c-0.2-0.1-0.5-0.2-0.7-0.4
			c-1.8,1.7-3.5,3.3-5.6,5.2C1072.2,796.3,1073.3,796.8,1074.8,797.7z M1078.1,808.9c-0.9,1.4-1.6,2.5-2.4,3.9
			c2.8,0.7,5.2,1.3,7.5,1.9c0.1-0.3,0.3-0.5,0.4-0.8C1081.8,812.3,1080.1,810.7,1078.1,808.9z"/>
		<path class="st0" d="M831.6,972.4c-7.7,3.6-14.1,17.1-11.7,24.1c-0.9,1.1-1.6,2.2-2.6,3.1c-0.6,0.6-1.5,1.1-2.4,1.2
			c-3.6,0.4-5.8,2.4-6.6,5.9c-0.5,2.1-1.3,2.8-3.6,2.2c-1.5-0.4-3.1,0.1-4.6,0.3c-2.8,0.7,1.7,4.5-2.8,5.3c-2,0.4-3.9,0.3-5.8,0.4
			c0.1-0.3,0.2-0.5,0.3-0.8c-0.9-0.5-1.8-1.4-2.7-1.5c-1.6-0.2-3.2,0.1-4.8,0.2c-0.4,0-0.8,0.3-1.1,0.2c-4.3-1.7-8.6-3.4-12.8-5.3
			c-0.6-0.2-1-1.5-0.9-2.2c0.3-2.4-0.4-4.3-1.2-6.6c-1-2.7-0.4-6-0.4-9.1c0-0.4,0.2-0.9,0.1-1.3c-1.2-2.9-0.6-4.6,2-6
			c1.4-0.7,2.7-1.7,3.9-2.6c2.4-1.9,4.7-3.9,7.2-6c-1.3-2.3,0-4.7,2.1-5.7c1.8-0.8,4.4-0.2,6.7-0.2c0.8-3.3,3-3.8,6.7-3.7
			c3.3,0.1,7.4,2.1,10-2c0.2-0.4,1.2-0.3,1.9-0.4c0.6,0,1.4,0.5,1.7,0.2c2.3-1.9,4.5-0.5,6.7,0.2c-0.4-0.5-0.9-0.9-1.3-1.4
			c1.7-1,3.3-2,5.2-3.2c1.6,2.9,3.1,5.2,6.5,4.2c0.4-0.1,1.4,1,1.6,1.8C830,966.6,830.8,969.5,831.6,972.4z"/>
		<path class="st0" d="M1077.3,660.4c-0.5-0.3-1.3-0.8-2.5-1.6c1.4-0.6,2.2-0.9,3-1.3c0.1-0.3,0.1-0.6,0.2-0.9c-2-0.6-4.2-2-5.9-1.5
			c-4,1.2-3.9-1.4-4.7-4c4.1-0.7,7.4-0.7,10.5,2.5c1.3,1.3,2.7,2.2,2.1,4.1C1079.7,658.6,1078.6,659.2,1077.3,660.4z"/>
		<path class="st0" d="M1069.5,647.1c2.1-3,3.6-3.1,4.9-0.8c1.3-0.2,2.6-0.3,3.8-0.5C1075.5,648.7,1072.2,648.9,1069.5,647.1z"/>
		<path class="st0" d="M875.3,908.7c-0.7,3.1-1.2,5-1.7,7.2c-2.7,0.8-1.7-2.7-4.1-3.4C871.6,911.1,873.1,910.1,875.3,908.7z"/>
		<path class="st0" d="M1056.8,621.4c-1.4-1.1-2.9-2.2-4.3-3.2c0-0.2,0.1-0.4,0.1-0.6c2.4,0.4,4.7,0.7,7.1,1.2
			c0.3,0.1,0.7,1.2,0.6,1.7c-0.1,0.4-1,0.6-1.5,0.8C1058.1,621.4,1057.4,621.3,1056.8,621.4C1056.7,621.3,1056.8,621.4,1056.8,621.4
			z"/>
		<path class="st0" d="M1075.1,664.7c-4.5-2.8-4.5-2.8-1.9-4.8C1073.8,661.5,1076.9,661.9,1075.1,664.7z"/>
		<path class="st0" d="M974.1,852.4c1.1-0.5,2.2-1.2,3.3-1.5c0.6-0.1,1.3,0.5,2,0.8c-0.4,0.7-0.7,1.9-1.1,2
			c-1.3,0.2-2.7-0.1-4.1-0.2C974.2,853.1,974.2,852.7,974.1,852.4z"/>
		<path class="st0" d="M1033.1,401.6c1.9,0.3,3.8,0.6,5.8,0.9C1038,405,1035.5,404.7,1033.1,401.6z"/>
		<path class="st0" d="M869.1,911c1.6,4.5-1.1,4.2-2.7,5c-0.3-0.3-0.6-0.5-0.9-0.8C866.5,914,867.6,912.8,869.1,911z"/>
		<path class="st0" d="M1077.4,642.5c-0.9,0.1-1.7,0.4-2.6,0.3c-0.7-0.1-1.4-0.5-2.2-0.8c0.7-0.5,1.4-1.4,2.1-1.4c1,0,2,0.6,3,1
			C1077.7,641.9,1077.6,642.2,1077.4,642.5z"/>
		<path class="st2" d="M1068,795.8c0.7,0.3,1.2,0.4,1.6,0.6c5.4,2.3,7.8,7.3,5.9,12.1c-2,4.9-8.3,7.6-13.3,5.5
			c-0.7-0.3-1.7-1.7-1.5-2.2c1.1-2.7,2.7-5.2,3.9-7.9C1065.8,801.3,1066.9,798.6,1068,795.8z"/>
		<path class="st2" d="M1063.4,815.8c1.9,0,3.2,0,4.9,0c-0.7,2.4-1.3,4.6-1.9,6.7c-0.3,0-0.6,0.1-1,0.1
			C1064.8,820.5,1064.2,818.3,1063.4,815.8z"/>
		<path class="st2" d="M1069.5,815.4c1.7-0.9,2.8-1.5,4.3-2.3c0.7,2.5,1.4,4.8,2,7c-0.2,0.2-0.5,0.3-0.7,0.5
			C1073.4,819,1071.6,817.4,1069.5,815.4z"/>
		<path class="st2" d="M1082.5,797c-1.7,1.6-3.4,3.2-5.4,5c-0.8-1.3-1.5-2.3-2.5-3.9c2.8-0.7,5.2-1.3,7.6-1.9
			C1082.3,796.5,1082.4,796.8,1082.5,797z"/>
		<path class="st2" d="M1077.5,807.5c0-1.6,0-2.8,0-4.4c2.6,0.6,4.9,1.1,7.3,1.6c0,0.3,0,0.6,0.1,1
			C1082.5,806.3,1080.1,806.9,1077.5,807.5z"/>
		<path class="st2" d="M1073.8,797.4c-1.6-0.8-2.7-1.4-4.2-2.3c2.1-1.9,3.8-3.6,5.6-5.2c0.2,0.1,0.5,0.2,0.7,0.4
			C1075.2,792.4,1074.6,794.6,1073.8,797.4z"/>
		<path class="st2" d="M1077,808.5c2,1.8,3.7,3.4,5.5,5c-0.1,0.3-0.3,0.5-0.4,0.8c-2.3-0.6-4.7-1.2-7.5-1.9
			C1075.5,811,1076.2,809.9,1077,808.5z"/>
	</g>
</g>
<polygon id="bigStar" class="st3" points="865.5,575.8 901.7,684.2 1016.2,685.4 922.5,756.8 958.6,862.7 865.5,800.4 772.3,862.7 
	809.2,759 714.7,685.4 828.4,685.7 "/>
<polygon id="smStar1" class="st3" points="1140.5,533.7 1140.4,568.7 1173.5,580.3 1139.3,591.8 1139.4,626.1 1118.5,598.9 
	1085.3,607.9 1106.2,581.4 1086,550.8 1119,562 "/>
<polygon id="smStar2" class="st3" points="1260.5,648.1 1246.3,680.1 1272,704.1 1236,700.8 1222.2,732.2 1214,698.9 1180.1,693.7 
	1209.9,677.9 1203.8,641.7 1229.4,665.3 "/>
<polygon id="smStar3" class="st3" points="1229.5,795.8 1240.6,829 1275.7,829.4 1247,851.2 1258,883.7 1229.5,864.6 1200.9,883.7 
	1212.2,851.9 1183.3,829.4 1218.1,829.5 "/>
<polygon id="smStar4" class="st3" points="1144.7,905.1 1143.6,940.2 1176.4,952.7 1141.8,963.2 1141,997.5 1120.8,969.7 
	1087.4,977.7 1109,951.8 1089.7,920.6 1122.3,932.8 "/>
<g id="leaders">
	<defs>
		<path id="SVGID_1_" d="M977.6,13.4c0.4,0,0.8,0,1.2,0c1,0.4,1.9,0.9,2.9,1.2c1.3,0.4,2.7,0.6,4,1.1c2.8,1.2,6.2,0.8,8.3,3.7
			c0.2,0.2,0.8,0.1,1.2,0.1c2.9-0.1,6.1,1.5,8.6-1.5c0.4-0.4,1.8-0.6,2.3-0.3c3.7,2.6,9.6-0.2,12.3,5.4c0.8,1.7,4.4,2,7.1,3.1
			c-0.3,1.3-0.6,2.8-0.9,4.3c5,0.2,6.5,4.9,9.6,7.5c-0.4,0.6-0.7,1.2-1.3,2.1c3.8,0.1,5.8,1.1,3.6,4.9c-0.2,0.3,0.7,1.3,1.1,2
			c1.5,3,6.2,3.7,5.7,8.1c0,0.1,0.2,0.3,0.4,0.4c1.9,1.8,3.8,3.6,5.6,5.5c0.4,0.4,0.5,1.3,0.4,1.9c-0.8,3.4,1.1,5.4,3.5,7.3
			c2,1.5,4.3,3,5.4,5c1.1,2,3.1,3.5,2.8,6.6c-0.2,1.7,0.4,5.4,4.1,5.6c2.7,0.1,2.3,2.1,2.2,4c-0.1,1.4,0.3,2.8,0.4,4.2
			c0.3,2.5,2,3.4,3.9,4.8c3.7,2.8,7.7,3.8,11.8,1.8c2-1,4-2.1,6.2-2.8c0.9-0.3,2.9,0.2,3,0.5c0.4,2.4,2.4,1.5,3.7,2.2
			c0.9,0.5,1.9,1,2.3,1.3c1.6-0.3,3.6-0.1,4-0.8c2.5-4.4,3.9-1.8,5.4,0.7c0,0.1,0.2,0.1,0.3,0.1c3.9-0.2,5.6,3.1,8.3,4.9
			c2.1,1.4,4.8,2.2,7.4,2.4c2.3,0.2,4.6-0.9,7.3-1.6c-0.3,2.1-0.3,3.7-0.7,5.3c-0.7,2.6,1.7,4.5,2.7,4.4c3.1-0.3,2.5,2.5,3.5,3.7
			c0.9,1.1,1.1,3.6,0.5,5.1c-0.9,2.3-0.1,3.2,1.6,4.3c1.8,1.3,3.7,2.8,4.9,4.6c1.6,2.5,1.9,2.7,4.6,1.2c1.8-1,3.9-2.5,5.7-2.3
			c4.7,0.5,8.5-1.8,12.6-3.3c1.4-0.5,2.9-1.1,4.3-1.7c0.6-0.3,1.7-0.6,1.8-1.1c0.3-1.6,0.2-3.3,0.4-4.9c0.1-0.6,0.7-1.3,1.2-1.7
			c0.7-0.7,1.8-1.1,2.3-1.8c2-3.2,4.3-5.9,8.6-5.9c0.8,0,2-0.4,2.2-1c1.8-5.2,6.7-7.1,10.5-10.2c0.9-0.8,2.5-1.1,3.8-1.1
			c2.1,0,4.2,0.5,6.4,0.8c0,1.8,0.5,3.7-0.1,5.1c-1,2.3-0.2,3.6,1.4,4.9c2.6,2.1,4.9,4.4,3.3,8.1c-1,2.4-0.7,5.6-4.3,6.6
			c-2,0.6-2.5,4.1-1.3,6.1c0.6,1,1.5,2.6,1.2,3.2c-2,3.3-0.9,6.4-0.2,9.7c0.3,1.5-0.1,3.3-0.4,4.9c-0.3,1.7-1,3.1,0.8,4.5
			c1.7,1.3,1.4,5.1,0.2,6.9c-0.6,0.9-0.6,2.2-0.8,3.3c-0.4,2.1-0.6,4.3-1,6.4c-0.1,0.7-0.7,1.5-0.5,2.1c1.2,3.9,0.7,7-2.9,9.4
			c-0.7,0.5-1,2.2-0.9,3.3c0.2,1.9,0.8,3.7,1.5,5.5c1,2.8-1,5.7-4,5.7c-5.3,0-10.7,0.1-16,0c-1.9,0-3.7-0.6-5.9-1
			c-0.5,1.9-0.8,4.3-1.8,6.5c-0.9,1.9-1.4,4.2-3.9,5.3c-2.4,1-4.3,3.2-5.7,4.2c2.8,4.7,5,8.9,7.6,12.8c2.7,4.1,3.5,8.4,3.9,13.2
			c0.2,2.8,1.4,5.8,3,8.1c0.9,1.3,2,2.2,1.9,4c-0.3,3.3-0.8,6.6-0.8,9.9c0,4.7,0.1,4.4-4.1,6.2c-2.6,1.1-4.8,3-7.2,4.6
			c0.2,0.3,0.3,0.6,0.5,0.8c0.4,0,0.8-0.1,1.1,0.1c1.1,0.7,2.2,1.5,3.1,2.4c0.2,0.2-0.4,1.8-0.6,1.7c-1.2-0.1-2.4-0.3-3.5-0.7
			c-3-1.3-5.4-3.1-5.3-6.5c-1.6-0.4-2.8-1.1-4-1c-1.2,0.1-2.9,0.6-3.2,1.5c-0.6,1.5-0.8,3.5-0.3,5c1.4,4.4,1.7,8.3-2.3,11.5
			c-3.3-0.9-5.1-0.1-5.2,2.5c-0.1,5.3-2.1,9.1-7.7,10.4c-1,0.2-1.9,1.1-2.9,1.4c-1.4,0.5-2.8,0.8-4.2,1.2c-1.8,0.5-3.6,0.9-5.3,1.7
			c-0.5,0.3-0.9,2-0.6,2.5c1.4,1.8,3,3.5,4.8,4.8c2.6,1.9,3.3,4.8,1.2,8.1c-1.8,2.8-3.6,0.7-5.5-0.1c-0.5,0.4-1,1.1-1.6,1.1
			c-5,0.5-10.1,0.8-15.2,1.2c-0.3,0-0.6-0.6-0.8-0.9c-2.6-4.9-2.8-5-7.1-2c-0.5,0.3-1.1,0.5-1.5,0.9c-0.6,0.6-1.4,1.4-1.4,2.1
			c-0.2,2.4-0.1,4.9-0.1,6.6c-1,1.7-1.8,2.9-2.4,4.2c-1.6,3.5-3.1,7.1-4.8,10.5c-0.4,0.7-1.5,1.1-2.3,1.6c-1.1,0.6-3.3,0.9-3.4,1.5
			c-0.2,2.8-2.7,3.6-4.1,5.3c-0.8,0.9-2.2,1.4-2.9,2.3c-1.4,1.8-4.7,2-4.4,5.3c0,0.4-0.9,0.9-1.4,1.3c-1.1,0.8-2.4,1.5-3.4,2.5
			c-0.8,0.8-1.2,2-1.9,3c-2.1,2.7-4.9,4.9-4.7,9c0.1,1-0.9,2.2-1.5,3.2c-3,4.5-7.8,4.3-11.4,4.5c-2.2,1.6-3.9,3.8-5.2,3.6
			c-1.9-0.3-2.6-0.7-2.6,1.6c0,0.5-0.9,1.3-1.4,1.4c-2.1,0.2-3.4,1.4-4.9,2.6c-4.7,3.6-9.7,6.8-12.8,12c-0.6,1-0.3,2.7-1,3.6
			c-1.6,2.4-3.6,4.5-5.2,6.4c-1.5-0.3-2.7-0.5-4.7-0.9c1.9,2.5,3.2,3.7-0.3,4.6c-2.7,0.7-5,3.2-7.6,4.6c-0.6,0.3-2.1-0.4-2.7-1
			c-0.5-0.5-0.2-1.8-0.6-2.5c-1.1-1.8-0.2-2.4,1.3-3.1c1-0.4,1.7-1.3,2.6-1.9c0.6-0.4,1.2-0.9,1.8-1.2c1.6-0.7,3.3-1.3,5.7-2.2
			c-4.3-2.4-3.2-4.5-0.2-7.1c-3.2,0.5-5.3,1-7.5,1.2c-1,0.1-2.2,0-3.1-0.6c-0.3-0.2,0.1-1.7,0.2-2.6c-0.6-0.2-1.2-0.5-2.5-1
			c1.6-1.3,2.8-2.1,3.9-3.2c0.6-0.7,1.4-2,1.2-2.5c-1.4-2.5-0.2-3.9,1.5-5.4c1.7-1.5,3.8-2.2,4.7-4.9c1.7-4.9,4.6-9.3,7.1-14.2
			c-1.4-0.8-2.7-1.2-3.4-2.1c-3.1-3.9-6.9-5.5-11.8-4.1c-0.5,0.1-1.3,0.2-1.7-0.1c-2.4-1.9-5.1-0.6-7.4-0.1
			c-1.4,0.3-2.4,2.5-3.7,3.9c0.6,0.5,1.1,1,2.1,1.9c-4.1,1.1-5.4,4.2-6.8,7.3c-1.8,3.8-2,8.5-6.8,10.8c-3.8,1.9-6.8,5.4-10.6,7.2
			c-3.5,1.7-4.3,5.3-6.7,7.7c-0.4,0.3-0.3,1.1-0.3,1.7c-0.2,2.3,0.3,4.8-0.5,6.7c-1.5,3.2-3.8,6-5.3,8.4c-3,0-5.2,0-7.5,0
			c-0.3,0-0.6,0.5-0.9,0.8c-0.9,0.9-1.8,1.8-2.7,2.7c-1.6,1.7-3.2,1.2-4.2-0.5c-1.5-2.6-3.7-3.2-6.1-1.9c-2,1.1-4.4,2.3-3.1,5.6
			c0.2,0.4-0.4,1.1-0.7,1.7c-4.4,7.1-1.2,14,5.6,17.8c3.9,2.2,7.9,2.3,12,2.2c1.2,0,2.6,0.4,3.7,0.1c1.9-0.5,3.9-2.4,5.5-2
			c1.7,0.4,3.2,2.5,4.4,4.2c1,1.4,1.2,3.4,2.2,4.9c1.2,1.7,1.4,2.9-0.1,4.7c-2,2.3-0.4,8.4,2.2,10.1c3.9,2.6,7.9,1.9,12.1,0.9
			c4-0.9,5.3-2.7,4-6.6c1.5-1.2,3.2-2.3,4.6-3.7c1.5-1.4,2.7-3.1,4.2-4.8c-1.2-0.5-1.9-0.8-2.7-1.2c2.3-1.3,4.3-2.4,6.3-3.6
			c1-0.6,2-1.3,3.1-1.9c2.3-1.2,4.4-2.5,7.1-0.1c1.5,1.4,4.8,0.7,5,4.4c1.3-0.6,2.5-0.8,3.1-1.5c1.6-1.6,1.7-0.5,2.5,0.7
			c0.7,1,1.9,2.3,2.9,2.3c2.3-0.1,4.6-0.8,6.8-1.4c0.9-0.2,1.6-1,2.4-1.5c0.9-0.6,1.8-1.3,2.7-2c0.5,0.9,1.1,1.8,1.8,3
			c3.2-0.4,6.7-0.8,10.2-1.2c0.3,0,0.8,0.3,0.9,0.6c0.1,0.4,0,1.2-0.2,1.3c-2.4,0.7-1,2.5-0.6,3.4c0.7,1.7,0.5,2.7-1.2,3.5
			c-0.6,0.2-0.8,1.1-1.4,2c1.1,0.2,1.7,0.3,2.3,0.5c0.3,2.8-1.6,6.3-3.8,6.9c-2,0.5-3.8,0.5-4.3-2.3c-1,0.6-1.8,1.1-2.6,1.6
			c-0.4-0.7-0.7-1.4-1.1-2c-2.5,2.5-4.9,4.8-7.9,7.7c-5.9,1.7-12.1,4.5-13.1,13.3c-0.4,0-0.8-0.1-1.1-0.1c-0.3-0.9-0.6-1.7-1-2.6
			c-0.4,0.2-0.8,0.3-1.1,0.5c0,2.1-0.4,4.3,0.1,6.1c0.6,1.9,0.2,3-1.4,3.6c-3,1.2-5.5,2.8-7.2,5.7c-1.3,2.2-4.4,2.8-4.5,6.3
			c0,1.2-1.1,4.6-4.2,4.9c-3,0.3-2.9,3-3.6,5.2c-0.9,3.1-3.9,5.5-3.3,9.2c0,0.3-0.4,0.8-0.7,0.9c-3.5,1.1-2.4,4-2.4,6.2
			c0,1.6,0.8,2.7,3,2.1c1.1-0.3,3.3,0,3.7,0.8c2.5,4.1,6.7,4.2,10.5,5.1c5.1,1.3,9.8,2.8,12.2,8.6c2.3,5.5,5.9,10.5,9,15.7
			c0.4,0.6,0.7,1.2,1,1.8c1.9,2.9,3.4,6.2,5.8,8.7c2.1,2.2,2.5,4.6,2.1,7.2c-0.4,2.8,0.2,4.3,2.9,5.1c2.2,0.6,4.4,1.1,6.7,1.6
			c3.5,0.8,5.6,2.7,5.1,5.6c-0.4,2.5,0.8,2.6,2.5,2.9c5.2,0.9,9,3.7,10.9,8.7c0.7,1.9,0.2,2.8-1.8,2.7c-2.4-0.1-4.9-0.5-7.3-0.8
			c0.3,0.4,0.6,1.1,1.1,1.3c2.2,0.8,4.6,1.2,6.8,2.1c0.8,0.3,1.3,1.3,2,2c-0.8,0.6-1.7,1.7-2.4,1.6c-5.5-0.9-11.1-1.7-15-6.4
			c-0.5-0.6-2-1.3-2.5-1c-2.6,1.4-3.8-0.2-5.3-1.8c-2.7-3-7.1-3.8-10.3-1.7c1.6,0.2,3,0.6,4.1,0.4c3.2-0.7,4.4,1.5,4.8,3.6
			c0.4,2,1.2,2,2.6,1.8c3.5-0.5,6.4,1.2,9.2,3c2.4,1.5,4.8,3.2,7.4,4.5c1.6,0.8,3.3,1.3,5,1.9c0,0-0.1-0.1-0.1-0.1
			c1.7,2.3,3.5,4.6,5,7.1c2,3.1,1.2,4.8-2.4,5.3c-2.9,0.4-5.5,1.4-7.5,3.9c-2,2.3-4.6,4.1-6.8,6.3c-1,0.9-2.1,2.2-2.2,3.4
			c-0.3,3.8-2,5.1-5.5,3.8c-2.3-0.8-6,0.4-7.3,2.8c2-1.2,3.6-1.8,4.8,0.6c1.4,2.7,3.9,3.2,6.5,1.5c1.6-1.1,3-2.4,4.3-3.7
			c2.9-2.8,5.3-3.4,8.6-1.4c2.1,1.2,3.9,3,6,4.4c1.2,0.8,2.6,1.3,4.3,2.1c0.3-2,0.5-3,0.6-4.2c3.1,0.6,2.5,2.3,1.7,3.8
			c2,0,4.1,0,6.8,0c-2.1,3.6-6.8,4.5-6.8,7.8c1.7,0.8,3.6,1,4,2c1.3,2.7-0.5,6.1,2.2,8.7c0.8,0.8,0.3,3,0.1,4.5
			c0,0.5-0.9,1.4-1.2,1.4c-1.8-0.4-4.1-0.2-4-3.1c-1.9,0.7-3.8,2.3-5.1-0.8c-0.5,1.3-0.9,2.3-1.3,3.5c3.7-0.7,4.2-0.5,6.1,3.2
			c0.4,0.7-0.3,2-0.5,3.4c1.4,1.9,1.1,2.9-2.7,5.8c1.3,2.4,2,5.4,4,7.1c2.4,2,1,2.7,0.1,3.8c-1.1-0.4-2.5-1.2-2.7-0.9
			c-0.8,0.9-1.8,2.1-1.7,3.2c0.1,2.2-1,2.3-2.6,1.9c0.8,2.6-0.1,3.4-3.4,3.5c-0.4-0.9-0.8-1.8-1.4-3.2c-1.3,2.5-2.3,4.6-3.4,6.8
			c0,0-0.1,0-0.1-0.1c-1.6,4-3.3,8-4.8,11.7c0.8,1,2,1.8,2,2.7c0,1-1,2.1-1.5,3.2c0,3.1-1.1,6.4-3.9,7.8c-2.2,1.1-2.2,2.1-2.4,3.9
			c-0.1,0.7-0.8,1.5-1.5,2.1c-0.8,0.7-1.9,1.2-2.2,1.3c0.9,1.7,1.8,2.9,2.2,4.3c0.2,0.7-0.2,2-0.8,2.5c-2,1.6-4.2,2.9-7,4.8
			c1.9,1.2,3.2,2,4.8,3c-1.5,0.9-2.8,2-4.3,2.7c-3.4,1.5-3.9,4.1-1.3,6.8c2.8,3-2.2,5.9-0.2,8.9c0.1,0.2-0.7,1.2-1.2,1.7
			c-0.2,0.2-0.9,0.2-1,0.4c-0.1,0.4-0.1,1.2,0.2,1.3c1.3,0.7,2.7,1.3,4,1.9c0.4-1.4,0.9-3,1.3-4.5c1.5,0.7,3,1.5,4.5,2.2
			c-0.8,1.5-1.6,2.6-2,3.9c-0.6,1.8-3.5,0.9-3.6,3.2c0,0.2-1.2,0.4-1.9,0.4c-2.5-0.1-3.6-2.2-5.2-4c-0.4,1.3-0.8,2.2-1.2,3.4
			c-2-2-3.2-1.6-4.1,0.2c2.3,1,4.3,1.9,7,3.2c-2.3,1.8-3.8,3-5.4,4.1c-0.9,0.6-2,1.3-3,1.4c-0.4,0-0.9-1.5-1.3-2.2
			c-0.6,1.2-1.4,2.5-2.2,4.1c0.9-0.2,1.9-0.4,2.9-0.6c1.2,4.5,1.1,4.7-3.4,5.9c-0.9,0.3-1.7,0.9-2.6,1.4c1.8,2.5-0.1,7.7-3.1,9.5
			c-0.8-0.7-1.8-2.2-2.2-2c-2.3,0.9-4.5,2-6.5,3.4c-1.1,0.8-1.7,2.3-2.7,3.7c0.5,0.7,1.4,1.8,1.8,2.3c-3,4.3-5.6,8.2-8,11.7
			c-1.1,0.2-1.8,0.3-2.6,0.5c0.8,3.7-1.5,5.7-3.9,7.8c-0.2,0.1-0.5,0.3-0.4,0.4c0.6,3.7-2.1,1.6-3.2,2.2c0-1.6,0-3.1,0-4.5
			c-0.3,0-0.5,0-0.8,0c-0.1,1.2-0.2,2.4-0.3,3.7c-3.3,0.2-4.8,4.4-8.8,3.6c0.4-0.9,0.6-1.5,0.9-2.1c-1.5,2.2-2.7,4.5-3.4,7
			c-0.3,1.2,0.4,2.7,0.7,4.1c-3-0.4-6.1,1.9-5.9,4.2c0.4,3.3-0.9,5.2-4.1,4.9c-2.4-0.2-3.8,0.6-4.9,2.5c-0.3,0.5-0.9,0.8-1.4,1.1
			c-2.7,1.1-5.4,2.1-7.8,3c-1.2-0.9-2.5-2-3.9-3.1c-0.4,0.1-0.7,0.3-1.1,0.4c-0.1,2.1-0.2,4.2-0.3,6.4c-1.6-0.2-3-0.1-4.2-0.5
			c-1.1-0.4-2-1.3-3-1.9c-1.5-0.9-5.9,0.7-6.8,2.3c-1.1,1.9-2.4,3.6-3.5,5.4c-0.8-0.4-1.6-1.2-2.3-1c-1.9,0.3-2.3-0.8-2.6-2.2
			c-0.2-0.9-0.2-1.7-0.3-2.7c-3.3,1.5-3.7,3.5-1.2,7.2c-1.1,0.7-2.2,1.5-3.5,2.3c-0.5-1-0.6-1.9-1.2-2.3c-1-0.7-2.5-1.6-3.4-1.3
			c-3.9,1.3-7.6,3-11.5,4.6c-2-6.5-3.9-7.8-9.6-7c0.7,2.8,1.3,5.7,2,8.5c0,0.2,0.1,0.4,0.2,0.6c2.3,3.8,1.2,6.3-3.1,7.1
			c-0.4,0.1-0.8,0.5-0.9,0.5c0.5,1.5,0.9,2.7,1.3,4.1c-5.6,0.2-8.4-1.1-9.5-4c-0.6,1.2-1.4,2.6-1.1,3.8c0.5,2.1,0.7,4-1.4,4.8
			c-1,0.4-2.6-0.6-4.6-1.1c-2.4,1.1-3.1,8-7.9,4.5c-2,1.2-3.3,2.6-4.8,2.8c-1.1,0.2-2.4-1.1-4.4-2.2c-1,0.6-2.8,1.6-4.9,2.8
			c1.5,0.6,2.3,1,3,1.3c0,0.2,0,0.5,0,0.7c-2.2,0.1-3.4,4-6.5,1.3c-0.3-0.2-1.3,0.4-2,0.7c-1.3,0.7-2.6,1.9-4,2
			c-2.3,0.2-4.3,0.4-5.9,2.3c-0.3,0.3-1.4-0.1-2.2-0.2c-4.1-0.6-6.9,3.5-11.2,2.9c-0.4-0.1-1,0.4-1.2,0.8c-1.7,3.4-4.5,6.4-4.3,10.2
			c1,0.6,1.8,1,2.3,1.5c0.2,0.2-0.4,1.4-0.6,1.4c-0.8-0.1-1.7-0.3-2.3-0.7c-1.5-1-2.6-2.5-4.7-1.7c-1.3,0.5-2.8,0.5-4.6,0.8
			c0.4,0.8,1.1,2.5,1.2,2.5c4.9-1.8,5.6,2.3,7,5.1c1,2,2.6,4.2,2.3,6c-0.5,2.9-2.9,5.6-7,5.9c-3,0.2-6,0.4-9.1,0.6
			c-0.5-1.7-1.1-3.8-1.9-6.4c-0.9-1-2.1-2.5-3-3.5c-0.5-2-0.5-3.7-1.3-4.8c-1.1-1.7-2.4-8.5-1.6-10.2c0.9-1.8,1.7-3.6,2.7-5.7
			c2.4-0.4,2.4-0.4,2.8-2.7c-3,0.9-5.8,0.9-8-2.5c-4.1,5.6-7.8,10.8-11.6,16c-0.2,0.3-0.8,0.3-2.1,0.6c3.2-4.4,6-8.2,8.8-11.9
			c-0.2-0.2-0.4-0.4-0.6-0.7c-1.7,0.5-3.3,1.4-5,1.5c-1.3,0.1-2.6-0.6-3.9-1c0.7-0.8,1.3-1.7,2-2.5c0.1-0.1,0.1-0.4,0.4-1.2
			c-3.6-0.3-7.2-0.5-10.8-0.8c-0.8-0.8-1.9-1.9-2.5-2.5c-1.8,2-2.9,4.1-4.6,4.8c-3.1,1.4-0.6-2.9-1.9-3c-1.4,1.9-2.6,3.6-3.8,5.2
			c-0.3-0.1-0.5-0.3-0.8-0.4c0-0.6,0-1.3,0-2.4c-2.2,1.8-4,3.3-6,4.9c-1.1-4.3-4.4-6.1-8.3-4.9c-0.5,0.2-1,0.3-1.5,0.3
			c-2.3,0-4.7,0-6,0c-3.3-1.8-5.7-3.5-8.4-4.6c-2.1-0.8-2.9-1.6-1.7-3.6c-3.2-0.6-6.1-1.2-9.4-1.8c0,0,0.1-0.7,0-1.3
			c-0.7-2.8,1-6-2.6-8.3c-2.4-1.5-0.5-4.7,0.1-7c0.2-0.6,1.7-0.9,3-1.4c0.1-0.2,0.5-0.8,0.7-1.4c0.8-2.1,0.4-3.1-2-4.3
			c-2.9-1.5-5-0.3-7.5,0.1c-1,0.2-2.9,0.1-3.2-0.5c-1.8-3.3-3.9-3.2-6.6-1.3c-0.6,0.4-1.7,0.9-2.2,0.6c-3.2-1.5-6.5-2.8-9.3-5
			c-2.4-1.9-4-4.7-5.9-7.1c-0.1,0.4-0.2,0.8-0.4,1.2c-1.5,0.7-3,1.4-4.4,2.1c-2,1-4.1,2-6,3.2c-0.6,0.4-1.1,1.4-1.2,2.2
			c-0.1,4.5-1.8,6.4-6.1,6.8c-1,0.1-2.1,0.5-2.9,1.2c-3.6,2.9-5,2.7-7.6-1.1c-5.6,0.2-3.1,6-6.6,9.1c-2.4-3-4.8-5.9-7.8-9.5
			c-0.8,2.1-1.1,3.4-1.7,4.5c-0.4,0.7-1,1.6-1.7,1.8c-0.4,0.1-1.4-0.6-1.8-1.2c-0.9-1.3-1.5-2.7-2.4-4.4c-1.8,2.6-3.4,4.7-4.9,6.9
			c-2.3,3.3-5.6,3.7-7.3,0.5c-1.4-2.6-3.8-3.4-6-4.5c-1.4-0.7-2.9-1.1-4.3-1.6c-1.6,2.1-3.6,4.4-5.1,6.9c-1.5,2.4-3,2.7-5.5,1.6
			c-1.1-0.5-3-0.4-3.9,0.3c-1.6,1.3-2.2,0.5-3.1-0.7c-0.4-0.6-1.1-1-1.6-1.5c-0.5,0.8-1.1,1.5-1.6,2.3c-0.9,1.4-1.7,2.9-2.5,4.4
			c-0.4,0.1-0.8,0.1-1.2,0.2c1.8,3.4,3.6,6.8,5.4,10.2c0.3,0.5,0.5,1.1,0.6,1.6c0.3,1.7,0.6,3.5,0.9,5.8c0.3-0.3,0,0-0.3,0.3
			c-2,2.1-1.9,6.1,0,8.1c0.5,0.5,0.6,1.9,0.2,2.4c-0.7,1.1-1.5,2.8-3.5,1.6c-3-1.8-6.1-3.8-9.8-1.2c-0.3,0.2-2.5-1.3-2.7-2.2
			c-0.7-3.1-0.9-6.4-1.3-9.6c-0.2-1.4-0.6-2.7-1.1-5.1c-3.8,2.7-6.9,4.8-10,7.1c-2.3,1.7-5,2.9-7.2,1.2c-1.9-1.5-2.8-1.3-4.5-0.2
			c-0.8,0.6-2.7,0.9-3.1,0.5c-1-1.1-1.4-2.7-1.9-4.1c-0.2-0.5,0.3-1.3,0.5-1.9c-4.3-0.9-5.4-3-4.1-7.1c0.3-1,0-2.3,0-3
			c-7.3-1.4-13.9-2.7-21-4c1.8-3.2,2.8-5.9,4.6-7.9c1.5-1.6,2.4-3.3,1.8-5c-0.8-2.6-0.9-4.5,1.4-6.3c0.7-0.6,0.7-1.9,1.1-3.1
			c0.8,0.2,1.5,0.3,2.3,0.4c0.2-0.3,0.4-0.5,0.5-0.8c-1.5-1.3-3-2.6-4.3-3.8c-5.4,2.9-8.4-2.6-12.8-2.6c0.6-3.3,2.3-6.3-1-8.8
			c-0.3-0.3-0.3-1.4,0-1.9c1.3-2.7,0.8-4.5-1.7-5.9c-0.5-0.3-1.1-1.1-1.1-1.7c0-2.3-0.3-4.8,2.8-5.7c0.7-0.2,1.3-0.9,2-1.4
			c-1.5-0.4-2.8-0.1-4.1,0.1c-1,0.1-2.1,0.6-2.9,0.3c-4.5-1.8-9.1-1.7-13.5-0.2c-3.7,1.3-7.1,3.5-10.7,5.3c-0.9-0.9-1.9-2-3.1-3.3
			c1.6-1.4,3.1-2.8,4.6-4.1c2.9-2.6-1.3-5.2,0-7.8c-1.1-0.5-2.2-0.9-3.6-1.5c0.2-1.5,0.6-3.2,0.8-4.8c0.4-4.4,1.2-5.4,5.6-6.4
			c-1.1-2.8,1.3-10.9,3.5-11.1c0.6,0.4,1.3,0.8,1.6,1c5-1.9,4.8-6.6,6.5-10.2c4.6,1.4,4.6,1.4,7.2-3c0.4-0.6,0.6-1.4,1.2-1.7
			c0.7-0.4,1.5-0.6,2.3-0.7c0.8-0.1,1.6,0,2.5,0c-0.3-1-0.7-1.9-1-2.9c-0.5-1.5-1-3.1-1.5-4.6c1.1-0.4,2.2-0.7,3.3-1.1
			c0.2-0.1,0.2-0.3,0,0.1c-0.1-1.8-0.7-3.3-0.2-4.2c2.3-4.4,2.7-9.1,2.3-13.8c-0.2-3.4-0.8-6.8-0.8-10.2c0-3.4,0.5-6.9,0.7-10
			c-2.1-1.1-3.8-2-5.5-2.9c-0.3,1-0.5,1.9-0.9,2.6c-0.9,1.6-2.7,1.6-3.2,0c-1.2-4.7-2.1-9.5-3.2-14.2c-0.3-1.3-1-2.4-1.6-3.6
			c-0.3-0.6-1.1-1-1.4-1.7c-0.9-1.5-1.3-3.5-3.9-2.8c-0.4,0.1-1.5-0.6-1.5-1.1c-0.3-2.9-2.5-3.1-4.3-3.6c-1.8,2.8-3.4,5.4-5.3,8.3
			c-1.6-1.4-2.5-2.1-3.4-3c-1.4-1.4-2.6-2.5-5.1-1.8c-1.8,0.5-4.4-0.5-6.1-1.7c-3.4-2.3-5.2-2.5-8.5,0.2c-1.4-0.6-2.7-1.2-4.1-1.9
			c2.1-2.3,4-4.5,5.9-6.7c0.6-0.6,1.2-1.4,1.9-1.7c1.7-0.7,1.6-1.6,0.9-3.1c-0.9-1.8-1.6-3.7-2.5-6.1c-1.6,1.1-3.1,2.2-4.8,3.3
			c-0.5,0.3-1.3,0.5-1.8,0.4c-0.3-0.1-0.4-1-0.5-1.5c-0.2-1.3-0.2-2.5-0.3-3.9c1.7-0.9,3.6-1.9,4.8-2.5c-1.7-2.3-3.4-4.6-5.1-6.9
			c-1.5,0.4-3,0.6-4.3,1.2c-3.1,1.6-6.7,2.1-8.8,5.7c-1.8,3.1-4.3,3.4-7.3,1.9c-3.5-1.7-7.1-3.1-10.8-4.7c-0.6-0.9-1.1-2.5-2.2-3
			c-0.7-0.3-2.2,0.9-3.3,1.3c-0.5,0.2-1.1,0.4-1.7,0.5c-2.7,0.6-5.4,1.3-7,3.9c-1.2,1.8-4.3,1.8-4.4,4.6c-4.1,1.3-7.4,4.6-12.2,3.8
			c-5.5-0.9-6.7,0.6-10.1,5.1c-2.1,2.9-6.1,4.4-9.3,6.4c-1,0.6-2.2,0.8-3.4,1.2c1.3,2.6,1.2,4.1-0.6,5c-3.4,1.6-6.7,3.6-10.9,2.4
			c-1.4-0.4-3.1,0.5-4.7,0.6c-1.4,0.2-2.9,0.4-4.3,0.2c-1.9-0.4-3.7-1.2-5.9-1.9c0.2-1.3,0.4-2.9,0.6-4.4c-2.2-1.1-4.6-2-6.5-3.5
			c-1.8-1.4-2.9-1.4-4.7,0c-1,0.7-3.2,1-3.9,0.4c-3.3-2.6-6.9-3.6-11-4c-4.9-0.4-4.9-0.6-3.6-5.5c-2.5-0.9-4.9-2.2-7.5-2.7
			c-1.7-0.3-3.6,0.7-5.3,1.3c-1.4,0.4-2.7,1-4,1.5c-0.9,0.3-2,0.5-2.7,1.1c-2,1.8-3.6,4.2-5.9,5.4c-3.2,1.6-5.2,3.8-6.5,7
			c-0.1,0.4-0.5,0.8-0.8,0.9c-3.3,0.6-4.5,3.2-5.8,5.9c-4.2-3.8-4.4-5.6-1.6-10.2c3.5-5.7,2.7-9.3-1.8-11.6
			c-4.8,0.8-8.7,1.5-12.7,2.1c-0.1,0.4-0.2,1-0.4,1.9c-0.6-0.3-1-0.7-1.4-0.7c-2-0.4-4.7-1.7-5.8-0.8c-2.2,1.7-4.2,0.8-6.2,0.7
			c-1.3-0.1-2.7-0.3-3.9-0.8c-2.9-1.3-7-0.3-8.5-4.3c-0.2-0.6-1.3-0.8-1.9-1.3c-2.1-1.5-4.1-3-6.2-4.6c-1.6-1.1-2.9-0.5-3.8,1.6
			c-0.4,0.8-2.6,1.7-3.3,1.3c-2.5-1.5-5.8-2.6-5.6-6.7c-0.6,1.3-0.4,2.6-0.8,3.7c-0.3,0.9-1.1,2-1.9,2.1c-0.8,0.2-2.6-0.6-2.6-1
			c-0.2-4.4-2.1-7.9-4.4-10.4c-5.1-1.4-9.6-2.6-14-3.9c-0.3-0.1-0.5-1.1-0.4-1.6c0.7-2.1,1.6-4.1,2.8-6.8c-1.2,0.1-2.6-0.2-3.5,0.3
			c-2.2,1.3-3.9,0.8-5.6-0.8c-1.5-1.6-3.1-3.2-4.6-4.8c-2.2-2.4-4.4-4.8-6.5-7.3c-0.3-0.4,0.2-1.3,0.1-2c-0.4-2.4-0.6-4.9-1.6-7
			c-0.9-1.9-7.3-2.3-9.2-1c-1.7,1.2-3.8,0.6-4.5-1.2c-0.5-1.3-0.8-2.6-1.4-3.8c-0.9-2-2.5-3.7-2.9-5.8c-0.4-2.6-1.3-3.5-3.3-2.7
			c-1.4-1.2-2.6-2.2-3.8-3.2c-0.9-0.7-2.4-1.1-2.9-2c-2.9-5-6.1-9.6-11.6-12.1c-0.5-0.2-1-0.9-1-1.3c-0.1-2.2,0-4.3,0-6.2
			c-3-1.4-5.7-2.7-8.5-4c-0.7-0.3-1.7-0.3-2.5-0.2c-1.3,0.1-2.5,0.3-3.3,0.5c-1.8,2.1-3.4,4.2-5.3,6c-0.7,0.7-2.2,1.4-2.9,1.1
			c-1-0.5-2.1-1.8-2.3-2.9c-0.6-2.9-1-5.6-4.2-7c-0.7-0.3-1-1.4-1.5-2.1c-0.8-1-1.5-2.1-2.5-2.9c-1.6-1.3-3.4-2.4-5.1-3.5
			c-1.2-0.8-2.5-1.4-3.7-2c0.1-0.8,0-1.7,0.2-2.7c0.2-0.9,1.1-2,0.8-2.6c-0.3-0.7-1.6-1-2.4-1.4c-0.2-0.1-0.2-0.4-0.3-0.5
			c-2.5-3-4-7.4-9.3-6.2c-0.3,0.1-0.9-0.2-1-0.5c-1.6-2.7-3.4-5.3-4.7-8.2c-1.1-2.3-1.6-4.8-2.4-7.3c-2.3,1.4-4,2.2-5.6,2.4
			c-2.3,0.4-3.2-1.1-2.7-3.3c0.3-1.2,0.1-2.5,0.1-3.9c0.9-0.6,2-1.2,3.4-2.1c-3.1-2.6-2.3-5.3-0.4-7.8c1-1.3,0.8-2.3,0-3.7
			c-1.8-3.4-3.6-7-2.7-11.2c0.3-1.5-0.3-4,0.4-4.4c1.2-0.7,3.3,0.4,4.8-0.1c3.6-1.1,4.5-0.3,3.9,3.5c-0.2,1.3,1.4,3.3,2.7,4.2
			c1.2,0.8,2.9,0.3,4-1.4c0.5-0.7,2.3-0.7,3.5-0.5c3.6,0.5,6.8-2.7,6.2-6.1c-0.6-3.4-2.8-6.8,0.3-9.5c-2.4-2.2-4.9-3.9-6.5-6.2
			c-2.4-3.4-4.7-7-2.6-11.6c0.8-1.8,1.1-4.1,1.1-6.2c0-4.9-0.2-4.9,4.6-6.4c2.7-0.8,3.8-2.4,2.5-4.3c-1.5-2.3-3-5.6-5.2-6.3
			c-6.7-2.2-7.8-7.1-7.5-12.8c0.3-5.2-3-10.7,1-15.6c0,0-0.2-0.3-0.4-0.6c-2.1,1.2-3.8,0.8-4.5-1.1c-1.6-0.3-2.9-0.2-4-0.7
			c-2.3-1-4.6-2.2-6.7-3.5c-3.2-1.9-6.7-3.7-9.3-6.2c-2-1.9-5.5-3.5-3.7-7.7c-1.5,0.2-2.7,0.4-3.9,0.5c-3.9,0.2-4.7-0.7-5-4.5
			c-0.1-0.9-1.3-1.5-1.7-2.5c-0.6-1.3-1.5-3.8-1.2-4c2.4-1.5,2.7-3.8,3.3-6.2c1.1-4,0.2-8.6-2.9-11.2c-0.8-0.7-2.2-1.1-3.2-1
			c-2.3,0.2-2.8-0.7-2.6-2.8c0.1-1.1,0.1-2.8-0.5-3.3c-2.8-2-5.1-5.9-8.7-3c-1.3-1.5-2.2-3.5-3.5-3.9c-2.7-0.8-4.2-2.6-5.7-4.5
			c0-0.1-0.2,0-0.3-0.1c0-0.6,0-1.2,0-1.8c1.1-0.3,2.2-0.5,3.3-0.9c2.7-0.9,6.5,0.1,7.5,2.4c2.4-0.8,4.8-1.6,7.6-2.6
			c-1.1-1.9-1.8-3.1-2.6-4.2c-1.4-1.8-2-3.5,0.2-5.2c0.5-0.4,1-1.3,1.1-2c0.2-1.5,0.2-3,0.2-4.5c0-0.7,0.3-1.5,0-2
			c-1.8-3.7-0.2-6.6,1.8-9.6c0.6-0.9,0.5-3-0.1-3.8c-1.8-2.1-4-3.9-6.1-5.7c-2.1-1.8-5.4-2.2-6.4-0.7c-1.6,2.5-3.2,1.4-4.2,0
			c-1.1-1.5-1.5-3.5-2.3-5.3c0-1.6,0-3.2,0-4.8c1.2-0.8,2.4-1.5,3.9-2.4c-3.1-4.4-2.1-8.9,0.8-13.3c0.1,0,0.3-0.1,0.5-0.1
			c5.3,0.5,6.5-0.9,5.6-6.2c-0.1-0.8,0.3-1.8,0.8-2.4c0.9-1.2,2.3-2,3.1-3.2c1.9-2.7,4.9-2.5,7-1.7c2.7,1,4.6,0.2,6.8-0.8
			c2.2-1,4.5-1.7,6.7-2.6c0.5-0.8,1.2-2,1.9-3.3c0.9,0.6,1.8,1.4,2.8,1.7c1.9,0.6,3.9,1.2,5.8,1.2c1.6-0.1,3.2-1.2,4.8-1.7
			c2.1-0.7,3.4-0.2,3.2,2.3c-0.2,2.3-0.3,4.6-0.5,7.3c4.1,0,8.2,0,12.7,0c0.1,0.2,0.4,0.9,0.8,1.9c3.4-1.3,5.6-3.8,7.5-6.6
			c0.8-1.2,1.8-2.2,2.8-3.3c0.4-0.5,1.1-0.8,1.4-1.4c1.6-3,4.6-3.7,7.7-2.3c3.6,1.6,7.4,2.9,11.2,3.9c1.8,0.5,4.2-0.5,5.8,0.2
			c2.9,1.3,4.6,0.4,7-1.3c2.4-1.9,3.2-5.6,6.9-5.8c0.9-0.1,1.8-0.2,2.6-0.5c7.8-3.3,16-3.9,24.3-4.9c0.7-0.1,1.8-0.3,2.1-0.7
			c1.3-2.2,3.3-1.9,5.3-1.6c1.5,0.3,3,0.5,4.6,0.8c0.1-1.5-0.2-2.9,0.3-3.5c2.4-2.8,1.3-6.1,1.4-9.1c0.2-5,1.9-7.8,6.8-8.2
			c0.8-0.1,1.5-0.1,2.3-0.2c0.2-0.3,0.3-0.5,0.5-0.8c-0.5-0.2-1-0.3-1.3-0.6c-2.3-2.2-2.1-3.2,1-3.9c2.1-0.5,4.4-0.6,7.1-0.9
			c-0.3-1.3-0.8-3-1.4-5c0.4-1.1,1.6-2.7,1.5-4.1c-0.4-4.4-1.3-8.7-1.9-13.1c-0.3-2.1-0.4-4.3-0.3-6.4c0.1-2,0.8-3.9,1.2-5.8
			c0.8-3.2,1.1-6.7,5.2-9.2c-2.8-1-5.1-1.7-7.3-2.6c-1-0.4-2-0.9-2.8-1.6c-1.6-1.5-1.9-2.7,0.6-3.7c2.3-0.9,4.4-2.4,7.1-1.2
			c0.7,0.3,1.8,0.1,2.7,0c2.3-0.2,4.8-1,7-0.5c6,1.4,11.7-0.2,17.5-1c3.1-0.4,3.8-0.2,4,2.9c0.1,2.3,1.8,3.7,3.4,3.1
			c4-1.5,6.7-0.5,8.7,3.2c0.1,0.1,0.4,0.1,1.2,0.2c0.8-2,2.2-4.1,2.4-6.3c0.1-0.9-2.4-2.1-3.8-3.1c-1.8-1.2-1.6-2.6-0.6-4.1
			c1.9-2.8,3.8-5.6,5.6-8.5c2.7-4.4,5.5-8.8,7.6-13.5c2.6-5.6,7.5-9.9,8.9-16.2c0.6-2.7,2.1-2.9,4.3-1.1c2.3,1.9,4.8,3.6,7,5.6
			c4.9,4.5,11.7,2.8,17.1,5.4c1,0.5,2.4,0.6,3,1.4c0.6,0.8,0.3,2.2,0.5,4c2.6-1.3,5.1-2.5,7.6-3.6c1-0.4,2.2-0.8,3.2-0.7
			c2.5,0.2,7.1-2.6,7.4-5.1c0.4-3.7,0.7-7.4,0.4-11.1c-0.6-6.7,2.2-12.1,5.9-17.2c0.7-0.9,2.1-1.7,3.2-1.8c3.3-0.2,6.4,0.7,9.9,0
			c4.9-1,8.7-4.6,8.3-9.8c-0.1-1.1,0.4-2.4,1.1-3.2c2.1-2.4,6.2-2.8,9.3-1.2c1.8,0.9,3.4,1.6,5.6,0.7c1.6-0.7,3.7-0.4,6-0.6
			c-1,3,2.1,6.6-3.5,8.1c1.7,1.6,2.9,2.7,4.1,3.8c1.4,1.2,2.4,2.3,0.3,3.7c-0.4,0.3-0.8,0.8-1.1,1.2c2.7,2.1,5.4,4,7.8,6.2
			c1,0.9,1.5,2.4,2,3.8c0.4,0.9,0.2,2.1,0.8,2.7c2.2,2.1,5.4,3.1,7,6.1c0.3,0.6,2.1,0.8,3,0.6c4.9-0.9,4.7-0.9,7.6,3.2
			c1.1,1.5,2,4.9,5.1,1.9c0.1-0.1,2.2,1,2.1,1.5c-0.3,2.6,1.2,3.6,3.1,4.6c0.6,0.3,1.4,0.8,1.5,1.3c0.6,2.6,1.3,5.2,1.5,7.8
			c0.4,4.7,1.3,8.9,5.4,12c0.7,0.5,0.9,1.7,1.2,2.7c0.3,0.9,0.2,1.9,0.4,2.9c0.9,3.2,1.1,6.3-0.6,9.3c-1.6,2.8-3.1,5.4-1.4,9
			c0.5,1-0.7,3.1-1.6,4.4c-1.2,1.7-3.3,2.8-4.3,4.6c-1.2,2.2-2.4,4.9-2.2,7.2c0.2,2.7,1.9,5.3,2.9,8c0.2-0.2,0.3-0.5,0.5-0.7
			c1.8,1,3.5,2.2,5.3,3.1c1,0.5,2.2,0.6,3.2,0.9c0.6,0.2,1.2,0.4,1.8,0.6c1.6,0.7,3.1,1.5,4.8,2c2.4,0.6,4.9,0.8,7.3,1.4
			c2.6,0.6,5.2,2.3,7.6,2.1c5.5-0.6,10.5,1.3,15.5,2.6c2.9,0.8,7,2.3,7.7,4.5c2,6.3,10,5.1,12.1,10.7c0.1,0.2,0.6,0.1,0.8,0.3
			c1.1,0.8,2.5,1.5,3.3,2.6c3.1,4,7.2,5.5,12.1,5.1c1-0.1,2,0.1,3.4,0.1c-0.6,1.2-1,1.8-1.4,2.6c-1.3,2.9-0.9,4.1,1.9,5.7
			c0.7,0.4,1.4,1.3,1.6,2c1.5,4.8,3.5,9.5,4,14.4c0.4,4,2.3,6.7,4.7,9.4c2.4,2.8,5.5,5.2,4.6,9.8c1.7,0,3.1,0,4.5,0
			c4.8-0.1,9.7-0.9,14.3-0.1c13.8,2.3,27.4,5.2,41.1,7.7c1.5,0.3,3.4,0.5,4.7,0c6.4-2.6,12.7-1.6,19.1-0.1c5.4,1.3,11,2.3,16.6,2.6
			c4.7,0.2,8.2,1.2,10.2,5.7c1.4,3,3.8,4.6,7.1,5.3c10.2,2.2,20.4,4.5,29.3,10.5c0.9,0.6,2.3,0.6,3.4,0.4c4.8-0.8,9.6-1.8,14.6-2.8
			c0.1,1,0.3,1.7,0.2,2.4c-0.5,3,0.6,4.2,3.7,3.9c2.1-0.2,4.2,0.4,5.9,0.6c2.9-1.9,5.6-3.9,8.6-5.5c11.7-6.1,22.9-13.2,36.4-15.4
			c10.4-1.7,20.7-4.9,31.5-3c0.7,0.1,1.5-0.3,2.3-0.5c1.5-0.3,3.1-0.9,4.6-0.7c3.8,0.3,7-0.5,10.1-2.8c1.9-1.4,4.1-2.7,6.3-3.3
			c6.2-1.8,10.3-5.8,13.5-11.3c2.6-4.6,5.2-9.3,10.7-11.7c3.5-1.5,7.6-2.8,9.4-6.9c0.3-0.6,1.2-1,1.9-1.2c2.3-0.5,2.5-2.1,1.5-3.6
			c-1.2-1.8-2.8-3.3-4.3-4.9c-1.7-1.9-3.3-3.9-5-5.8c-0.4-0.4-0.5-1.2-0.9-1.5c-2.4-1.5-1.4-3.3-0.8-5.3c0.6-1.8,0.9-3.6,1.6-5.4
			c1.7-4.2,1.8-9.4,6.6-11.6c2.1-1,4.9-0.5,7.2-1c2.3-0.5,3.7,0.6,5.4,1.9c1.6,1.3,3.4,2.6,5.3,3c5,0.9,10.1,1.2,15.2,1.7
			c0.5,0.1,1.3-0.2,1.6-0.6c4.2-4.3,9.6-7.4,12.9-12.6c0.7-1.2,1.4-2.4,1.8-3.8c0.7-2.7,2.7-4.4,5.3-3.7c5,1.3,9.5-0.5,14.1-1.8
			c1.6-0.5,2.9-1.9,4.2-3.1c2.2-1.8,4.5-3.6,6.4-5.6c0.9-0.9,1.3-2.4,1.5-3.7c0.3-1.3-0.3-2.8,0.2-4c1.4-3.3,2.9-6.7,5-9.5
			c1.3-1.7,3.8-2.7,5.9-3.4c1.6-0.6,3.6-0.3,5.4-0.3c2.1,0.1,3.2-0.5,3-2.8c-0.2-2.7,0.8-4.6,4-4.7c1.2,1.2,2.3,2.8,4.4,1
			c2.4-2.1,4.8-4,7.4-5.9c0.6-0.5,1.7-0.5,2.6-0.5c3,0.2,6.1,0.7,8.2-2.3c0.2-0.3,1.1-0.2,1.6,0c1.7,0.6,3.4,1.6,5.1,1.7
			c2.8,0.2,5.7-0.4,8.6-0.5c3.4,0,5.7-2.1,4.4-5.2c-1.5-3.6-4-6.7-6.1-10c0-0.1-0.2-0.1-0.2-0.2c-3.5-2.4-7.1-4.8-10.6-7.2
			c-0.4-0.3-0.4-0.9-0.7-1.2c-1.1-1-2.1-2.1-3.4-2.8c-1.7-1-4-1.2-5.2-2.5c-2.3-2.6-4.5-4-8.2-3.8c-5.2,0.2-9.9,0.7-12.1,6.4
			c-0.4,1-1.3,1.8-1.9,2.7c-2.2,3.4-2.2,3.5-5.6,1c-3.5-2.5-7.1-3.6-11.2-1.6c-1,0.5-2.4,0.8-3.5,0.6c-3.3-0.4-5.4,0.8-6.8,3.7
			c-0.9,1.9-2.3,2.1-3.9,0.8c-1.5-1.3-3.5-2.3-4.6-3.9c-1.3-1.9-2.2-4.3-2.5-6.6c-0.1-0.8,1.8-2.2,3-2.9c1.7-1,1.6-2.3,1.4-3.8
			c-0.3-1.9-1-4-0.3-5.6c1.6-3.7,2.9-7.4,3.6-11.5c0.9-5.1,2.9-10,4.5-15c1.1-3.6,2.2-7.2,3.2-10.4c4.3,1.2,8.2,2.5,12.1,3.5
			c2.4,0.6,4.9,0.9,7.3,1.2c1,0.2,2.5,0.6,3.1,0.1c2-1.7,3.8-3.8,5.6-5.8c3.8-4.5,7.1-9.5,13.9-9.9c3.2-0.2,4.7-3,4.2-6.2
			c-0.2-1.1-0.5-2.1-0.7-3.2c-2.4-0.2-5.3,0-2.3-3.5c0.2-0.2,0.1-0.6,0.1-0.9c0-4.7,5-8,3.6-13c0-0.1,0.1-0.2,0.1-0.3
			c1.4-4.1,3.1-8,4-12.2c1.3-6.3,3.7-12,8.6-16c2.8-2.3,2.4-5,2.9-7.6c0.2-0.9-0.6-2.5-1.4-3.1c-1.5-1.2-1.8-2.3-1.5-4.1
			c0.6-3.4-1.7-5.3-5.2-4.3c-1,0.3-2,0.9-3,1.3c-1.5,0.6-3.2,0.8-3.6-1.3c-0.4-1.9-1.2-4,1.4-5.5c1.2-0.7,1.9-2.3,2.7-3.5
			c1.9-2.9,3.9-5.8,5.6-8.8c1.2-2.2,3.1-2.7,5.3-3.2c2.4-0.6,4.9-1.4,7.1-2.5c4.1-2,8-4.2,12.1-6.3c0.3-0.2,0.7-0.1,1.1-0.2
			c3.3-0.7,6.6-1.1,9.8-2.1c2.3-0.7,4.4-2.1,6.6-3.1C974.9,14,976.3,13.8,977.6,13.4z"/>
	</defs>
	<clipPath id="SVGID_00000160898458997456073440000017695099098954223010_">
		<use xlink:href="#SVGID_1_"  style="overflow:visible;"/>
	</clipPath>
	<g id="D0o2mV.tif" style="clip-path:url(#SVGID_00000160898458997456073440000017695099098954223010_);">
		
			<image style="overflow:visible;" width="456" height="461" id="Layer_0_00000063629918511731098920000003341769415698409604_" xlink:href="21D4E944.png"  transform="matrix(0.6329 0 0 0.6329 422.7354 640.6277)">
		</image>
	</g>
</g>
</svg>
