<?xml version="1.0" encoding="utf-8"?>
<!-- Generator: Adobe Illustrator 26.5.0, SVG Export Plug-In . SVG Version: 6.00 Build 0)  -->
<svg version="1.1" id="cover-mob" xmlns="http://www.w3.org/2000/svg" xmlns:xlink="http://www.w3.org/1999/xlink" x="0px" y="0px"
	 viewBox="0 0 358 286" style="enable-background:new 0 0 358 286;" xml:space="preserve">
<style type="text/css">
	.st0{fill:#363636;}
	.st1{fill:#310DE8;}
	.st2{fill:#FFFFFF;}
	.st3{fill:#FFE48A;}
	.st4{font-family:'Montserrat-Bold';}
	.st5{font-size:3.9696px;}
	.st6{clip-path:url(#SVGID_00000166676754100845551800000002930371372841468592_);}
	.st7{clip-path:url(#SVGID_00000097461630277541102920000009065950813892624779_);}
	#bigStar{ animation: fadeInLeft 1s; }
	#smStar1{ animation: fadeInLeft 1s; }
	#smStar2{ animation: fadeInLeft 1s; }
	#smStar3{ animation: fadeInLeft 1s; }
	#smStar4{ animation: fadeInLeft 1s; }
	<!-- .leaders{ animation: fadeIn 1s; } -->
	@keyframes fade-in {
		0% {
			opacity: 0;
		}
		100% {
			opacity: 1;
		}
	}
	@keyframes fadeInLeft {
		0% {
			opacity: 0;
			transform: translateX(-20px);
			transform-origin: 50% 50%;
		}
		100% {
			opacity: 1;
			transform: translateX(0);
			transform-origin: 50% 50%;
		}
	}   

</style>
<g id="lyecIh.tif_00000009556815476168901470000006377584118314713736_">
	<g>
		<path class="st0" d="M273.1,2.1c0.1,0,0.2,0,0.3,0c0.3,0.1,0.5,0.2,0.8,0.3c0.4,0.1,0.8,0.2,1.1,0.3c0.8,0.3,1.7,0.2,2.3,1
			c0,0.1,0.2,0,0.3,0c0.8,0,1.7,0.4,2.4-0.4c0.1-0.1,0.5-0.2,0.6-0.1c1,0.7,2.7-0.1,3.4,1.5c0.2,0.5,1.2,0.6,2,0.8
			c-0.1,0.4-0.2,0.8-0.3,1.2c1.4,0,1.8,1.4,2.7,2.1c-0.1,0.2-0.2,0.3-0.4,0.6c1,0,1.6,0.3,1,1.4c-0.1,0.1,0.2,0.4,0.3,0.5
			c0.4,0.8,1.7,1,1.6,2.3c0,0,0.1,0.1,0.1,0.1c0.5,0.5,1.1,1,1.6,1.5c0.1,0.1,0.1,0.4,0.1,0.5c-0.2,1,0.3,1.5,1,2
			c0.5,0.4,1.2,0.8,1.5,1.4c0.3,0.5,0.9,1,0.8,1.8c-0.1,0.5,0.1,1.5,1.1,1.6c0.7,0,0.6,0.6,0.6,1.1c0,0.4,0.1,0.8,0.1,1.2
			c0.1,0.7,0.6,0.9,1.1,1.3c1,0.8,2.1,1.1,3.3,0.5c0.6-0.3,1.1-0.6,1.7-0.8c0.2-0.1,0.8,0,0.8,0.1c0.1,0.7,0.7,0.4,1,0.6
			c0.3,0.1,0.5,0.3,0.6,0.4c0.4-0.1,1,0,1.1-0.2c0.7-1.2,1.1-0.5,1.5,0.2c0,0,0,0,0.1,0c1.1-0.1,1.6,0.9,2.3,1.4
			c0.6,0.4,1.3,0.6,2,0.7c0.6,0,1.3-0.3,2-0.4c-0.1,0.6-0.1,1-0.2,1.5c-0.2,0.7,0.5,1.3,0.8,1.2c0.9-0.1,0.7,0.7,1,1
			c0.3,0.3,0.3,1,0.1,1.4c-0.3,0.6,0,0.9,0.4,1.2c0.5,0.4,1,0.8,1.4,1.3c0.4,0.7,0.5,0.8,1.3,0.3c0.5-0.3,1.1-0.7,1.6-0.6
			c1.3,0.1,2.4-0.5,3.5-0.9c0.4-0.1,0.8-0.3,1.2-0.5c0.2-0.1,0.5-0.2,0.5-0.3c0.1-0.4,0-0.9,0.1-1.4c0-0.2,0.2-0.4,0.3-0.5
			c0.2-0.2,0.5-0.3,0.6-0.5c0.6-0.9,1.2-1.6,2.4-1.6c0.2,0,0.6-0.1,0.6-0.3c0.5-1.4,1.9-2,2.9-2.8c0.3-0.2,0.7-0.3,1.1-0.3
			c0.6,0,1.2,0.1,1.8,0.2c0,0.5,0.1,1,0,1.4c-0.3,0.6-0.1,1,0.4,1.4c0.7,0.6,1.4,1.2,0.9,2.3c-0.3,0.7-0.2,1.6-1.2,1.8
			c-0.6,0.2-0.7,1.1-0.4,1.7c0.2,0.3,0.4,0.7,0.3,0.9c-0.6,0.9-0.3,1.8-0.1,2.7c0.1,0.4,0,0.9-0.1,1.4c-0.1,0.5-0.3,0.8,0.2,1.3
			c0.5,0.4,0.4,1.4,0.1,1.9c-0.2,0.3-0.2,0.6-0.2,0.9c-0.1,0.6-0.2,1.2-0.3,1.8c0,0.2-0.2,0.4-0.1,0.6c0.3,1.1,0.2,1.9-0.8,2.6
			c-0.2,0.1-0.3,0.6-0.2,0.9c0.1,0.5,0.2,1,0.4,1.5c0.3,0.8-0.3,1.6-1.1,1.6c-1.5,0-3,0-4.4,0c-0.5,0-1-0.2-1.6-0.3
			c-0.1,0.5-0.2,1.2-0.5,1.8c-0.2,0.5-0.4,1.2-1.1,1.5c-0.7,0.3-1.2,0.9-1.6,1.2c0.8,1.3,1.4,2.5,2.1,3.6c0.7,1.1,1,2.3,1.1,3.7
			c0.1,0.8,0.4,1.6,0.8,2.3c0.3,0.4,0.6,0.6,0.5,1.1c-0.1,0.9-0.2,1.8-0.2,2.7c0,1.3,0,1.2-1.1,1.7c-0.7,0.3-1.3,0.8-2,1.3
			c0,0.1,0.1,0.2,0.1,0.2c0.1,0,0.2,0,0.3,0c0.3,0.2,0.6,0.4,0.9,0.7c0.1,0.1-0.1,0.5-0.2,0.5c-0.3,0-0.7-0.1-1-0.2
			c-0.8-0.3-1.5-0.9-1.5-1.8c-0.4-0.1-0.8-0.3-1.1-0.3c-0.3,0-0.8,0.2-0.9,0.4c-0.2,0.4-0.2,1-0.1,1.4c0.4,1.2,0.5,2.3-0.6,3.2
			c-0.9-0.3-1.4,0-1.4,0.7c0,1.5-0.6,2.5-2.1,2.9c-0.3,0.1-0.5,0.3-0.8,0.4c-0.4,0.1-0.8,0.2-1.2,0.3c-0.5,0.1-1,0.3-1.5,0.5
			c-0.1,0.1-0.3,0.6-0.2,0.7c0.4,0.5,0.8,1,1.3,1.3c0.7,0.5,0.9,1.3,0.3,2.2c-0.5,0.8-1,0.2-1.5,0c-0.1,0.1-0.3,0.3-0.4,0.3
			c-1.4,0.1-2.8,0.2-4.2,0.3c-0.1,0-0.2-0.2-0.2-0.3c-0.7-1.4-0.8-1.4-2-0.6c-0.1,0.1-0.3,0.1-0.4,0.3c-0.2,0.2-0.4,0.4-0.4,0.6
			c-0.1,0.7,0,1.4,0,1.8c-0.3,0.5-0.5,0.8-0.7,1.2c-0.4,1-0.8,2-1.3,2.9c-0.1,0.2-0.4,0.3-0.6,0.4c-0.3,0.2-0.9,0.3-0.9,0.4
			c-0.1,0.8-0.8,1-1.1,1.5c-0.2,0.3-0.6,0.4-0.8,0.6c-0.4,0.5-1.3,0.5-1.2,1.5c0,0.1-0.2,0.2-0.4,0.4c-0.3,0.2-0.7,0.4-0.9,0.7
			c-0.2,0.2-0.3,0.6-0.5,0.8c-0.6,0.8-1.4,1.4-1.3,2.5c0,0.3-0.2,0.6-0.4,0.9c-0.8,1.2-2.2,1.2-3.2,1.2c-0.6,0.4-1.1,1.1-1.5,1
			c-0.5-0.1-0.7-0.2-0.7,0.4c0,0.1-0.2,0.4-0.4,0.4c-0.6,0.1-0.9,0.4-1.4,0.7c-1.3,1-2.7,1.9-3.6,3.3c-0.2,0.3-0.1,0.7-0.3,1
			c-0.5,0.7-1,1.2-1.4,1.8c-0.4-0.1-0.7-0.1-1.3-0.2c0.5,0.7,0.9,1-0.1,1.3c-0.8,0.2-1.4,0.9-2.1,1.3c-0.2,0.1-0.6-0.1-0.8-0.3
			c-0.1-0.1-0.1-0.5-0.2-0.7c-0.3-0.5-0.1-0.7,0.4-0.9c0.3-0.1,0.5-0.4,0.7-0.5c0.2-0.1,0.3-0.3,0.5-0.3c0.5-0.2,0.9-0.4,1.6-0.6
			c-1.2-0.7-0.9-1.3-0.1-2c-0.9,0.1-1.5,0.3-2.1,0.3c-0.3,0-0.6,0-0.9-0.2c-0.1-0.1,0-0.5,0.1-0.7c-0.2-0.1-0.3-0.1-0.7-0.3
			c0.4-0.4,0.8-0.6,1.1-0.9c0.2-0.2,0.4-0.6,0.3-0.7c-0.4-0.7-0.1-1.1,0.4-1.5c0.5-0.4,1-0.6,1.3-1.4c0.5-1.4,1.3-2.6,2-3.9
			c-0.4-0.2-0.8-0.3-0.9-0.6c-0.9-1.1-1.9-1.5-3.3-1.1c-0.1,0-0.4,0-0.5,0c-0.7-0.5-1.4-0.2-2.1,0c-0.4,0.1-0.7,0.7-1,1.1
			c0.2,0.1,0.3,0.3,0.6,0.5c-1.1,0.3-1.5,1.2-1.9,2c-0.5,1.1-0.5,2.4-1.9,3c-1.1,0.5-1.9,1.5-2.9,2c-1,0.5-1.2,1.5-1.9,2.1
			c-0.1,0.1-0.1,0.3-0.1,0.5c0,0.6,0.1,1.3-0.1,1.9c-0.4,0.9-1,1.7-1.5,2.3c-0.8,0-1.5,0-2.1,0c-0.1,0-0.2,0.1-0.2,0.2
			c-0.3,0.3-0.5,0.5-0.8,0.8c-0.4,0.5-0.9,0.3-1.2-0.1c-0.4-0.7-1-0.9-1.7-0.5c-0.6,0.3-1.2,0.6-0.9,1.5c0,0.1-0.1,0.3-0.2,0.5
			c-1.2,2-0.3,3.9,1.6,4.9c1.1,0.6,2.2,0.6,3.3,0.6c0.3,0,0.7,0.1,1,0c0.5-0.1,1.1-0.7,1.5-0.6c0.5,0.1,0.9,0.7,1.2,1.2
			c0.3,0.4,0.3,0.9,0.6,1.3c0.3,0.5,0.4,0.8,0,1.3c-0.6,0.7-0.1,2.3,0.6,2.8c1.1,0.7,2.2,0.5,3.4,0.3c1.1-0.3,1.5-0.8,1.1-1.8
			c0.4-0.3,0.9-0.7,1.3-1c0.4-0.4,0.8-0.9,1.2-1.3c-0.3-0.1-0.5-0.2-0.7-0.3c0.6-0.4,1.2-0.7,1.7-1c0.3-0.2,0.6-0.4,0.9-0.5
			c0.6-0.3,1.2-0.7,2,0c0.4,0.4,1.3,0.2,1.4,1.2c0.4-0.2,0.7-0.2,0.9-0.4c0.4-0.5,0.5-0.1,0.7,0.2c0.2,0.3,0.5,0.6,0.8,0.6
			c0.6,0,1.3-0.2,1.9-0.4c0.2-0.1,0.4-0.3,0.7-0.4c0.2-0.2,0.5-0.4,0.7-0.6c0.1,0.2,0.3,0.5,0.5,0.8c0.9-0.1,1.9-0.2,2.8-0.3
			c0.1,0,0.2,0.1,0.3,0.2c0,0.1,0,0.3-0.1,0.4c-0.7,0.2-0.3,0.7-0.2,0.9c0.2,0.5,0.1,0.8-0.3,1c-0.2,0.1-0.2,0.3-0.4,0.6
			c0.3,0.1,0.5,0.1,0.6,0.1c0.1,0.8-0.4,1.8-1.1,1.9c-0.5,0.1-1,0.1-1.2-0.6c-0.3,0.2-0.5,0.3-0.7,0.5c-0.1-0.2-0.2-0.4-0.3-0.6
			c-0.7,0.7-1.4,1.3-2.2,2.1c-1.6,0.5-3.4,1.2-3.6,3.7c-0.1,0-0.2,0-0.3,0c-0.1-0.2-0.2-0.5-0.3-0.7c-0.1,0-0.2,0.1-0.3,0.1
			c0,0.6-0.1,1.2,0,1.7c0.2,0.5,0.1,0.8-0.4,1c-0.8,0.3-1.5,0.8-2,1.6c-0.4,0.6-1.2,0.8-1.3,1.8c0,0.3-0.3,1.3-1.2,1.4
			c-0.8,0.1-0.8,0.8-1,1.4c-0.3,0.9-1.1,1.5-0.9,2.6c0,0.1-0.1,0.2-0.2,0.3c-1,0.3-0.7,1.1-0.7,1.7c0,0.5,0.2,0.8,0.8,0.6
			c0.3-0.1,0.9,0,1,0.2c0.7,1.2,1.8,1.2,2.9,1.4c1.4,0.4,2.7,0.8,3.4,2.4c0.6,1.5,1.6,2.9,2.5,4.4c0.1,0.2,0.2,0.3,0.3,0.5
			c0.5,0.8,0.9,1.7,1.6,2.4c0.6,0.6,0.7,1.3,0.6,2c-0.1,0.8,0,1.2,0.8,1.4c0.6,0.2,1.2,0.3,1.9,0.5c1,0.2,1.6,0.7,1.4,1.5
			c-0.1,0.7,0.2,0.7,0.7,0.8c1.5,0.2,2.5,1,3,2.4c0.2,0.5,0,0.8-0.5,0.7c-0.7,0-1.3-0.1-2-0.2c0.1,0.1,0.2,0.3,0.3,0.4
			c0.6,0.2,1.3,0.3,1.9,0.6c0.2,0.1,0.4,0.4,0.5,0.5c-0.2,0.2-0.5,0.5-0.7,0.4c-1.5-0.2-3.1-0.5-4.2-1.8c-0.1-0.2-0.6-0.3-0.7-0.3
			c-0.7,0.4-1-0.1-1.5-0.5c-0.8-0.8-2-1-2.9-0.5c0.5,0,0.8,0.2,1.1,0.1c0.9-0.2,1.2,0.4,1.3,1c0.1,0.6,0.3,0.6,0.7,0.5
			c1-0.1,1.8,0.3,2.6,0.8c0.7,0.4,1.3,0.9,2,1.3c0.4,0.2,0.9,0.4,1.4,0.5l0,0c0.5,0.7,1,1.3,1.4,2c0.6,0.9,0.3,1.3-0.7,1.5
			c-0.8,0.1-1.5,0.4-2.1,1.1c-0.5,0.7-1.3,1.1-1.9,1.7c-0.3,0.3-0.6,0.6-0.6,0.9c-0.1,1.1-0.5,1.4-1.5,1.1c-0.6-0.2-1.7,0.1-2,0.8
			c0.6-0.3,1-0.5,1.3,0.2c0.4,0.8,1.1,0.9,1.8,0.4c0.4-0.3,0.8-0.7,1.2-1c0.8-0.8,1.5-0.9,2.4-0.4c0.6,0.3,1.1,0.8,1.7,1.2
			c0.3,0.2,0.7,0.4,1.2,0.6c0.1-0.5,0.1-0.8,0.2-1.2c0.9,0.2,0.7,0.6,0.5,1c0.6,0,1.1,0,1.9,0c-0.6,1-1.9,1.2-1.9,2.2
			c0.5,0.2,1,0.3,1.1,0.5c0.4,0.7-0.1,1.7,0.6,2.4c0.2,0.2,0.1,0.8,0,1.3c0,0.1-0.2,0.4-0.3,0.4c-0.5-0.1-1.1,0-1.1-0.9
			c-0.5,0.2-1.1,0.6-1.4-0.2c-0.1,0.4-0.3,0.6-0.4,1c1-0.2,1.2-0.1,1.7,0.9c0.1,0.2-0.1,0.6-0.1,1c0.4,0.5,0.3,0.8-0.8,1.6
			c0.4,0.7,0.6,1.5,1.1,2c0.7,0.6,0.3,0.8,0,1.1c-0.3-0.1-0.7-0.3-0.8-0.3c-0.2,0.2-0.5,0.6-0.5,0.9c0,0.6-0.3,0.6-0.7,0.5
			c0.2,0.7,0,1-0.9,1c-0.1-0.2-0.2-0.5-0.4-0.9c-0.4,0.7-0.6,1.3-0.9,1.9c0,0,0,0,0,0c-0.5,1.1-0.9,2.2-1.3,3.2
			c0.2,0.3,0.5,0.5,0.5,0.7c0,0.3-0.3,0.6-0.4,0.9c0,0.9-0.3,1.8-1.1,2.2c-0.6,0.3-0.6,0.6-0.7,1.1c0,0.2-0.2,0.4-0.4,0.6
			c-0.2,0.2-0.5,0.3-0.6,0.4c0.3,0.5,0.5,0.8,0.6,1.2c0.1,0.2-0.1,0.6-0.2,0.7c-0.6,0.4-1.2,0.8-2,1.3c0.5,0.3,0.9,0.6,1.3,0.8
			c-0.4,0.3-0.8,0.6-1.2,0.8c-0.9,0.4-1.1,1.1-0.4,1.9c0.8,0.8-0.6,1.6-0.1,2.5c0,0.1-0.2,0.3-0.3,0.5c-0.1,0.1-0.3,0.1-0.3,0.1
			c0,0.1,0,0.3,0.1,0.4c0.4,0.2,0.7,0.4,1.1,0.5c0.1-0.4,0.2-0.8,0.4-1.3c0.4,0.2,0.8,0.4,1.3,0.6c-0.2,0.4-0.5,0.7-0.6,1.1
			c-0.2,0.5-1,0.2-1,0.9c0,0-0.3,0.1-0.5,0.1c-0.7,0-1-0.6-1.4-1.1c-0.1,0.3-0.2,0.6-0.3,1c-0.5-0.5-0.9-0.4-1.1,0.1
			c0.6,0.3,1.2,0.5,2,0.9c-0.6,0.5-1.1,0.8-1.5,1.1c-0.3,0.2-0.5,0.4-0.8,0.4c-0.1,0-0.3-0.4-0.4-0.6c-0.2,0.3-0.4,0.7-0.6,1.1
			c0.3-0.1,0.5-0.1,0.8-0.2c0.3,1.2,0.3,1.3-0.9,1.6c-0.3,0.1-0.5,0.2-0.7,0.4c0.5,0.7,0,2.1-0.9,2.6c-0.2-0.2-0.5-0.6-0.6-0.6
			c-0.6,0.3-1.3,0.6-1.8,0.9c-0.3,0.2-0.5,0.6-0.8,1c0.1,0.2,0.4,0.5,0.5,0.6c-0.8,1.2-1.6,2.3-2.2,3.2c-0.3,0.1-0.5,0.1-0.7,0.1
			c0.2,1-0.4,1.6-1.1,2.2c0,0-0.1,0.1-0.1,0.1c0.2,1-0.6,0.4-0.9,0.6c0-0.5,0-0.9,0-1.3c-0.1,0-0.2,0-0.2,0c0,0.3-0.1,0.7-0.1,1
			c-0.9,0-1.3,1.2-2.4,1c0.1-0.2,0.2-0.4,0.3-0.6c-0.4,0.6-0.8,1.3-0.9,2c-0.1,0.3,0.1,0.7,0.2,1.1c-0.8-0.1-1.7,0.5-1.6,1.2
			c0.1,0.9-0.2,1.4-1.1,1.4c-0.7,0-1,0.2-1.3,0.7c-0.1,0.1-0.2,0.2-0.4,0.3c-0.7,0.3-1.5,0.6-2.2,0.8c-0.3-0.3-0.7-0.6-1.1-0.9
			c-0.1,0-0.2,0.1-0.3,0.1c0,0.6-0.1,1.2-0.1,1.8c-0.5-0.1-0.8,0-1.2-0.2c-0.3-0.1-0.5-0.4-0.8-0.5c-0.4-0.2-1.6,0.2-1.9,0.6
			c-0.3,0.5-0.7,1-1,1.5c-0.2-0.1-0.4-0.3-0.6-0.3c-0.5,0.1-0.6-0.2-0.7-0.6c0-0.2,0-0.5-0.1-0.7c-0.9,0.4-1,1-0.3,2
			c-0.3,0.2-0.6,0.4-1,0.6c-0.1-0.3-0.2-0.5-0.3-0.6c-0.3-0.2-0.7-0.4-1-0.4c-1.1,0.4-2.1,0.8-3.2,1.3c-0.5-1.8-1.1-2.2-2.7-1.9
			c0.2,0.8,0.4,1.6,0.6,2.4c0,0.1,0,0.1,0.1,0.2c0.6,1.1,0.3,1.7-0.9,2c-0.1,0-0.2,0.1-0.2,0.1c0.1,0.4,0.2,0.8,0.4,1.1
			c-1.6,0.1-2.3-0.3-2.6-1.1c-0.2,0.3-0.4,0.7-0.3,1.1c0.1,0.6,0.2,1.1-0.4,1.3c-0.3,0.1-0.7-0.2-1.3-0.3c-0.7,0.3-0.9,2.2-2.2,1.2
			c-0.6,0.3-0.9,0.7-1.3,0.8c-0.3,0-0.7-0.3-1.2-0.6c-0.3,0.2-0.8,0.4-1.4,0.8c0.4,0.2,0.6,0.3,0.8,0.4c0,0.1,0,0.1,0,0.2
			c-0.6,0-0.9,1.1-1.8,0.4c-0.1-0.1-0.4,0.1-0.6,0.2c-0.4,0.2-0.7,0.5-1.1,0.6c-0.6,0.1-1.2,0.1-1.6,0.6c-0.1,0.1-0.4,0-0.6-0.1
			c-1.1-0.2-1.9,1-3.1,0.8c-0.1,0-0.3,0.1-0.3,0.2c-0.5,0.9-1.2,1.8-1.2,2.8c0.3,0.2,0.5,0.3,0.6,0.4c0,0-0.1,0.4-0.2,0.4
			c-0.2,0-0.5-0.1-0.6-0.2c-0.4-0.3-0.7-0.7-1.3-0.5c-0.4,0.1-0.8,0.1-1.3,0.2c0.1,0.2,0.3,0.7,0.3,0.7c1.4-0.5,1.6,0.6,1.9,1.4
			c0.3,0.5,0.7,1.2,0.6,1.7c-0.1,0.8-0.8,1.6-1.9,1.6c-0.8,0.1-1.7,0.1-2.5,0.2c-0.1-0.5-0.3-1-0.5-1.8c-0.2-0.3-0.6-0.7-0.8-1
			c-0.1-0.6-0.1-1-0.4-1.3c-0.3-0.5-0.7-2.4-0.4-2.8c0.2-0.5,0.5-1,0.7-1.6c0.7-0.1,0.7-0.1,0.8-0.8c-0.8,0.3-1.6,0.3-2.2-0.7
			c-1.1,1.6-2.2,3-3.2,4.4c-0.1,0.1-0.2,0.1-0.6,0.2c0.9-1.2,1.7-2.3,2.4-3.3c-0.1-0.1-0.1-0.1-0.2-0.2c-0.5,0.2-0.9,0.4-1.4,0.4
			c-0.3,0-0.7-0.2-1.1-0.3c0.2-0.2,0.4-0.5,0.5-0.7c0,0,0-0.1,0.1-0.3c-1-0.1-2-0.2-3-0.2c-0.2-0.2-0.5-0.5-0.7-0.7
			c-0.5,0.5-0.8,1.1-1.3,1.3c-0.9,0.4-0.2-0.8-0.5-0.8c-0.4,0.5-0.7,1-1.1,1.4c-0.1,0-0.1-0.1-0.2-0.1c0-0.2,0-0.3,0-0.7
			c-0.6,0.5-1.1,0.9-1.7,1.4c-0.3-1.2-1.2-1.7-2.3-1.4c-0.1,0-0.3,0.1-0.4,0.1c-0.7,0-1.3,0-1.7,0c-0.9-0.5-1.6-1-2.3-1.3
			c-0.6-0.2-0.8-0.4-0.5-1c-0.9-0.2-1.7-0.3-2.6-0.5c0,0,0-0.2,0-0.3c-0.2-0.8,0.3-1.7-0.7-2.3c-0.7-0.4-0.1-1.3,0-1.9
			c0-0.2,0.5-0.2,0.8-0.4c0,0,0.1-0.2,0.2-0.4c0.2-0.6,0.1-0.8-0.6-1.2c-0.8-0.4-1.4-0.1-2.1,0c-0.3,0.1-0.8,0-0.9-0.1
			c-0.5-0.9-1.1-0.9-1.8-0.4c-0.2,0.1-0.5,0.2-0.6,0.2c-0.9-0.4-1.8-0.8-2.6-1.4c-0.7-0.5-1.1-1.3-1.6-2c0,0.1-0.1,0.2-0.1,0.3
			c-0.4,0.2-0.8,0.4-1.2,0.6c-0.6,0.3-1.1,0.5-1.7,0.9c-0.2,0.1-0.3,0.4-0.3,0.6c0,1.2-0.5,1.8-1.7,1.9c-0.3,0-0.6,0.1-0.8,0.3
			c-1,0.8-1.4,0.7-2.1-0.3c-1.6,0-0.9,1.7-1.8,2.5c-0.7-0.8-1.3-1.6-2.2-2.6c-0.2,0.6-0.3,0.9-0.5,1.3c-0.1,0.2-0.3,0.4-0.5,0.5
			c-0.1,0-0.4-0.2-0.5-0.3c-0.2-0.4-0.4-0.8-0.7-1.2c-0.5,0.7-0.9,1.3-1.4,1.9c-0.6,0.9-1.6,1-2,0.1c-0.4-0.7-1-0.9-1.7-1.3
			c-0.4-0.2-0.8-0.3-1.2-0.5c-0.4,0.6-1,1.2-1.4,1.9c-0.4,0.7-0.8,0.8-1.5,0.4c-0.3-0.1-0.8-0.1-1.1,0.1c-0.5,0.4-0.6,0.1-0.8-0.2
			c-0.1-0.2-0.3-0.3-0.5-0.4c-0.1,0.2-0.3,0.4-0.4,0.6c-0.2,0.4-0.5,0.8-0.7,1.2c-0.1,0-0.2,0-0.3,0.1c0.5,0.9,1,1.9,1.5,2.8
			c0.1,0.1,0.1,0.3,0.2,0.4c0.1,0.5,0.2,1,0.3,1.6c0.1-0.1,0,0-0.1,0.1c-0.5,0.6-0.5,1.7,0,2.2c0.1,0.1,0.2,0.5,0.1,0.7
			c-0.2,0.3-0.4,0.8-1,0.4c-0.8-0.5-1.7-1.1-2.7-0.3c-0.1,0.1-0.7-0.3-0.8-0.6c-0.2-0.9-0.2-1.8-0.4-2.7c-0.1-0.4-0.2-0.8-0.3-1.4
			c-1.1,0.7-1.9,1.3-2.8,2c-0.6,0.5-1.4,0.8-2,0.3c-0.5-0.4-0.8-0.4-1.3-0.1c-0.2,0.2-0.8,0.3-0.9,0.1c-0.3-0.3-0.4-0.7-0.5-1.1
			c0-0.1,0.1-0.3,0.1-0.5c-1.2-0.3-1.5-0.8-1.1-2c0.1-0.3,0-0.6,0-0.8c-2-0.4-3.9-0.7-5.8-1.1c0.5-0.9,0.8-1.7,1.3-2.2
			c0.4-0.4,0.7-0.9,0.5-1.4c-0.2-0.7-0.2-1.2,0.4-1.8c0.2-0.2,0.2-0.5,0.3-0.9c0.2,0,0.4,0.1,0.6,0.1c0.1-0.1,0.1-0.1,0.2-0.2
			c-0.4-0.4-0.8-0.7-1.2-1c-1.5,0.8-2.3-0.7-3.6-0.7c0.2-0.9,0.6-1.8-0.3-2.4c-0.1-0.1-0.1-0.4,0-0.5c0.4-0.7,0.2-1.3-0.5-1.6
			c-0.2-0.1-0.3-0.3-0.3-0.5c0-0.6-0.1-1.3,0.8-1.6c0.2-0.1,0.4-0.3,0.6-0.4c-0.4-0.1-0.8,0-1.1,0c-0.3,0-0.6,0.2-0.8,0.1
			c-1.3-0.5-2.5-0.5-3.7,0c-1,0.4-2,1-3,1.5c-0.2-0.3-0.5-0.6-0.9-0.9c0.5-0.4,0.9-0.8,1.3-1.1c0.8-0.7-0.4-1.5,0-2.2
			c-0.3-0.1-0.6-0.3-1-0.4c0.1-0.4,0.2-0.9,0.2-1.3c0.1-1.2,0.3-1.5,1.6-1.8c-0.3-0.8,0.4-3,1-3.1c0.2,0.1,0.4,0.2,0.5,0.3
			c1.4-0.5,1.3-1.8,1.8-2.8c1.3,0.4,1.3,0.4,2-0.8c0.1-0.2,0.2-0.4,0.3-0.5c0.2-0.1,0.4-0.2,0.6-0.2c0.2,0,0.5,0,0.7,0
			c-0.1-0.3-0.2-0.5-0.3-0.8c-0.1-0.4-0.3-0.9-0.4-1.3c0.3-0.1,0.6-0.2,0.9-0.3c0,0,0.1-0.1,0,0c0-0.5-0.2-0.9-0.1-1.2
			c0.6-1.2,0.7-2.5,0.6-3.8c-0.1-0.9-0.2-1.9-0.2-2.8c0-1,0.1-1.9,0.2-2.8c-0.6-0.3-1-0.6-1.5-0.8c-0.1,0.3-0.1,0.5-0.3,0.7
			c-0.2,0.4-0.8,0.4-0.9,0c-0.3-1.3-0.6-2.6-0.9-3.9c-0.1-0.3-0.3-0.7-0.5-1c-0.1-0.2-0.3-0.3-0.4-0.5c-0.2-0.4-0.4-1-1.1-0.8
			c-0.1,0-0.4-0.2-0.4-0.3c-0.1-0.8-0.7-0.9-1.2-1c-0.5,0.8-1,1.5-1.5,2.3c-0.4-0.4-0.7-0.6-0.9-0.8c-0.4-0.4-0.7-0.7-1.4-0.5
			c-0.5,0.1-1.2-0.1-1.7-0.5c-0.9-0.6-1.5-0.7-2.4,0.1c-0.4-0.2-0.8-0.3-1.2-0.5c0.6-0.6,1.1-1.3,1.6-1.8c0.2-0.2,0.3-0.4,0.5-0.5
			c0.5-0.2,0.5-0.4,0.2-0.8c-0.3-0.5-0.4-1-0.7-1.7c-0.4,0.3-0.9,0.6-1.3,0.9c-0.1,0.1-0.4,0.1-0.5,0.1c-0.1,0-0.1-0.3-0.1-0.4
			c0-0.4-0.1-0.7-0.1-1.1c0.5-0.2,1-0.5,1.3-0.7c-0.5-0.7-1-1.3-1.4-1.9c-0.4,0.1-0.8,0.2-1.2,0.3c-0.9,0.4-1.9,0.6-2.4,1.6
			c-0.5,0.9-1.2,0.9-2,0.5c-1-0.5-2-0.9-3-1.3c-0.2-0.3-0.3-0.7-0.6-0.8c-0.2-0.1-0.6,0.2-0.9,0.4c-0.2,0.1-0.3,0.1-0.5,0.1
			c-0.7,0.2-1.5,0.4-1.9,1.1c-0.3,0.5-1.2,0.5-1.2,1.3c-1.1,0.3-2,1.3-3.4,1.1c-1.5-0.3-1.9,0.2-2.8,1.4c-0.6,0.8-1.7,1.2-2.6,1.8
			c-0.3,0.2-0.6,0.2-0.9,0.3c0.4,0.7,0.3,1.1-0.2,1.4c-0.9,0.5-1.9,1-3,0.7c-0.4-0.1-0.9,0.1-1.3,0.2c-0.4,0-0.8,0.1-1.2,0
			c-0.5-0.1-1-0.3-1.6-0.5c0-0.4,0.1-0.8,0.2-1.2c-0.6-0.3-1.3-0.6-1.8-1c-0.5-0.4-0.8-0.4-1.3,0c-0.3,0.2-0.9,0.3-1.1,0.1
			c-0.9-0.7-1.9-1-3.1-1.1c-1.4-0.1-1.4-0.2-1-1.5c-0.7-0.3-1.4-0.6-2.1-0.7c-0.5-0.1-1,0.2-1.5,0.3c-0.4,0.1-0.7,0.3-1.1,0.4
			c-0.3,0.1-0.6,0.1-0.8,0.3c-0.6,0.5-1,1.2-1.6,1.5c-0.9,0.5-1.5,1.1-1.8,1.9c0,0.1-0.1,0.2-0.2,0.2c-0.9,0.2-1.3,0.9-1.6,1.6
			c-1.2-1.1-1.2-1.5-0.4-2.8c1-1.6,0.7-2.6-0.5-3.2c-1.3,0.2-2.4,0.4-3.5,0.6c0,0.1-0.1,0.3-0.1,0.5c-0.2-0.1-0.3-0.2-0.4-0.2
			c-0.5-0.1-1.3-0.5-1.6-0.2c-0.6,0.5-1.2,0.2-1.7,0.2c-0.4,0-0.8-0.1-1.1-0.2c-0.8-0.3-1.9-0.1-2.4-1.2c-0.1-0.2-0.4-0.2-0.5-0.3
			c-0.6-0.4-1.2-0.8-1.7-1.3c-0.4-0.3-0.8-0.1-1.1,0.4c-0.1,0.2-0.7,0.5-0.9,0.4c-0.7-0.4-1.6-0.7-1.6-1.8c-0.2,0.4-0.1,0.7-0.2,1
			c-0.1,0.2-0.3,0.5-0.5,0.6c-0.2,0-0.7-0.2-0.7-0.3c-0.1-1.2-0.6-2.2-1.2-2.9c-1.4-0.4-2.7-0.7-3.9-1.1c-0.1,0-0.2-0.3-0.1-0.4
			c0.2-0.6,0.5-1.1,0.8-1.9c-0.3,0-0.7-0.1-1,0.1c-0.6,0.4-1.1,0.2-1.5-0.2c-0.4-0.4-0.9-0.9-1.3-1.3c-0.6-0.7-1.2-1.3-1.8-2
			c-0.1-0.1,0.1-0.4,0-0.6c-0.1-0.7-0.2-1.4-0.4-2c-0.2-0.5-2-0.6-2.6-0.3c-0.5,0.3-1.1,0.2-1.2-0.3c-0.1-0.4-0.2-0.7-0.4-1.1
			c-0.3-0.5-0.7-1-0.8-1.6c-0.1-0.7-0.4-1-0.9-0.8c-0.4-0.3-0.7-0.6-1.1-0.9c-0.3-0.2-0.7-0.3-0.8-0.6c-0.8-1.4-1.7-2.7-3.2-3.3
			c-0.1-0.1-0.3-0.2-0.3-0.4c0-0.6,0-1.2,0-1.7c-0.8-0.4-1.6-0.8-2.4-1.1c-0.2-0.1-0.5-0.1-0.7-0.1c-0.3,0-0.7,0.1-0.9,0.1
			c-0.5,0.6-0.9,1.2-1.5,1.7c-0.2,0.2-0.6,0.4-0.8,0.3c-0.3-0.1-0.6-0.5-0.6-0.8c-0.2-0.8-0.3-1.6-1.2-2c-0.2-0.1-0.3-0.4-0.4-0.6
			c-0.2-0.3-0.4-0.6-0.7-0.8c-0.4-0.4-0.9-0.7-1.4-1c-0.3-0.2-0.7-0.4-1-0.6c0-0.2,0-0.5,0.1-0.7c0.1-0.2,0.3-0.5,0.2-0.7
			c-0.1-0.2-0.4-0.3-0.7-0.4c0,0-0.1-0.1-0.1-0.1c-0.7-0.8-1.1-2.1-2.6-1.7c-0.1,0-0.2-0.1-0.3-0.1c-0.5-0.7-0.9-1.5-1.3-2.3
			c-0.3-0.6-0.4-1.3-0.7-2c-0.7,0.4-1.1,0.6-1.6,0.7c-0.6,0.1-0.9-0.3-0.7-0.9c0.1-0.3,0-0.7,0-1.1c0.3-0.2,0.6-0.3,0.9-0.6
			c-0.9-0.7-0.6-1.5-0.1-2.2c0.3-0.4,0.2-0.6,0-1c-0.5-1-1-1.9-0.8-3.1c0.1-0.4-0.1-1.1,0.1-1.2c0.3-0.2,0.9,0.1,1.3,0
			c1-0.3,1.3-0.1,1.1,1c-0.1,0.4,0.4,0.9,0.8,1.2c0.3,0.2,0.8,0.1,1.1-0.4c0.1-0.2,0.7-0.2,1-0.1c1,0.1,1.9-0.8,1.7-1.7
			c-0.2-0.9-0.8-1.9,0.1-2.6c-0.7-0.6-1.4-1.1-1.8-1.7c-0.7-0.9-1.3-1.9-0.7-3.2c0.2-0.5,0.3-1.1,0.3-1.7c0-1.4,0-1.4,1.3-1.8
			c0.8-0.2,1-0.7,0.7-1.2c-0.4-0.6-0.8-1.6-1.4-1.8c-1.8-0.6-2.2-2-2.1-3.6c0.1-1.4-0.8-3,0.3-4.3c0,0-0.1-0.1-0.1-0.2
			c-0.6,0.3-1,0.2-1.2-0.3c-0.4-0.1-0.8-0.1-1.1-0.2c-0.6-0.3-1.3-0.6-1.9-1c-0.9-0.5-1.9-1-2.6-1.7c-0.5-0.5-1.5-1-1-2.1
			c-0.4,0.1-0.7,0.1-1.1,0.1c-1.1,0-1.3-0.2-1.4-1.2c0-0.2-0.4-0.4-0.5-0.7c-0.2-0.4-0.4-1.1-0.3-1.1c0.7-0.4,0.7-1.1,0.9-1.7
			c0.3-1.1,0-2.4-0.8-3.1c-0.2-0.2-0.6-0.3-0.9-0.3c-0.6,0.1-0.8-0.2-0.7-0.8c0-0.3,0-0.8-0.1-0.9c-0.8-0.6-1.4-1.6-2.4-0.8
			c-0.4-0.4-0.6-1-1-1.1c-0.7-0.2-1.2-0.7-1.6-1.2c0,0-0.1,0-0.1,0c0-0.2,0-0.3,0-0.5c0.3-0.1,0.6-0.1,0.9-0.3
			c0.8-0.3,1.8,0,2.1,0.7c0.7-0.2,1.3-0.5,2.1-0.7c-0.3-0.5-0.5-0.9-0.7-1.2c-0.4-0.5-0.5-1,0-1.4c0.2-0.1,0.3-0.4,0.3-0.6
			c0.1-0.4,0-0.8,0.1-1.2c0-0.2,0.1-0.4,0-0.6c-0.5-1-0.1-1.8,0.5-2.7c0.2-0.2,0.1-0.8,0-1.1C8.5,100,7.9,99.5,7.3,99
			c-0.6-0.5-1.5-0.6-1.8-0.2c-0.4,0.7-0.9,0.4-1.2,0c-0.3-0.4-0.4-1-0.6-1.5c0-0.4,0-0.9,0-1.3c0.3-0.2,0.7-0.4,1.1-0.7
			c-0.9-1.2-0.6-2.5,0.2-3.7c0,0,0.1,0,0.1,0c1.5,0.1,1.8-0.3,1.6-1.7c0-0.2,0.1-0.5,0.2-0.7c0.3-0.3,0.6-0.6,0.9-0.9
			c0.5-0.8,1.4-0.7,2-0.5c0.8,0.3,1.3,0.1,1.9-0.2c0.6-0.3,1.2-0.5,1.9-0.7c0.1-0.2,0.3-0.6,0.5-0.9c0.3,0.2,0.5,0.4,0.8,0.5
			c0.5,0.2,1.1,0.3,1.6,0.3c0.4,0,0.9-0.3,1.3-0.5c0.6-0.2,0.9-0.1,0.9,0.6c-0.1,0.6-0.1,1.3-0.1,2c1.1,0,2.3,0,3.5,0
			c0,0,0.1,0.3,0.2,0.5c0.9-0.4,1.5-1.1,2.1-1.8c0.2-0.3,0.5-0.6,0.8-0.9c0.1-0.1,0.3-0.2,0.4-0.4c0.5-0.8,1.3-1,2.2-0.6
			c1,0.5,2,0.8,3.1,1.1c0.5,0.1,1.2-0.2,1.6,0c0.8,0.4,1.3,0.1,1.9-0.4c0.7-0.5,0.9-1.5,1.9-1.6c0.2,0,0.5,0,0.7-0.1
			c2.2-0.9,4.5-1.1,6.7-1.4c0.2,0,0.5-0.1,0.6-0.2c0.4-0.6,0.9-0.5,1.5-0.4c0.4,0.1,0.8,0.2,1.3,0.2c0-0.4-0.1-0.8,0.1-1
			c0.7-0.8,0.4-1.7,0.4-2.5c0.1-1.4,0.5-2.2,1.9-2.3c0.2,0,0.4,0,0.6-0.1c0-0.1,0.1-0.1,0.1-0.2c-0.1-0.1-0.3-0.1-0.4-0.2
			c-0.6-0.6-0.6-0.9,0.3-1.1c0.6-0.1,1.2-0.2,2-0.3c-0.1-0.3-0.2-0.8-0.4-1.4c0.1-0.3,0.5-0.7,0.4-1.2c-0.1-1.2-0.4-2.4-0.5-3.6
			c-0.1-0.6-0.1-1.2-0.1-1.8c0-0.5,0.2-1.1,0.3-1.6c0.2-0.9,0.3-1.9,1.4-2.6c-0.8-0.3-1.4-0.5-2-0.7c-0.3-0.1-0.6-0.3-0.8-0.4
			c-0.4-0.4-0.5-0.8,0.2-1c0.6-0.2,1.2-0.7,2-0.3c0.2,0.1,0.5,0,0.7,0c0.6,0,1.3-0.3,1.9-0.1c1.7,0.4,3.3-0.1,4.9-0.3
			c0.9-0.1,1.1-0.1,1.1,0.8c0,0.6,0.5,1,1,0.9c1.1-0.4,1.9-0.1,2.4,0.9c0,0,0.1,0,0.3,0c0.2-0.6,0.6-1.1,0.7-1.7
			c0-0.3-0.7-0.6-1.1-0.8c-0.5-0.3-0.5-0.7-0.2-1.1c0.5-0.8,1.1-1.6,1.6-2.4c0.7-1.2,1.5-2.4,2.1-3.7c0.7-1.6,2.1-2.7,2.5-4.5
			c0.2-0.7,0.6-0.8,1.2-0.3c0.6,0.5,1.3,1,1.9,1.6c1.4,1.3,3.2,0.8,4.8,1.5c0.3,0.1,0.7,0.2,0.8,0.4c0.2,0.2,0.1,0.6,0.1,1.1
			c0.7-0.3,1.4-0.7,2.1-1c0.3-0.1,0.6-0.2,0.9-0.2c0.7,0.1,2-0.7,2.1-1.4c0.1-1,0.2-2.1,0.1-3.1c-0.2-1.9,0.6-3.4,1.6-4.8
			c0.2-0.3,0.6-0.5,0.9-0.5c0.9,0,1.8,0.2,2.7,0c1.4-0.3,2.4-1.3,2.3-2.7c0-0.3,0.1-0.7,0.3-0.9c0.6-0.7,1.7-0.8,2.6-0.3
			c0.5,0.3,0.9,0.5,1.6,0.2c0.4-0.2,1-0.1,1.7-0.2c-0.3,0.8,0.6,1.8-1,2.2c0.5,0.4,0.8,0.8,1.2,1.1c0.4,0.3,0.7,0.6,0.1,1
			c-0.1,0.1-0.2,0.2-0.3,0.3c0.8,0.6,1.5,1.1,2.2,1.7c0.3,0.3,0.4,0.7,0.6,1c0.1,0.2,0.1,0.6,0.2,0.7c0.6,0.6,1.5,0.9,1.9,1.7
			c0.1,0.2,0.6,0.2,0.8,0.2c1.3-0.2,1.3-0.2,2.1,0.9c0.3,0.4,0.6,1.4,1.4,0.5c0,0,0.6,0.3,0.6,0.4c-0.1,0.7,0.3,1,0.9,1.3
			c0.2,0.1,0.4,0.2,0.4,0.4c0.2,0.7,0.4,1.4,0.4,2.2c0.1,1.3,0.4,2.5,1.5,3.3c0.2,0.1,0.3,0.5,0.3,0.7c0.1,0.3,0,0.5,0.1,0.8
			c0.2,0.9,0.3,1.8-0.2,2.6c-0.5,0.8-0.9,1.5-0.4,2.5c0.1,0.3-0.2,0.9-0.4,1.2c-0.3,0.5-0.9,0.8-1.2,1.3c-0.3,0.6-0.7,1.3-0.6,2
			c0.1,0.8,0.5,1.5,0.8,2.2c0-0.1,0.1-0.1,0.1-0.2c0.5,0.3,1,0.6,1.5,0.9c0.3,0.1,0.6,0.2,0.9,0.2c0.2,0,0.3,0.1,0.5,0.2
			c0.4,0.2,0.9,0.4,1.3,0.5c0.7,0.2,1.4,0.2,2,0.4c0.7,0.2,1.4,0.6,2.1,0.6c1.5-0.2,2.9,0.3,4.3,0.7c0.8,0.2,2,0.6,2.1,1.2
			c0.6,1.8,2.8,1.4,3.3,3c0,0,0.2,0,0.2,0.1c0.3,0.2,0.7,0.4,0.9,0.7c0.9,1.1,2,1.5,3.4,1.4c0.3,0,0.6,0,0.9,0
			c-0.2,0.3-0.3,0.5-0.4,0.7c-0.4,0.8-0.2,1.1,0.5,1.6c0.2,0.1,0.4,0.3,0.4,0.6c0.4,1.3,1,2.6,1.1,4c0.1,1.1,0.6,1.8,1.3,2.6
			c0.7,0.8,1.5,1.4,1.3,2.7c0.5,0,0.9,0,1.2,0c1.3,0,2.7-0.2,4,0c3.8,0.6,7.6,1.4,11.4,2.1c0.4,0.1,0.9,0.2,1.3,0
			c1.8-0.7,3.5-0.5,5.3,0c1.5,0.4,3.1,0.6,4.6,0.7c1.3,0.1,2.3,0.3,2.8,1.6c0.4,0.8,1.1,1.3,2,1.5c2.8,0.6,5.7,1.2,8.1,2.9
			c0.2,0.2,0.6,0.2,0.9,0.1c1.3-0.2,2.7-0.5,4.1-0.8c0,0.3,0.1,0.5,0,0.7c-0.1,0.8,0.2,1.2,1,1.1c0.6,0,1.2,0.1,1.6,0.2
			c0.8-0.5,1.6-1.1,2.4-1.5c3.3-1.7,6.4-3.7,10.1-4.3c2.9-0.5,5.8-1.4,8.7-0.8c0.2,0,0.4-0.1,0.6-0.1c0.4-0.1,0.9-0.2,1.3-0.2
			c1.1,0.1,2-0.1,2.8-0.8c0.5-0.4,1.1-0.7,1.8-0.9c1.7-0.5,2.9-1.6,3.7-3.1c0.7-1.3,1.5-2.6,3-3.3c1-0.4,2.1-0.8,2.6-1.9
			c0.1-0.2,0.3-0.3,0.5-0.3c0.6-0.1,0.7-0.6,0.4-1c-0.3-0.5-0.8-0.9-1.2-1.4c-0.5-0.5-0.9-1.1-1.4-1.6c-0.1-0.1-0.1-0.3-0.2-0.4
			c-0.7-0.4-0.4-0.9-0.2-1.5c0.2-0.5,0.2-1,0.4-1.5c0.5-1.2,0.5-2.6,1.8-3.2c0.6-0.3,1.3-0.1,2-0.3c0.6-0.1,1,0.2,1.5,0.5
			c0.4,0.4,0.9,0.7,1.5,0.8c1.4,0.2,2.8,0.3,4.2,0.5c0.1,0,0.4-0.1,0.5-0.2c1.2-1.2,2.7-2.1,3.6-3.5c0.2-0.3,0.4-0.7,0.5-1
			c0.2-0.8,0.7-1.2,1.5-1c1.4,0.3,2.6-0.1,3.9-0.5c0.4-0.1,0.8-0.5,1.2-0.9c0.6-0.5,1.2-1,1.8-1.6c0.2-0.3,0.3-0.7,0.4-1
			c0.1-0.4-0.1-0.8,0-1.1c0.4-0.9,0.8-1.8,1.4-2.6c0.4-0.5,1.1-0.7,1.6-0.9c0.5-0.2,1-0.1,1.5-0.1c0.6,0,0.9-0.1,0.8-0.8
			c0-0.7,0.2-1.3,1.1-1.3c0.3,0.3,0.6,0.8,1.2,0.3c0.7-0.6,1.3-1.1,2-1.6c0.2-0.1,0.5-0.1,0.7-0.1c0.8,0,1.7,0.2,2.3-0.6
			c0.1-0.1,0.3-0.1,0.4,0c0.5,0.2,0.9,0.5,1.4,0.5c0.8,0,1.6-0.1,2.4-0.1c1,0,1.6-0.6,1.2-1.4c-0.4-1-1.1-1.8-1.7-2.8c0,0,0,0-0.1,0
			c-1-0.7-2-1.3-2.9-2c-0.1-0.1-0.1-0.3-0.2-0.3c-0.3-0.3-0.6-0.6-0.9-0.8c-0.5-0.3-1.1-0.3-1.5-0.7c-0.6-0.7-1.2-1.1-2.3-1.1
			c-1.5,0.1-2.7,0.2-3.4,1.8c-0.1,0.3-0.4,0.5-0.5,0.8c-0.6,0.9-0.6,1-1.6,0.3c-1-0.7-2-1-3.1-0.4c-0.3,0.1-0.7,0.2-1,0.2
			c-0.9-0.1-1.5,0.2-1.9,1c-0.2,0.5-0.6,0.6-1.1,0.2c-0.4-0.4-1-0.6-1.3-1.1c-0.4-0.5-0.6-1.2-0.7-1.8c0-0.2,0.5-0.6,0.8-0.8
			c0.5-0.3,0.4-0.6,0.4-1.1c-0.1-0.5-0.3-1.1-0.1-1.5c0.4-1,0.8-2.1,1-3.2c0.3-1.4,0.8-2.8,1.2-4.2c0.3-1,0.6-2,0.9-2.9
			c1.2,0.3,2.3,0.7,3.4,1c0.7,0.2,1.3,0.2,2,0.3c0.3,0,0.7,0.2,0.9,0c0.6-0.5,1.1-1,1.5-1.6c1.1-1.2,2-2.6,3.9-2.8
			c0.9-0.1,1.3-0.8,1.2-1.7c-0.1-0.3-0.1-0.6-0.2-0.9c-0.7-0.1-1.5,0-0.6-1c0-0.1,0-0.2,0-0.2c0-1.3,1.4-2.2,1-3.6c0,0,0,0,0-0.1
			c0.4-1.1,0.9-2.2,1.1-3.4c0.4-1.7,1-3.3,2.4-4.5c0.8-0.6,0.7-1.4,0.8-2.1c0.1-0.3-0.2-0.7-0.4-0.9c-0.4-0.3-0.5-0.6-0.4-1.1
			c0.2-1-0.5-1.5-1.4-1.2c-0.3,0.1-0.6,0.3-0.8,0.4c-0.4,0.2-0.9,0.2-1-0.3c-0.1-0.5-0.3-1.1,0.4-1.5c0.3-0.2,0.5-0.6,0.8-1
			c0.5-0.8,1.1-1.6,1.6-2.5c0.3-0.6,0.9-0.7,1.5-0.9c0.7-0.2,1.4-0.4,2-0.7c1.1-0.5,2.2-1.2,3.4-1.7c0.1,0,0.2,0,0.3-0.1
			c0.9-0.2,1.8-0.3,2.7-0.6c0.6-0.2,1.2-0.6,1.8-0.9C272.3,2.3,272.7,2.2,273.1,2.1z"/>
		<path class="st1" d="M294.1,234.1c-0.1-1.1-0.3-2.2-0.3-3.3c0-0.5,0-0.9,0.2-1.4c0.5-1.3,1-2.6,1.5-4c0.4-1,0.6-2,1-2.9
			c0-0.1,0-0.2,0.1-0.2c0.9-1,1-2.3,1.6-3.4c0.4-0.7,1.2-1.1,1.8-1.6c0.3-0.3,0.7-0.5,0.8-0.8c0.5-0.9,1.5-1.2,2.4-0.6
			c0.4,0.3,1,0.3,1.5,0.6c0.6,0.3,1.2,0.8,1.7,1.2c0,0-0.1,0.5-0.3,0.7c-1,1.1-1,1.2,0,2.3c0.1,0.1,0.1,0.5,0.1,0.7
			c-0.1,0.6-0.7,1.2-0.4,1.9c0,0,0,0.1,0,0.2c-1.2,2.3-0.6,4.8-0.8,7.2c-0.2,2.2-0.6,4.3-2,6.1c-0.8,1-0.9,2.4-0.6,3.7
			c0.1,0.8,0.1,1.5,0.1,2.3c0,0.4-0.3,0.8-0.8,0.5c-0.1-0.1-0.2-0.2-0.3-0.2c-1.3,0.3-1.4-0.7-1.6-1.5c-0.3-1.2-1-1.8-2.2-2.2
			c-0.6-0.2-1.2-0.8-1.6-1.4c-0.5-0.8-0.7-1.9-1.7-2.5c-0.3-0.2-0.3-0.7-0.4-1.1C293.9,234.1,294,234.1,294.1,234.1z M298.5,219.5
			c-0.3,0.8-0.6,1.5-0.9,2.2c-0.3,0.7-0.8,1.4-1.1,2.2c-0.1,0.1,0.2,0.5,0.4,0.6c1.4,0.6,3.2-0.2,3.7-1.5c0.5-1.3-0.1-2.7-1.6-3.3
			C298.8,219.6,298.7,219.5,298.5,219.5z M297.2,225c0.2,0.7,0.4,1.3,0.6,1.9c0.1,0,0.2,0,0.3,0c0.2-0.6,0.3-1.2,0.5-1.9
			C298.1,225,297.7,225,297.2,225z M298.9,224.9c0.6,0.5,1.1,1,1.6,1.4c0.1,0,0.1-0.1,0.2-0.1c-0.2-0.6-0.4-1.2-0.6-1.9
			C299.7,224.5,299.4,224.7,298.9,224.9z M302.5,219.8c0-0.1-0.1-0.1-0.1-0.2c-0.7,0.2-1.3,0.3-2.1,0.5c0.3,0.4,0.5,0.7,0.7,1.1
			C301.6,220.6,302.1,220.2,302.5,219.8z M301.1,222.7c0.7-0.2,1.4-0.3,2-0.5c0-0.1,0-0.2,0-0.3c-0.7-0.1-1.3-0.3-2-0.5
			C301.1,221.9,301.1,222.2,301.1,222.7z M300.1,219.9c0.2-0.8,0.4-1.4,0.6-2c-0.1,0-0.1-0.1-0.2-0.1c-0.5,0.5-1,0.9-1.6,1.5
			C299.4,219.5,299.7,219.6,300.1,219.9z M301,223c-0.2,0.4-0.4,0.7-0.7,1.1c0.8,0.2,1.4,0.4,2.1,0.5c0-0.1,0.1-0.1,0.1-0.2
			C302,223.9,301.6,223.5,301,223z"/>
		<path class="st0" d="M232.6,268.4c-2.1,1-3.9,4.7-3.3,6.7c-0.3,0.3-0.5,0.6-0.7,0.9c-0.2,0.2-0.4,0.3-0.7,0.3
			c-1,0.1-1.6,0.7-1.8,1.6c-0.1,0.6-0.4,0.8-1,0.6c-0.4-0.1-0.9,0-1.3,0.1c-0.8,0.2,0.5,1.3-0.8,1.5c-0.6,0.1-1.1,0.1-1.6,0.1
			c0-0.1,0.1-0.1,0.1-0.2c-0.3-0.1-0.5-0.4-0.8-0.4c-0.4-0.1-0.9,0-1.3,0c-0.1,0-0.2,0.1-0.3,0c-1.2-0.5-2.4-0.9-3.6-1.5
			c-0.2-0.1-0.3-0.4-0.3-0.6c0.1-0.7-0.1-1.2-0.3-1.8c-0.3-0.8-0.1-1.7-0.1-2.5c0-0.1,0.1-0.3,0-0.4c-0.3-0.8-0.2-1.3,0.5-1.7
			c0.4-0.2,0.8-0.5,1.1-0.7c0.7-0.5,1.3-1.1,2-1.7c-0.4-0.6,0-1.3,0.6-1.6c0.5-0.2,1.2,0,1.8,0c0.2-0.9,0.8-1,1.9-1
			c0.9,0,2.1,0.6,2.8-0.6c0.1-0.1,0.3-0.1,0.5-0.1c0.2,0,0.4,0.1,0.5,0.1c0.6-0.5,1.2-0.1,1.8,0.1c-0.1-0.1-0.2-0.3-0.4-0.4
			c0.5-0.3,0.9-0.6,1.4-0.9c0.4,0.8,0.8,1.4,1.8,1.2c0.1,0,0.4,0.3,0.5,0.5C232.1,266.8,232.3,267.6,232.6,268.4z"/>
		<path class="st0" d="M300.8,181.7c-0.1-0.1-0.3-0.2-0.7-0.4c0.4-0.2,0.6-0.3,0.8-0.4c0-0.1,0-0.2,0-0.2c-0.6-0.2-1.2-0.5-1.6-0.4
			c-1.1,0.3-1.1-0.4-1.3-1.1c1.1-0.2,2.1-0.2,2.9,0.7c0.4,0.4,0.7,0.6,0.6,1.1C301.5,181.2,301.1,181.4,300.8,181.7z"/>
		<path class="st0" d="M298.6,178.1c0.6-0.8,1-0.9,1.4-0.2c0.4,0,0.7-0.1,1-0.1C300.3,178.5,299.4,178.5,298.6,178.1z"/>
		<path class="st0" d="M244.7,250.7c-0.2,0.8-0.3,1.4-0.5,2c-0.8,0.2-0.5-0.7-1.1-1C243.7,251.3,244.1,251.1,244.7,250.7z"/>
		<path class="st0" d="M295.1,170.9c-0.4-0.3-0.8-0.6-1.2-0.9c0-0.1,0-0.1,0-0.2c0.7,0.1,1.3,0.2,2,0.3c0.1,0,0.2,0.3,0.2,0.5
			c0,0.1-0.3,0.2-0.4,0.2C295.4,170.9,295.3,170.9,295.1,170.9C295.1,170.9,295.1,170.9,295.1,170.9z"/>
		<path class="st0" d="M300.2,182.9c-1.3-0.8-1.3-0.8-0.5-1.3C299.8,182,300.7,182.2,300.2,182.9z"/>
		<path class="st0" d="M272.1,235c0.3-0.1,0.6-0.3,0.9-0.4c0.2,0,0.4,0.1,0.6,0.2c-0.1,0.2-0.2,0.5-0.3,0.5c-0.4,0.1-0.7,0-1.1,0
			C272.2,235.2,272.2,235.1,272.1,235z"/>
		<path class="st0" d="M288.5,109.9c0.5,0.1,1.1,0.2,1.6,0.2C289.9,110.8,289.2,110.7,288.5,109.9z"/>
		<path class="st0" d="M243,251.3c0.5,1.2-0.3,1.2-0.8,1.4c-0.1-0.1-0.2-0.1-0.3-0.2C242.3,252.2,242.6,251.8,243,251.3z"/>
		<path class="st0" d="M300.8,176.8c-0.2,0-0.5,0.1-0.7,0.1c-0.2,0-0.4-0.1-0.6-0.2c0.2-0.1,0.4-0.4,0.6-0.4c0.3,0,0.6,0.2,0.8,0.3
			C300.9,176.6,300.9,176.7,300.8,176.8z"/>
		<path class="st2" d="M298.2,219.3c0.2,0.1,0.3,0.1,0.5,0.2c1.5,0.6,2.2,2,1.6,3.3c-0.6,1.4-2.3,2.1-3.7,1.5
			c-0.2-0.1-0.5-0.5-0.4-0.6c0.3-0.8,0.7-1.5,1.1-2.2C297.6,220.8,297.9,220.1,298.2,219.3z"/>
		<path class="st2" d="M296.9,224.9c0.5,0,0.9,0,1.4,0c-0.2,0.7-0.4,1.3-0.5,1.9c-0.1,0-0.2,0-0.3,0
			C297.3,226.2,297.1,225.6,296.9,224.9z"/>
		<path class="st2" d="M298.6,224.8c0.5-0.2,0.8-0.4,1.2-0.6c0.2,0.7,0.4,1.3,0.6,1.9c-0.1,0-0.1,0.1-0.2,0.1
			C299.7,225.8,299.2,225.3,298.6,224.8z"/>
		<path class="st2" d="M302.2,219.7c-0.5,0.4-1,0.9-1.5,1.4c-0.2-0.4-0.4-0.6-0.7-1.1c0.8-0.2,1.4-0.4,2.1-0.5
			C302.2,219.5,302.2,219.6,302.2,219.7z"/>
		<path class="st2" d="M300.8,222.6c0-0.4,0-0.8,0-1.2c0.7,0.2,1.4,0.3,2,0.5c0,0.1,0,0.2,0,0.3
			C302.2,222.3,301.6,222.4,300.8,222.6z"/>
		<path class="st2" d="M299.8,219.8c-0.4-0.2-0.7-0.4-1.2-0.6c0.6-0.5,1.1-1,1.6-1.5c0.1,0,0.1,0.1,0.2,0.1
			C300.2,218.4,300,219,299.8,219.8z"/>
		<path class="st2" d="M300.7,222.9c0.5,0.5,1,0.9,1.5,1.4c0,0.1-0.1,0.1-0.1,0.2c-0.7-0.2-1.3-0.3-2.1-0.5
			C300.3,223.6,300.5,223.3,300.7,222.9z"/>
	</g>
</g>
<polygon id="bigStar" class="st3" points="242,158.3 252,188.3 283.8,188.7 257.8,208.5 267.8,237.9 242,220.6 216.1,237.9 
	226.3,209.1 200.1,188.7 231.7,188.8 "/>
<polygon id="smStar1" class="st3" points="318.3,146.6 318.3,156.3 327.5,159.5 318,162.7 318,172.2 312.2,164.7 303,167.2 
	308.8,159.8 303.2,151.3 312.4,154.4 "/>
<polygon id="smStar2" class="st3" points="351.7,178.3 347.7,187.2 354.8,193.9 344.8,193 341,201.7 338.8,192.4 329.3,191 
	337.6,186.6 335.9,176.5 343,183.1 "/>
<polygon id="smStar3" class="st3" points="343,219.3 346.1,228.6 355.9,228.7 347.9,234.7 351,243.7 343,238.4 335.1,243.7 
	338.2,234.9 330.2,228.7 339.9,228.7 "/>
<polygon id="smStar4" class="st3" points="319.5,249.7 319.2,259.4 328.3,262.9 318.7,265.8 318.5,275.3 312.9,267.6 303.6,269.8 
	309.6,262.7 304.2,254 313.3,257.4 "/>
<text transform="matrix(1 0 0 1 297.9048 233.3346)" class="st2 st4 st5">TAIWAN</text>
<g id="two-leaders">
	<g>
		<defs>
			<path id="SVGID_1_" d="M273.1,2.1c0.1,0,0.2,0,0.3,0c0.3,0.1,0.5,0.2,0.8,0.3c0.4,0.1,0.8,0.2,1.1,0.3c0.8,0.3,1.7,0.2,2.3,1
				c0,0.1,0.2,0,0.3,0c0.8,0,1.7,0.4,2.4-0.4c0.1-0.1,0.5-0.2,0.6-0.1c1,0.7,2.7-0.1,3.4,1.5c0.2,0.5,1.2,0.6,2,0.8
				c-0.1,0.4-0.2,0.8-0.3,1.2c1.4,0,1.8,1.4,2.7,2.1c-0.1,0.2-0.2,0.3-0.4,0.6c1,0,1.6,0.3,1,1.4c-0.1,0.1,0.2,0.4,0.3,0.5
				c0.4,0.8,1.7,1,1.6,2.3c0,0,0.1,0.1,0.1,0.1c0.5,0.5,1.1,1,1.6,1.5c0.1,0.1,0.1,0.4,0.1,0.5c-0.2,1,0.3,1.5,1,2
				c0.5,0.4,1.2,0.8,1.5,1.4c0.3,0.5,0.9,1,0.8,1.8c-0.1,0.5,0.1,1.5,1.1,1.6c0.7,0,0.6,0.6,0.6,1.1c0,0.4,0.1,0.8,0.1,1.2
				c0.1,0.7,0.6,0.9,1.1,1.3c1,0.8,2.1,1.1,3.3,0.5c0.6-0.3,1.1-0.6,1.7-0.8c0.2-0.1,0.8,0,0.8,0.1c0.1,0.7,0.7,0.4,1,0.6
				c0.3,0.1,0.5,0.3,0.6,0.4c0.4-0.1,1,0,1.1-0.2c0.7-1.2,1.1-0.5,1.5,0.2c0,0,0,0,0.1,0c1.1-0.1,1.6,0.9,2.3,1.4
				c0.6,0.4,1.3,0.6,2,0.7c0.6,0,1.3-0.3,2-0.4c-0.1,0.6-0.1,1-0.2,1.5c-0.2,0.7,0.5,1.3,0.8,1.2c0.9-0.1,0.7,0.7,1,1
				c0.3,0.3,0.3,1,0.1,1.4c-0.3,0.6,0,0.9,0.4,1.2c0.5,0.4,1,0.8,1.4,1.3c0.4,0.7,0.5,0.8,1.3,0.3c0.5-0.3,1.1-0.7,1.6-0.6
				c1.3,0.1,2.4-0.5,3.5-0.9c0.4-0.1,0.8-0.3,1.2-0.5c0.2-0.1,0.5-0.2,0.5-0.3c0.1-0.4,0-0.9,0.1-1.4c0-0.2,0.2-0.4,0.3-0.5
				c0.2-0.2,0.5-0.3,0.6-0.5c0.6-0.9,1.2-1.6,2.4-1.6c0.2,0,0.6-0.1,0.6-0.3c0.5-1.4,1.9-2,2.9-2.8c0.3-0.2,0.7-0.3,1.1-0.3
				c0.6,0,1.2,0.1,1.8,0.2c0,0.5,0.1,1,0,1.4c-0.3,0.6-0.1,1,0.4,1.4c0.7,0.6,1.4,1.2,0.9,2.3c-0.3,0.7-0.2,1.6-1.2,1.8
				c-0.6,0.2-0.7,1.1-0.4,1.7c0.2,0.3,0.4,0.7,0.3,0.9c-0.6,0.9-0.3,1.8-0.1,2.7c0.1,0.4,0,0.9-0.1,1.4c-0.1,0.5-0.3,0.8,0.2,1.3
				c0.5,0.4,0.4,1.4,0.1,1.9c-0.2,0.3-0.2,0.6-0.2,0.9c-0.1,0.6-0.2,1.2-0.3,1.8c0,0.2-0.2,0.4-0.1,0.6c0.3,1.1,0.2,1.9-0.8,2.6
				c-0.2,0.1-0.3,0.6-0.2,0.9c0.1,0.5,0.2,1,0.4,1.5c0.3,0.8-0.3,1.6-1.1,1.6c-1.5,0-3,0-4.4,0c-0.5,0-1-0.2-1.6-0.3
				c-0.1,0.5-0.2,1.2-0.5,1.8c-0.2,0.5-0.4,1.2-1.1,1.5c-0.7,0.3-1.2,0.9-1.6,1.2c0.8,1.3,1.4,2.5,2.1,3.6c0.7,1.1,1,2.3,1.1,3.7
				c0.1,0.8,0.4,1.6,0.8,2.3c0.3,0.4,0.6,0.6,0.5,1.1c-0.1,0.9-0.2,1.8-0.2,2.7c0,1.3,0,1.2-1.1,1.7c-0.7,0.3-1.3,0.8-2,1.3
				c0,0.1,0.1,0.2,0.1,0.2c0.1,0,0.2,0,0.3,0c0.3,0.2,0.6,0.4,0.9,0.7c0.1,0.1-0.1,0.5-0.2,0.5c-0.3,0-0.7-0.1-1-0.2
				c-0.8-0.3-1.5-0.9-1.5-1.8c-0.4-0.1-0.8-0.3-1.1-0.3c-0.3,0-0.8,0.2-0.9,0.4c-0.2,0.4-0.2,1-0.1,1.4c0.4,1.2,0.5,2.3-0.6,3.2
				c-0.9-0.3-1.4,0-1.4,0.7c0,1.5-0.6,2.5-2.1,2.9c-0.3,0.1-0.5,0.3-0.8,0.4c-0.4,0.1-0.8,0.2-1.2,0.3c-0.5,0.1-1,0.3-1.5,0.5
				c-0.1,0.1-0.3,0.6-0.2,0.7c0.4,0.5,0.8,1,1.3,1.3c0.7,0.5,0.9,1.3,0.3,2.2c-0.5,0.8-1,0.2-1.5,0c-0.1,0.1-0.3,0.3-0.4,0.3
				c-1.4,0.1-2.8,0.2-4.2,0.3c-0.1,0-0.2-0.2-0.2-0.3c-0.7-1.4-0.8-1.4-2-0.6c-0.1,0.1-0.3,0.1-0.4,0.3c-0.2,0.2-0.4,0.4-0.4,0.6
				c-0.1,0.7,0,1.4,0,1.8c-0.3,0.5-0.5,0.8-0.7,1.2c-0.4,1-0.8,2-1.3,2.9c-0.1,0.2-0.4,0.3-0.6,0.4c-0.3,0.2-0.9,0.3-0.9,0.4
				c-0.1,0.8-0.8,1-1.1,1.5c-0.2,0.3-0.6,0.4-0.8,0.6c-0.4,0.5-1.3,0.5-1.2,1.5c0,0.1-0.2,0.2-0.4,0.4c-0.3,0.2-0.7,0.4-0.9,0.7
				c-0.2,0.2-0.3,0.6-0.5,0.8c-0.6,0.8-1.4,1.4-1.3,2.5c0,0.3-0.2,0.6-0.4,0.9c-0.8,1.2-2.2,1.2-3.2,1.2c-0.6,0.4-1.1,1.1-1.5,1
				c-0.5-0.1-0.7-0.2-0.7,0.4c0,0.1-0.2,0.4-0.4,0.4c-0.6,0.1-0.9,0.4-1.4,0.7c-1.3,1-2.7,1.9-3.6,3.3c-0.2,0.3-0.1,0.7-0.3,1
				c-0.5,0.7-1,1.2-1.4,1.8c-0.4-0.1-0.7-0.1-1.3-0.2c0.5,0.7,0.9,1-0.1,1.3c-0.8,0.2-1.4,0.9-2.1,1.3c-0.2,0.1-0.6-0.1-0.8-0.3
				c-0.1-0.1-0.1-0.5-0.2-0.7c-0.3-0.5-0.1-0.7,0.4-0.9c0.3-0.1,0.5-0.4,0.7-0.5c0.2-0.1,0.3-0.3,0.5-0.3c0.5-0.2,0.9-0.4,1.6-0.6
				c-1.2-0.7-0.9-1.3-0.1-2c-0.9,0.1-1.5,0.3-2.1,0.3c-0.3,0-0.6,0-0.9-0.2c-0.1-0.1,0-0.5,0.1-0.7c-0.2-0.1-0.3-0.1-0.7-0.3
				c0.4-0.4,0.8-0.6,1.1-0.9c0.2-0.2,0.4-0.6,0.3-0.7c-0.4-0.7-0.1-1.1,0.4-1.5c0.5-0.4,1-0.6,1.3-1.4c0.5-1.4,1.3-2.6,2-3.9
				c-0.4-0.2-0.8-0.3-0.9-0.6c-0.9-1.1-1.9-1.5-3.3-1.1c-0.1,0-0.4,0-0.5,0c-0.7-0.5-1.4-0.2-2.1,0c-0.4,0.1-0.7,0.7-1,1.1
				c0.2,0.1,0.3,0.3,0.6,0.5c-1.1,0.3-1.5,1.2-1.9,2c-0.5,1.1-0.5,2.4-1.9,3c-1.1,0.5-1.9,1.5-2.9,2c-1,0.5-1.2,1.5-1.9,2.1
				c-0.1,0.1-0.1,0.3-0.1,0.5c0,0.6,0.1,1.3-0.1,1.9c-0.4,0.9-1,1.7-1.5,2.3c-0.8,0-1.5,0-2.1,0c-0.1,0-0.2,0.1-0.2,0.2
				c-0.3,0.3-0.5,0.5-0.8,0.8c-0.4,0.5-0.9,0.3-1.2-0.1c-0.4-0.7-1-0.9-1.7-0.5c-0.6,0.3-1.2,0.6-0.9,1.5c0,0.1-0.1,0.3-0.2,0.5
				c-1.2,2-0.3,3.9,1.6,4.9c1.1,0.6,2.2,0.6,3.3,0.6c0.3,0,0.7,0.1,1,0c0.5-0.1,1.1-0.7,1.5-0.6c0.5,0.1,0.9,0.7,1.2,1.2
				c0.3,0.4,0.3,0.9,0.6,1.3c0.3,0.5,0.4,0.8,0,1.3c-0.6,0.7-0.1,2.3,0.6,2.8c1.1,0.7,2.2,0.5,3.4,0.3c1.1-0.3,1.5-0.8,1.1-1.8
				c0.4-0.3,0.9-0.7,1.3-1c0.4-0.4,0.8-0.9,1.2-1.3c-0.3-0.1-0.5-0.2-0.7-0.3c0.6-0.4,1.2-0.7,1.7-1c0.3-0.2,0.6-0.4,0.9-0.5
				c0.6-0.3,1.2-0.7,2,0c0.4,0.4,1.3,0.2,1.4,1.2c0.4-0.2,0.7-0.2,0.9-0.4c0.4-0.5,0.5-0.1,0.7,0.2c0.2,0.3,0.5,0.6,0.8,0.6
				c0.6,0,1.3-0.2,1.9-0.4c0.2-0.1,0.4-0.3,0.7-0.4c0.2-0.2,0.5-0.4,0.7-0.6c0.1,0.2,0.3,0.5,0.5,0.8c0.9-0.1,1.9-0.2,2.8-0.3
				c0.1,0,0.2,0.1,0.3,0.2c0,0.1,0,0.3-0.1,0.4c-0.7,0.2-0.3,0.7-0.2,0.9c0.2,0.5,0.1,0.8-0.3,1c-0.2,0.1-0.2,0.3-0.4,0.6
				c0.3,0.1,0.5,0.1,0.6,0.1c0.1,0.8-0.4,1.8-1.1,1.9c-0.5,0.1-1,0.1-1.2-0.6c-0.3,0.2-0.5,0.3-0.7,0.5c-0.1-0.2-0.2-0.4-0.3-0.6
				c-0.7,0.7-1.4,1.3-2.2,2.1c-1.6,0.5-3.4,1.2-3.6,3.7c-0.1,0-0.2,0-0.3,0c-0.1-0.2-0.2-0.5-0.3-0.7c-0.1,0-0.2,0.1-0.3,0.1
				c0,0.6-0.1,1.2,0,1.7c0.2,0.5,0.1,0.8-0.4,1c-0.8,0.3-1.5,0.8-2,1.6c-0.4,0.6-1.2,0.8-1.3,1.8c0,0.3-0.3,1.3-1.2,1.4
				c-0.8,0.1-0.8,0.8-1,1.4c-0.3,0.9-1.1,1.5-0.9,2.6c0,0.1-0.1,0.2-0.2,0.3c-1,0.3-0.7,1.1-0.7,1.7c0,0.5,0.2,0.8,0.8,0.6
				c0.3-0.1,0.9,0,1,0.2c0.7,1.2,1.8,1.2,2.9,1.4c1.4,0.4,2.7,0.8,3.4,2.4c0.6,1.5,1.6,2.9,2.5,4.4c0.1,0.2,0.2,0.3,0.3,0.5
				c0.5,0.8,0.9,1.7,1.6,2.4c0.6,0.6,0.7,1.3,0.6,2c-0.1,0.8,0,1.2,0.8,1.4c0.6,0.2,1.2,0.3,1.9,0.5c1,0.2,1.6,0.7,1.4,1.5
				c-0.1,0.7,0.2,0.7,0.7,0.8c1.5,0.2,2.5,1,3,2.4c0.2,0.5,0,0.8-0.5,0.7c-0.7,0-1.3-0.1-2-0.2c0.1,0.1,0.2,0.3,0.3,0.4
				c0.6,0.2,1.3,0.3,1.9,0.6c0.2,0.1,0.4,0.4,0.5,0.5c-0.2,0.2-0.5,0.5-0.7,0.4c-1.5-0.2-3.1-0.5-4.2-1.8c-0.1-0.2-0.6-0.3-0.7-0.3
				c-0.7,0.4-1-0.1-1.5-0.5c-0.8-0.8-2-1-2.9-0.5c0.5,0,0.8,0.2,1.1,0.1c0.9-0.2,1.2,0.4,1.3,1c0.1,0.6,0.3,0.6,0.7,0.5
				c1-0.1,1.8,0.3,2.6,0.8c0.7,0.4,1.3,0.9,2,1.3c0.4,0.2,0.9,0.4,1.4,0.5l0,0c0.5,0.7,1,1.3,1.4,2c0.6,0.9,0.3,1.3-0.7,1.5
				c-0.8,0.1-1.5,0.4-2.1,1.1c-0.5,0.7-1.3,1.1-1.9,1.7c-0.3,0.3-0.6,0.6-0.6,0.9c-0.1,1.1-0.5,1.4-1.5,1.1c-0.6-0.2-1.7,0.1-2,0.8
				c0.6-0.3,1-0.5,1.3,0.2c0.4,0.8,1.1,0.9,1.8,0.4c0.4-0.3,0.8-0.7,1.2-1c0.8-0.8,1.5-0.9,2.4-0.4c0.6,0.3,1.1,0.8,1.7,1.2
				c0.3,0.2,0.7,0.4,1.2,0.6c0.1-0.5,0.1-0.8,0.2-1.2c0.9,0.2,0.7,0.6,0.5,1c0.6,0,1.1,0,1.9,0c-0.6,1-1.9,1.2-1.9,2.2
				c0.5,0.2,1,0.3,1.1,0.5c0.4,0.7-0.1,1.7,0.6,2.4c0.2,0.2,0.1,0.8,0,1.3c0,0.1-0.2,0.4-0.3,0.4c-0.5-0.1-1.1,0-1.1-0.9
				c-0.5,0.2-1.1,0.6-1.4-0.2c-0.1,0.4-0.3,0.6-0.4,1c1-0.2,1.2-0.1,1.7,0.9c0.1,0.2-0.1,0.6-0.1,1c0.4,0.5,0.3,0.8-0.8,1.6
				c0.4,0.7,0.6,1.5,1.1,2c0.7,0.6,0.3,0.8,0,1.1c-0.3-0.1-0.7-0.3-0.8-0.3c-0.2,0.2-0.5,0.6-0.5,0.9c0,0.6-0.3,0.6-0.7,0.5
				c0.2,0.7,0,1-0.9,1c-0.1-0.2-0.2-0.5-0.4-0.9c-0.4,0.7-0.6,1.3-0.9,1.9c0,0,0,0,0,0c-0.5,1.1-0.9,2.2-1.3,3.2
				c0.2,0.3,0.5,0.5,0.5,0.7c0,0.3-0.3,0.6-0.4,0.9c0,0.9-0.3,1.8-1.1,2.2c-0.6,0.3-0.6,0.6-0.7,1.1c0,0.2-0.2,0.4-0.4,0.6
				c-0.2,0.2-0.5,0.3-0.6,0.4c0.3,0.5,0.5,0.8,0.6,1.2c0.1,0.2-0.1,0.6-0.2,0.7c-0.6,0.4-1.2,0.8-2,1.3c0.5,0.3,0.9,0.6,1.3,0.8
				c-0.4,0.3-0.8,0.6-1.2,0.8c-0.9,0.4-1.1,1.1-0.4,1.9c0.8,0.8-0.6,1.6-0.1,2.5c0,0.1-0.2,0.3-0.3,0.5c-0.1,0.1-0.3,0.1-0.3,0.1
				c0,0.1,0,0.3,0.1,0.4c0.4,0.2,0.7,0.4,1.1,0.5c0.1-0.4,0.2-0.8,0.4-1.3c0.4,0.2,0.8,0.4,1.3,0.6c-0.2,0.4-0.5,0.7-0.6,1.1
				c-0.2,0.5-1,0.2-1,0.9c0,0-0.3,0.1-0.5,0.1c-0.7,0-1-0.6-1.4-1.1c-0.1,0.3-0.2,0.6-0.3,1c-0.5-0.5-0.9-0.4-1.1,0.1
				c0.6,0.3,1.2,0.5,2,0.9c-0.6,0.5-1.1,0.8-1.5,1.1c-0.3,0.2-0.5,0.4-0.8,0.4c-0.1,0-0.3-0.4-0.4-0.6c-0.2,0.3-0.4,0.7-0.6,1.1
				c0.3-0.1,0.5-0.1,0.8-0.2c0.3,1.2,0.3,1.3-0.9,1.6c-0.3,0.1-0.5,0.2-0.7,0.4c0.5,0.7,0,2.1-0.9,2.6c-0.2-0.2-0.5-0.6-0.6-0.6
				c-0.6,0.3-1.3,0.6-1.8,0.9c-0.3,0.2-0.5,0.6-0.8,1c0.1,0.2,0.4,0.5,0.5,0.6c-0.8,1.2-1.6,2.3-2.2,3.2c-0.3,0.1-0.5,0.1-0.7,0.1
				c0.2,1-0.4,1.6-1.1,2.2c0,0-0.1,0.1-0.1,0.1c0.2,1-0.6,0.4-0.9,0.6c0-0.5,0-0.9,0-1.3c-0.1,0-0.2,0-0.2,0c0,0.3-0.1,0.7-0.1,1
				c-0.9,0-1.3,1.2-2.4,1c0.1-0.2,0.2-0.4,0.3-0.6c-0.4,0.6-0.8,1.3-0.9,2c-0.1,0.3,0.1,0.7,0.2,1.1c-0.8-0.1-1.7,0.5-1.6,1.2
				c0.1,0.9-0.2,1.4-1.1,1.4c-0.7,0-1,0.2-1.3,0.7c-0.1,0.1-0.2,0.2-0.4,0.3c-0.7,0.3-1.5,0.6-2.2,0.8c-0.3-0.3-0.7-0.6-1.1-0.9
				c-0.1,0-0.2,0.1-0.3,0.1c0,0.6-0.1,1.2-0.1,1.8c-0.5-0.1-0.8,0-1.2-0.2c-0.3-0.1-0.5-0.4-0.8-0.5c-0.4-0.2-1.6,0.2-1.9,0.6
				c-0.3,0.5-0.7,1-1,1.5c-0.2-0.1-0.4-0.3-0.6-0.3c-0.5,0.1-0.6-0.2-0.7-0.6c0-0.2,0-0.5-0.1-0.7c-0.9,0.4-1,1-0.3,2
				c-0.3,0.2-0.6,0.4-1,0.6c-0.1-0.3-0.2-0.5-0.3-0.6c-0.3-0.2-0.7-0.4-1-0.4c-1.1,0.4-2.1,0.8-3.2,1.3c-0.5-1.8-1.1-2.2-2.7-1.9
				c0.2,0.8,0.4,1.6,0.6,2.4c0,0.1,0,0.1,0.1,0.2c0.6,1.1,0.3,1.7-0.9,2c-0.1,0-0.2,0.1-0.2,0.1c0.1,0.4,0.2,0.8,0.4,1.1
				c-1.6,0.1-2.3-0.3-2.6-1.1c-0.2,0.3-0.4,0.7-0.3,1.1c0.1,0.6,0.2,1.1-0.4,1.3c-0.3,0.1-0.7-0.2-1.3-0.3c-0.7,0.3-0.9,2.2-2.2,1.2
				c-0.6,0.3-0.9,0.7-1.3,0.8c-0.3,0-0.7-0.3-1.2-0.6c-0.3,0.2-0.8,0.4-1.4,0.8c0.4,0.2,0.6,0.3,0.8,0.4c0,0.1,0,0.1,0,0.2
				c-0.6,0-0.9,1.1-1.8,0.4c-0.1-0.1-0.4,0.1-0.6,0.2c-0.4,0.2-0.7,0.5-1.1,0.6c-0.6,0.1-1.2,0.1-1.6,0.6c-0.1,0.1-0.4,0-0.6-0.1
				c-1.1-0.2-1.9,1-3.1,0.8c-0.1,0-0.3,0.1-0.3,0.2c-0.5,0.9-1.2,1.8-1.2,2.8c0.3,0.2,0.5,0.3,0.6,0.4c0,0-0.1,0.4-0.2,0.4
				c-0.2,0-0.5-0.1-0.6-0.2c-0.4-0.3-0.7-0.7-1.3-0.5c-0.4,0.1-0.8,0.1-1.3,0.2c0.1,0.2,0.3,0.7,0.3,0.7c1.4-0.5,1.6,0.6,1.9,1.4
				c0.3,0.5,0.7,1.2,0.6,1.7c-0.1,0.8-0.8,1.6-1.9,1.6c-0.8,0.1-1.7,0.1-2.5,0.2c-0.1-0.5-0.3-1-0.5-1.8c-0.2-0.3-0.6-0.7-0.8-1
				c-0.1-0.6-0.1-1-0.4-1.3c-0.3-0.5-0.7-2.4-0.4-2.8c0.2-0.5,0.5-1,0.7-1.6c0.7-0.1,0.7-0.1,0.8-0.8c-0.8,0.3-1.6,0.3-2.2-0.7
				c-1.1,1.6-2.2,3-3.2,4.4c-0.1,0.1-0.2,0.1-0.6,0.2c0.9-1.2,1.7-2.3,2.4-3.3c-0.1-0.1-0.1-0.1-0.2-0.2c-0.5,0.2-0.9,0.4-1.4,0.4
				c-0.3,0-0.7-0.2-1.1-0.3c0.2-0.2,0.4-0.5,0.5-0.7c0,0,0-0.1,0.1-0.3c-1-0.1-2-0.2-3-0.2c-0.2-0.2-0.5-0.5-0.7-0.7
				c-0.5,0.5-0.8,1.1-1.3,1.3c-0.9,0.4-0.2-0.8-0.5-0.8c-0.4,0.5-0.7,1-1.1,1.4c-0.1,0-0.1-0.1-0.2-0.1c0-0.2,0-0.3,0-0.7
				c-0.6,0.5-1.1,0.9-1.7,1.4c-0.3-1.2-1.2-1.7-2.3-1.4c-0.1,0-0.3,0.1-0.4,0.1c-0.7,0-1.3,0-1.7,0c-0.9-0.5-1.6-1-2.3-1.3
				c-0.6-0.2-0.8-0.4-0.5-1c-0.9-0.2-1.7-0.3-2.6-0.5c0,0,0-0.2,0-0.3c-0.2-0.8,0.3-1.7-0.7-2.3c-0.7-0.4-0.1-1.3,0-1.9
				c0-0.2,0.5-0.2,0.8-0.4c0,0,0.1-0.2,0.2-0.4c0.2-0.6,0.1-0.8-0.6-1.2c-0.8-0.4-1.4-0.1-2.1,0c-0.3,0.1-0.8,0-0.9-0.1
				c-0.5-0.9-1.1-0.9-1.8-0.4c-0.2,0.1-0.5,0.2-0.6,0.2c-0.9-0.4-1.8-0.8-2.6-1.4c-0.7-0.5-1.1-1.3-1.6-2c0,0.1-0.1,0.2-0.1,0.3
				c-0.4,0.2-0.8,0.4-1.2,0.6c-0.6,0.3-1.1,0.5-1.7,0.9c-0.2,0.1-0.3,0.4-0.3,0.6c0,1.2-0.5,1.8-1.7,1.9c-0.3,0-0.6,0.1-0.8,0.3
				c-1,0.8-1.4,0.7-2.1-0.3c-1.6,0-0.9,1.7-1.8,2.5c-0.7-0.8-1.3-1.6-2.2-2.6c-0.2,0.6-0.3,0.9-0.5,1.3c-0.1,0.2-0.3,0.4-0.5,0.5
				c-0.1,0-0.4-0.2-0.5-0.3c-0.2-0.4-0.4-0.8-0.7-1.2c-0.5,0.7-0.9,1.3-1.4,1.9c-0.6,0.9-1.6,1-2,0.1c-0.4-0.7-1-0.9-1.7-1.3
				c-0.4-0.2-0.8-0.3-1.2-0.5c-0.4,0.6-1,1.2-1.4,1.9c-0.4,0.7-0.8,0.8-1.5,0.4c-0.3-0.1-0.8-0.1-1.1,0.1c-0.5,0.4-0.6,0.1-0.8-0.2
				c-0.1-0.2-0.3-0.3-0.5-0.4c-0.1,0.2-0.3,0.4-0.4,0.6c-0.2,0.4-0.5,0.8-0.7,1.2c-0.1,0-0.2,0-0.3,0.1c0.5,0.9,1,1.9,1.5,2.8
				c0.1,0.1,0.1,0.3,0.2,0.4c0.1,0.5,0.2,1,0.3,1.6c0.1-0.1,0,0-0.1,0.1c-0.5,0.6-0.5,1.7,0,2.2c0.1,0.1,0.2,0.5,0.1,0.7
				c-0.2,0.3-0.4,0.8-1,0.4c-0.8-0.5-1.7-1.1-2.7-0.3c-0.1,0.1-0.7-0.3-0.8-0.6c-0.2-0.9-0.2-1.8-0.4-2.7c-0.1-0.4-0.2-0.8-0.3-1.4
				c-1.1,0.7-1.9,1.3-2.8,2c-0.6,0.5-1.4,0.8-2,0.3c-0.5-0.4-0.8-0.4-1.3-0.1c-0.2,0.2-0.8,0.3-0.9,0.1c-0.3-0.3-0.4-0.7-0.5-1.1
				c0-0.1,0.1-0.3,0.1-0.5c-1.2-0.3-1.5-0.8-1.1-2c0.1-0.3,0-0.6,0-0.8c-2-0.4-3.9-0.7-5.8-1.1c0.5-0.9,0.8-1.7,1.3-2.2
				c0.4-0.4,0.7-0.9,0.5-1.4c-0.2-0.7-0.2-1.2,0.4-1.8c0.2-0.2,0.2-0.5,0.3-0.9c0.2,0,0.4,0.1,0.6,0.1c0.1-0.1,0.1-0.1,0.2-0.2
				c-0.4-0.4-0.8-0.7-1.2-1c-1.5,0.8-2.3-0.7-3.6-0.7c0.2-0.9,0.6-1.8-0.3-2.4c-0.1-0.1-0.1-0.4,0-0.5c0.4-0.7,0.2-1.3-0.5-1.6
				c-0.2-0.1-0.3-0.3-0.3-0.5c0-0.6-0.1-1.3,0.8-1.6c0.2-0.1,0.4-0.3,0.6-0.4c-0.4-0.1-0.8,0-1.1,0c-0.3,0-0.6,0.2-0.8,0.1
				c-1.3-0.5-2.5-0.5-3.7,0c-1,0.4-2,1-3,1.5c-0.2-0.3-0.5-0.6-0.9-0.9c0.5-0.4,0.9-0.8,1.3-1.1c0.8-0.7-0.4-1.5,0-2.2
				c-0.3-0.1-0.6-0.3-1-0.4c0.1-0.4,0.2-0.9,0.2-1.3c0.1-1.2,0.3-1.5,1.6-1.8c-0.3-0.8,0.4-3,1-3.1c0.2,0.1,0.4,0.2,0.5,0.3
				c1.4-0.5,1.3-1.8,1.8-2.8c1.3,0.4,1.3,0.4,2-0.8c0.1-0.2,0.2-0.4,0.3-0.5c0.2-0.1,0.4-0.2,0.6-0.2c0.2,0,0.5,0,0.7,0
				c-0.1-0.3-0.2-0.5-0.3-0.8c-0.1-0.4-0.3-0.9-0.4-1.3c0.3-0.1,0.6-0.2,0.9-0.3c0,0,0.1-0.1,0,0c0-0.5-0.2-0.9-0.1-1.2
				c0.6-1.2,0.7-2.5,0.6-3.8c-0.1-0.9-0.2-1.9-0.2-2.8c0-1,0.1-1.9,0.2-2.8c-0.6-0.3-1-0.6-1.5-0.8c-0.1,0.3-0.1,0.5-0.3,0.7
				c-0.2,0.4-0.8,0.4-0.9,0c-0.3-1.3-0.6-2.6-0.9-3.9c-0.1-0.3-0.3-0.7-0.5-1c-0.1-0.2-0.3-0.3-0.4-0.5c-0.2-0.4-0.4-1-1.1-0.8
				c-0.1,0-0.4-0.2-0.4-0.3c-0.1-0.8-0.7-0.9-1.2-1c-0.5,0.8-1,1.5-1.5,2.3c-0.4-0.4-0.7-0.6-0.9-0.8c-0.4-0.4-0.7-0.7-1.4-0.5
				c-0.5,0.1-1.2-0.1-1.7-0.5c-0.9-0.6-1.5-0.7-2.4,0.1c-0.4-0.2-0.8-0.3-1.2-0.5c0.6-0.6,1.1-1.3,1.6-1.8c0.2-0.2,0.3-0.4,0.5-0.5
				c0.5-0.2,0.5-0.4,0.2-0.8c-0.3-0.5-0.4-1-0.7-1.7c-0.4,0.3-0.9,0.6-1.3,0.9c-0.1,0.1-0.4,0.1-0.5,0.1c-0.1,0-0.1-0.3-0.1-0.4
				c0-0.4-0.1-0.7-0.1-1.1c0.5-0.2,1-0.5,1.3-0.7c-0.5-0.7-1-1.3-1.4-1.9c-0.4,0.1-0.8,0.2-1.2,0.3c-0.9,0.4-1.9,0.6-2.4,1.6
				c-0.5,0.9-1.2,0.9-2,0.5c-1-0.5-2-0.9-3-1.3c-0.2-0.3-0.3-0.7-0.6-0.8c-0.2-0.1-0.6,0.2-0.9,0.4c-0.2,0.1-0.3,0.1-0.5,0.1
				c-0.7,0.2-1.5,0.4-1.9,1.1c-0.3,0.5-1.2,0.5-1.2,1.3c-1.1,0.3-2,1.3-3.4,1.1c-1.5-0.3-1.9,0.2-2.8,1.4c-0.6,0.8-1.7,1.2-2.6,1.8
				c-0.3,0.2-0.6,0.2-0.9,0.3c0.4,0.7,0.3,1.1-0.2,1.4c-0.9,0.5-1.9,1-3,0.7c-0.4-0.1-0.9,0.1-1.3,0.2c-0.4,0-0.8,0.1-1.2,0
				c-0.5-0.1-1-0.3-1.6-0.5c0-0.4,0.1-0.8,0.2-1.2c-0.6-0.3-1.3-0.6-1.8-1c-0.5-0.4-0.8-0.4-1.3,0c-0.3,0.2-0.9,0.3-1.1,0.1
				c-0.9-0.7-1.9-1-3.1-1.1c-1.4-0.1-1.4-0.2-1-1.5c-0.7-0.3-1.4-0.6-2.1-0.7c-0.5-0.1-1,0.2-1.5,0.3c-0.4,0.1-0.7,0.3-1.1,0.4
				c-0.3,0.1-0.6,0.1-0.8,0.3c-0.6,0.5-1,1.2-1.6,1.5c-0.9,0.5-1.5,1.1-1.8,1.9c0,0.1-0.1,0.2-0.2,0.2c-0.9,0.2-1.3,0.9-1.6,1.6
				c-1.2-1.1-1.2-1.5-0.4-2.8c1-1.6,0.7-2.6-0.5-3.2c-1.3,0.2-2.4,0.4-3.5,0.6c0,0.1-0.1,0.3-0.1,0.5c-0.2-0.1-0.3-0.2-0.4-0.2
				c-0.5-0.1-1.3-0.5-1.6-0.2c-0.6,0.5-1.2,0.2-1.7,0.2c-0.4,0-0.8-0.1-1.1-0.2c-0.8-0.3-1.9-0.1-2.4-1.2c-0.1-0.2-0.4-0.2-0.5-0.3
				c-0.6-0.4-1.2-0.8-1.7-1.3c-0.4-0.3-0.8-0.1-1.1,0.4c-0.1,0.2-0.7,0.5-0.9,0.4c-0.7-0.4-1.6-0.7-1.6-1.8c-0.2,0.4-0.1,0.7-0.2,1
				c-0.1,0.2-0.3,0.5-0.5,0.6c-0.2,0-0.7-0.2-0.7-0.3c-0.1-1.2-0.6-2.2-1.2-2.9c-1.4-0.4-2.7-0.7-3.9-1.1c-0.1,0-0.2-0.3-0.1-0.4
				c0.2-0.6,0.5-1.1,0.8-1.9c-0.3,0-0.7-0.1-1,0.1c-0.6,0.4-1.1,0.2-1.5-0.2c-0.4-0.4-0.9-0.9-1.3-1.3c-0.6-0.7-1.2-1.3-1.8-2
				c-0.1-0.1,0.1-0.4,0-0.6c-0.1-0.7-0.2-1.4-0.4-2c-0.2-0.5-2-0.6-2.6-0.3c-0.5,0.3-1.1,0.2-1.2-0.3c-0.1-0.4-0.2-0.7-0.4-1.1
				c-0.3-0.5-0.7-1-0.8-1.6c-0.1-0.7-0.4-1-0.9-0.8c-0.4-0.3-0.7-0.6-1.1-0.9c-0.3-0.2-0.7-0.3-0.8-0.6c-0.8-1.4-1.7-2.7-3.2-3.3
				c-0.1-0.1-0.3-0.2-0.3-0.4c0-0.6,0-1.2,0-1.7c-0.8-0.4-1.6-0.8-2.4-1.1c-0.2-0.1-0.5-0.1-0.7-0.1c-0.3,0-0.7,0.1-0.9,0.1
				c-0.5,0.6-0.9,1.2-1.5,1.7c-0.2,0.2-0.6,0.4-0.8,0.3c-0.3-0.1-0.6-0.5-0.6-0.8c-0.2-0.8-0.3-1.6-1.2-2c-0.2-0.1-0.3-0.4-0.4-0.6
				c-0.2-0.3-0.4-0.6-0.7-0.8c-0.4-0.4-0.9-0.7-1.4-1c-0.3-0.2-0.7-0.4-1-0.6c0-0.2,0-0.5,0.1-0.7c0.1-0.2,0.3-0.5,0.2-0.7
				c-0.1-0.2-0.4-0.3-0.7-0.4c0,0-0.1-0.1-0.1-0.1c-0.7-0.8-1.1-2.1-2.6-1.7c-0.1,0-0.2-0.1-0.3-0.1c-0.5-0.7-0.9-1.5-1.3-2.3
				c-0.3-0.6-0.4-1.3-0.7-2c-0.7,0.4-1.1,0.6-1.6,0.7c-0.6,0.1-0.9-0.3-0.7-0.9c0.1-0.3,0-0.7,0-1.1c0.3-0.2,0.6-0.3,0.9-0.6
				c-0.9-0.7-0.6-1.5-0.1-2.2c0.3-0.4,0.2-0.6,0-1c-0.5-1-1-1.9-0.8-3.1c0.1-0.4-0.1-1.1,0.1-1.2c0.3-0.2,0.9,0.1,1.3,0
				c1-0.3,1.3-0.1,1.1,1c-0.1,0.4,0.4,0.9,0.8,1.2c0.3,0.2,0.8,0.1,1.1-0.4c0.1-0.2,0.7-0.2,1-0.1c1,0.1,1.9-0.8,1.7-1.7
				c-0.2-0.9-0.8-1.9,0.1-2.6c-0.7-0.6-1.4-1.1-1.8-1.7c-0.7-0.9-1.3-1.9-0.7-3.2c0.2-0.5,0.3-1.1,0.3-1.7c0-1.4,0-1.4,1.3-1.8
				c0.8-0.2,1-0.7,0.7-1.2c-0.4-0.6-0.8-1.6-1.4-1.8c-1.8-0.6-2.2-2-2.1-3.6c0.1-1.4-0.8-3,0.3-4.3c0,0-0.1-0.1-0.1-0.2
				c-0.6,0.3-1,0.2-1.2-0.3c-0.4-0.1-0.8-0.1-1.1-0.2c-0.6-0.3-1.3-0.6-1.9-1c-0.9-0.5-1.9-1-2.6-1.7c-0.5-0.5-1.5-1-1-2.1
				c-0.4,0.1-0.7,0.1-1.1,0.1c-1.1,0-1.3-0.2-1.4-1.2c0-0.2-0.4-0.4-0.5-0.7c-0.2-0.4-0.4-1.1-0.3-1.1c0.7-0.4,0.7-1.1,0.9-1.7
				c0.3-1.1,0-2.4-0.8-3.1c-0.2-0.2-0.6-0.3-0.9-0.3c-0.6,0.1-0.8-0.2-0.7-0.8c0-0.3,0-0.8-0.1-0.9c-0.8-0.6-1.4-1.6-2.4-0.8
				c-0.4-0.4-0.6-1-1-1.1c-0.7-0.2-1.2-0.7-1.6-1.2c0,0-0.1,0-0.1,0c0-0.2,0-0.3,0-0.5c0.3-0.1,0.6-0.1,0.9-0.3
				c0.8-0.3,1.8,0,2.1,0.7c0.7-0.2,1.3-0.5,2.1-0.7c-0.3-0.5-0.5-0.9-0.7-1.2c-0.4-0.5-0.5-1,0-1.4c0.2-0.1,0.3-0.4,0.3-0.6
				c0.1-0.4,0-0.8,0.1-1.2c0-0.2,0.1-0.4,0-0.6c-0.5-1-0.1-1.8,0.5-2.7c0.2-0.2,0.1-0.8,0-1.1C8.5,100,7.9,99.5,7.3,99
				c-0.6-0.5-1.5-0.6-1.8-0.2c-0.4,0.7-0.9,0.4-1.2,0c-0.3-0.4-0.4-1-0.6-1.5c0-0.4,0-0.9,0-1.3c0.3-0.2,0.7-0.4,1.1-0.7
				c-0.9-1.2-0.6-2.5,0.2-3.7c0,0,0.1,0,0.1,0c1.5,0.1,1.8-0.3,1.6-1.7c0-0.2,0.1-0.5,0.2-0.7c0.3-0.3,0.6-0.6,0.9-0.9
				c0.5-0.8,1.4-0.7,2-0.5c0.8,0.3,1.3,0.1,1.9-0.2c0.6-0.3,1.2-0.5,1.9-0.7c0.1-0.2,0.3-0.6,0.5-0.9c0.3,0.2,0.5,0.4,0.8,0.5
				c0.5,0.2,1.1,0.3,1.6,0.3c0.4,0,0.9-0.3,1.3-0.5c0.6-0.2,0.9-0.1,0.9,0.6c-0.1,0.6-0.1,1.3-0.1,2c1.1,0,2.3,0,3.5,0
				c0,0,0.1,0.3,0.2,0.5c0.9-0.4,1.5-1.1,2.1-1.8c0.2-0.3,0.5-0.6,0.8-0.9c0.1-0.1,0.3-0.2,0.4-0.4c0.5-0.8,1.3-1,2.2-0.6
				c1,0.5,2,0.8,3.1,1.1c0.5,0.1,1.2-0.2,1.6,0c0.8,0.4,1.3,0.1,1.9-0.4c0.7-0.5,0.9-1.5,1.9-1.6c0.2,0,0.5,0,0.7-0.1
				c2.2-0.9,4.5-1.1,6.7-1.4c0.2,0,0.5-0.1,0.6-0.2c0.4-0.6,0.9-0.5,1.5-0.4c0.4,0.1,0.8,0.2,1.3,0.2c0-0.4-0.1-0.8,0.1-1
				c0.7-0.8,0.4-1.7,0.4-2.5c0.1-1.4,0.5-2.2,1.9-2.3c0.2,0,0.4,0,0.6-0.1c0-0.1,0.1-0.1,0.1-0.2c-0.1-0.1-0.3-0.1-0.4-0.2
				c-0.6-0.6-0.6-0.9,0.3-1.1c0.6-0.1,1.2-0.2,2-0.3c-0.1-0.3-0.2-0.8-0.4-1.4c0.1-0.3,0.5-0.7,0.4-1.2c-0.1-1.2-0.4-2.4-0.5-3.6
				c-0.1-0.6-0.1-1.2-0.1-1.8c0-0.5,0.2-1.1,0.3-1.6c0.2-0.9,0.3-1.9,1.4-2.6c-0.8-0.3-1.4-0.5-2-0.7c-0.3-0.1-0.6-0.3-0.8-0.4
				c-0.4-0.4-0.5-0.8,0.2-1c0.6-0.2,1.2-0.7,2-0.3c0.2,0.1,0.5,0,0.7,0c0.6,0,1.3-0.3,1.9-0.1c1.7,0.4,3.3-0.1,4.9-0.3
				c0.9-0.1,1.1-0.1,1.1,0.8c0,0.6,0.5,1,1,0.9c1.1-0.4,1.9-0.1,2.4,0.9c0,0,0.1,0,0.3,0c0.2-0.6,0.6-1.1,0.7-1.7
				c0-0.3-0.7-0.6-1.1-0.8c-0.5-0.3-0.5-0.7-0.2-1.1c0.5-0.8,1.1-1.6,1.6-2.4c0.7-1.2,1.5-2.4,2.1-3.7c0.7-1.6,2.1-2.7,2.5-4.5
				c0.2-0.7,0.6-0.8,1.2-0.3c0.6,0.5,1.3,1,1.9,1.6c1.4,1.3,3.2,0.8,4.8,1.5c0.3,0.1,0.7,0.2,0.8,0.4c0.2,0.2,0.1,0.6,0.1,1.1
				c0.7-0.3,1.4-0.7,2.1-1c0.3-0.1,0.6-0.2,0.9-0.2c0.7,0.1,2-0.7,2.1-1.4c0.1-1,0.2-2.1,0.1-3.1c-0.2-1.9,0.6-3.4,1.6-4.8
				c0.2-0.3,0.6-0.5,0.9-0.5c0.9,0,1.8,0.2,2.7,0c1.4-0.3,2.4-1.3,2.3-2.7c0-0.3,0.1-0.7,0.3-0.9c0.6-0.7,1.7-0.8,2.6-0.3
				c0.5,0.3,0.9,0.5,1.6,0.2c0.4-0.2,1-0.1,1.7-0.2c-0.3,0.8,0.6,1.8-1,2.2c0.5,0.4,0.8,0.8,1.2,1.1c0.4,0.3,0.7,0.6,0.1,1
				c-0.1,0.1-0.2,0.2-0.3,0.3c0.8,0.6,1.5,1.1,2.2,1.7c0.3,0.3,0.4,0.7,0.6,1c0.1,0.2,0.1,0.6,0.2,0.7c0.6,0.6,1.5,0.9,1.9,1.7
				c0.1,0.2,0.6,0.2,0.8,0.2c1.3-0.2,1.3-0.2,2.1,0.9c0.3,0.4,0.6,1.4,1.4,0.5c0,0,0.6,0.3,0.6,0.4c-0.1,0.7,0.3,1,0.9,1.3
				c0.2,0.1,0.4,0.2,0.4,0.4c0.2,0.7,0.4,1.4,0.4,2.2c0.1,1.3,0.4,2.5,1.5,3.3c0.2,0.1,0.3,0.5,0.3,0.7c0.1,0.3,0,0.5,0.1,0.8
				c0.2,0.9,0.3,1.8-0.2,2.6c-0.5,0.8-0.9,1.5-0.4,2.5c0.1,0.3-0.2,0.9-0.4,1.2c-0.3,0.5-0.9,0.8-1.2,1.3c-0.3,0.6-0.7,1.3-0.6,2
				c0.1,0.8,0.5,1.5,0.8,2.2c0-0.1,0.1-0.1,0.1-0.2c0.5,0.3,1,0.6,1.5,0.9c0.3,0.1,0.6,0.2,0.9,0.2c0.2,0,0.3,0.1,0.5,0.2
				c0.4,0.2,0.9,0.4,1.3,0.5c0.7,0.2,1.4,0.2,2,0.4c0.7,0.2,1.4,0.6,2.1,0.6c1.5-0.2,2.9,0.3,4.3,0.7c0.8,0.2,2,0.6,2.1,1.2
				c0.6,1.8,2.8,1.4,3.3,3c0,0,0.2,0,0.2,0.1c0.3,0.2,0.7,0.4,0.9,0.7c0.9,1.1,2,1.5,3.4,1.4c0.3,0,0.6,0,0.9,0
				c-0.2,0.3-0.3,0.5-0.4,0.7c-0.4,0.8-0.2,1.1,0.5,1.6c0.2,0.1,0.4,0.3,0.4,0.6c0.4,1.3,1,2.6,1.1,4c0.1,1.1,0.6,1.8,1.3,2.6
				c0.7,0.8,1.5,1.4,1.3,2.7c0.5,0,0.9,0,1.2,0c1.3,0,2.7-0.2,4,0c3.8,0.6,7.6,1.4,11.4,2.1c0.4,0.1,0.9,0.2,1.3,0
				c1.8-0.7,3.5-0.5,5.3,0c1.5,0.4,3.1,0.6,4.6,0.7c1.3,0.1,2.3,0.3,2.8,1.6c0.4,0.8,1.1,1.3,2,1.5c2.8,0.6,5.7,1.2,8.1,2.9
				c0.2,0.2,0.6,0.2,0.9,0.1c1.3-0.2,2.7-0.5,4.1-0.8c0,0.3,0.1,0.5,0,0.7c-0.1,0.8,0.2,1.2,1,1.1c0.6,0,1.2,0.1,1.6,0.2
				c0.8-0.5,1.6-1.1,2.4-1.5c3.3-1.7,6.4-3.7,10.1-4.3c2.9-0.5,5.8-1.4,8.7-0.8c0.2,0,0.4-0.1,0.6-0.1c0.4-0.1,0.9-0.2,1.3-0.2
				c1.1,0.1,2-0.1,2.8-0.8c0.5-0.4,1.1-0.7,1.8-0.9c1.7-0.5,2.9-1.6,3.7-3.1c0.7-1.3,1.5-2.6,3-3.3c1-0.4,2.1-0.8,2.6-1.9
				c0.1-0.2,0.3-0.3,0.5-0.3c0.6-0.1,0.7-0.6,0.4-1c-0.3-0.5-0.8-0.9-1.2-1.4c-0.5-0.5-0.9-1.1-1.4-1.6c-0.1-0.1-0.1-0.3-0.2-0.4
				c-0.7-0.4-0.4-0.9-0.2-1.5c0.2-0.5,0.2-1,0.4-1.5c0.5-1.2,0.5-2.6,1.8-3.2c0.6-0.3,1.3-0.1,2-0.3c0.6-0.1,1,0.2,1.5,0.5
				c0.4,0.4,0.9,0.7,1.5,0.8c1.4,0.2,2.8,0.3,4.2,0.5c0.1,0,0.4-0.1,0.5-0.2c1.2-1.2,2.7-2.1,3.6-3.5c0.2-0.3,0.4-0.7,0.5-1
				c0.2-0.8,0.7-1.2,1.5-1c1.4,0.3,2.6-0.1,3.9-0.5c0.4-0.1,0.8-0.5,1.2-0.9c0.6-0.5,1.2-1,1.8-1.6c0.2-0.3,0.3-0.7,0.4-1
				c0.1-0.4-0.1-0.8,0-1.1c0.4-0.9,0.8-1.8,1.4-2.6c0.4-0.5,1.1-0.7,1.6-0.9c0.5-0.2,1-0.1,1.5-0.1c0.6,0,0.9-0.1,0.8-0.8
				c0-0.7,0.2-1.3,1.1-1.3c0.3,0.3,0.6,0.8,1.2,0.3c0.7-0.6,1.3-1.1,2-1.6c0.2-0.1,0.5-0.1,0.7-0.1c0.8,0,1.7,0.2,2.3-0.6
				c0.1-0.1,0.3-0.1,0.4,0c0.5,0.2,0.9,0.5,1.4,0.5c0.8,0,1.6-0.1,2.4-0.1c1,0,1.6-0.6,1.2-1.4c-0.4-1-1.1-1.8-1.7-2.8
				c0,0,0,0-0.1,0c-1-0.7-2-1.3-2.9-2c-0.1-0.1-0.1-0.3-0.2-0.3c-0.3-0.3-0.6-0.6-0.9-0.8c-0.5-0.3-1.1-0.3-1.5-0.7
				c-0.6-0.7-1.2-1.1-2.3-1.1c-1.5,0.1-2.7,0.2-3.4,1.8c-0.1,0.3-0.4,0.5-0.5,0.8c-0.6,0.9-0.6,1-1.6,0.3c-1-0.7-2-1-3.1-0.4
				c-0.3,0.1-0.7,0.2-1,0.2c-0.9-0.1-1.5,0.2-1.9,1c-0.2,0.5-0.6,0.6-1.1,0.2c-0.4-0.4-1-0.6-1.3-1.1c-0.4-0.5-0.6-1.2-0.7-1.8
				c0-0.2,0.5-0.6,0.8-0.8c0.5-0.3,0.4-0.6,0.4-1.1c-0.1-0.5-0.3-1.1-0.1-1.5c0.4-1,0.8-2.1,1-3.2c0.3-1.4,0.8-2.8,1.2-4.2
				c0.3-1,0.6-2,0.9-2.9c1.2,0.3,2.3,0.7,3.4,1c0.7,0.2,1.3,0.2,2,0.3c0.3,0,0.7,0.2,0.9,0c0.6-0.5,1.1-1,1.5-1.6
				c1.1-1.2,2-2.6,3.9-2.8c0.9-0.1,1.3-0.8,1.2-1.7c-0.1-0.3-0.1-0.6-0.2-0.9c-0.7-0.1-1.5,0-0.6-1c0-0.1,0-0.2,0-0.2
				c0-1.3,1.4-2.2,1-3.6c0,0,0,0,0-0.1c0.4-1.1,0.9-2.2,1.1-3.4c0.4-1.7,1-3.3,2.4-4.5c0.8-0.6,0.7-1.4,0.8-2.1
				c0.1-0.3-0.2-0.7-0.4-0.9c-0.4-0.3-0.5-0.6-0.4-1.1c0.2-1-0.5-1.5-1.4-1.2c-0.3,0.1-0.6,0.3-0.8,0.4c-0.4,0.2-0.9,0.2-1-0.3
				c-0.1-0.5-0.3-1.1,0.4-1.5c0.3-0.2,0.5-0.6,0.8-1c0.5-0.8,1.1-1.6,1.6-2.5c0.3-0.6,0.9-0.7,1.5-0.9c0.7-0.2,1.4-0.4,2-0.7
				c1.1-0.5,2.2-1.2,3.4-1.7c0.1,0,0.2,0,0.3-0.1c0.9-0.2,1.8-0.3,2.7-0.6c0.6-0.2,1.2-0.6,1.8-0.9C272.3,2.3,272.7,2.2,273.1,2.1z"
				/>
		</defs>
		<clipPath id="SVGID_00000050648671874166013410000017002169936586357917_">
			<use xlink:href="#SVGID_1_"  style="overflow:visible;"/>
		</clipPath>
		
			<g id="D0o2mV.tif_00000057132943982407190930000009374603147251684015_" style="clip-path:url(#SVGID_00000050648671874166013410000017002169936586357917_);">
			
				<image style="overflow:visible;opacity:0.75;" class="leaders"  width="258" height="261" xlink:href="../img/2EAB054F.png"  transform="matrix(1 0 0 1 -14 19)">
			</image>
			<g>
				<g>
					
						<image style="overflow:visible;" width="456" height="461" id="Layer_0_00000168802172784128754430000009085058630876900793_" xlink:href="../img/2EAB054A.png" class="leaders" transform="matrix(0.4987 0 0 0.4987 -5.8726 27.3597)">
					</image>
				</g>
			</g>
		</g>
	</g>
	<g>
		<defs>
			<path id="SVGID_00000074408818538793065990000013732789244006784694_" d="M29.2,10.6c0,0-29.8,83.7,22.7,110.5
				s92.7,56.8,92.7,56.8l70.2-1l8.9-43.7l22.3-67.9c0,0-6.5-9.1-24.4-16.8s-65.9-26.7-65.9-26.7s-32.4-12.3-42.4-11.2
				S29.2,10.6,29.2,10.6z"/>
		</defs>
		<clipPath id="SVGID_00000024002365525911107360000010569084847551989138_">
			<use xlink:href="#SVGID_00000074408818538793065990000013732789244006784694_"  style="overflow:visible;"/>
		</clipPath>
		
			<g id="D0o2mV.tif_00000058547061812675386740000009880220125141590958_" style="clip-path:url(#SVGID_00000024002365525911107360000010569084847551989138_);">
			
				<image style="overflow:visible;" width="456" height="461" id="Layer_0_00000026882088965569780820000013345525042106776708_" 
				class="leaders" xlink:href="../img/2EAB0549.png"  transform="matrix(0.4987 0 0 0.4987 -5.8726 27.3597)">
			</image>
		</g>
	</g>
</g>
</svg>
